<svg width="752" height="770" viewBox="0 0 752 770" fill="none" xmlns="http://www.w3.org/2000/svg">
<g filter="url(#filter0_d_43_1436)">
<path d="M179.501 51.0487L120.724 5.31502C116.951 2.37962 111.498 3.0392 108.545 6.78825L10.9996 130.592C8.04577 134.342 8.70951 139.76 12.4821 142.696L71.2596 188.429C75.0323 191.365 80.4851 190.705 83.439 186.956L180.984 63.152C183.938 59.4029 183.274 53.9841 179.501 51.0487Z" fill="#F5F5F5"/>
<path d="M73.2606 171.836C73.1607 171.935 63.6191 164.671 51.946 155.586C40.273 146.501 30.8813 139.038 30.9645 138.922C31.0478 138.806 40.5894 146.088 52.2791 155.172C63.9688 164.257 73.3438 171.72 73.2606 171.836Z" fill="#E0E0E0"/>
<path d="M161.666 54.7761C161.566 54.8919 152.025 47.6108 140.352 38.526C128.679 29.4412 119.27 21.978 119.37 21.8622C119.47 21.7464 128.995 29.0275 140.685 38.1123C152.374 47.1971 161.749 54.6602 161.666 54.7761Z" fill="#E0E0E0"/>
<path d="M50.9136 154.097C50.797 153.997 70.9959 128.183 96.0072 96.4437C121.018 64.7047 141.4 39.0223 141.517 39.1051C141.634 39.1878 121.451 65.0026 96.4235 96.7581C71.3955 128.514 51.0302 154.179 50.9136 154.097Z" fill="#E0E0E0"/>
<path d="M106.714 47.0149L112.026 39.9324L118.687 44.8968C119.155 45.2427 119.549 45.677 119.848 46.1747C120.146 46.6725 120.343 47.2239 120.427 47.7974C120.51 48.3708 120.479 48.9551 120.335 49.5165C120.191 50.078 119.936 50.6056 119.586 51.0691C118.883 52.0069 117.834 52.6293 116.67 52.7999C115.506 52.9705 114.321 52.6754 113.375 51.9793L106.714 47.0149Z" fill="#EBEBEB"/>
<path d="M113.225 40.8259L107.913 47.8919L101.253 42.9275C100.295 42.238 99.6517 41.1989 99.4643 40.0385C99.277 38.878 99.5608 37.6912 100.253 36.7386C100.602 36.2737 101.039 35.8817 101.54 35.5851C102.04 35.2885 102.595 35.093 103.172 35.01C103.749 34.927 104.337 34.958 104.902 35.1013C105.467 35.2446 105.998 35.4973 106.465 35.845L113.225 40.8259Z" fill="#E0E0E0"/>
<path d="M141.117 73.1278L146.429 66.0453L153.09 71.0097C154.035 71.7116 154.662 72.7566 154.833 73.9163C155.005 75.0761 154.707 76.2561 154.006 77.1986C153.297 78.1349 152.244 78.7543 151.078 78.9218C149.911 79.0892 148.725 78.791 147.778 78.0922L141.117 73.1278Z" fill="#EBEBEB"/>
<path d="M147.628 66.9222L142.316 74.0047L135.655 69.0403C135.188 68.6944 134.793 68.2601 134.495 67.7624C134.196 67.2646 134 66.7132 133.916 66.1397C133.833 65.5662 133.864 64.982 134.008 64.4206C134.152 63.8591 134.406 63.3315 134.756 62.868C135.104 62.4031 135.541 62.0111 136.042 61.7145C136.543 61.4179 137.098 61.2224 137.675 61.1394C138.252 61.0564 138.84 61.0874 139.405 61.2307C139.97 61.374 140.501 61.6267 140.967 61.9744L147.628 66.9222Z" fill="#E0E0E0"/>
<path d="M91.811 66.5415L97.123 59.459L103.784 64.4234C104.729 65.1253 105.355 66.1703 105.527 67.33C105.698 68.4898 105.401 69.6698 104.7 70.6123C103.991 71.5485 102.938 72.168 101.771 72.3355C100.604 72.5029 99.4182 72.2047 98.4718 71.5059L91.811 66.5415Z" fill="#EBEBEB"/>
<path d="M98.3052 60.3361L93.0099 67.4187L86.3491 62.4543C85.8813 62.1084 85.4869 61.6741 85.1884 61.1763C84.8899 60.6785 84.6932 60.1271 84.6097 59.5536C84.5261 58.9802 84.5573 58.396 84.7015 57.8345C84.8457 57.2731 85.1 56.7454 85.4499 56.2819C85.798 55.817 86.235 55.4251 86.7359 55.1284C87.2368 54.8318 87.7917 54.6364 88.3687 54.5534C88.9458 54.4703 89.5337 54.5013 90.0987 54.6446C90.6637 54.7879 91.1946 55.0406 91.6611 55.3883L98.3052 60.3361Z" fill="#E0E0E0"/>
<path d="M126.996 93.217L132.308 86.151L138.969 91.1154C139.913 91.8143 140.539 92.8565 140.711 94.0135C140.882 95.1705 140.585 96.348 139.885 97.2878C139.537 97.7544 139.099 98.1482 138.597 98.4466C138.096 98.745 137.54 98.9421 136.961 99.0267C136.383 99.1112 135.793 99.0815 135.226 98.9393C134.659 98.7971 134.126 98.5451 133.657 98.1979L126.996 93.217Z" fill="#EBEBEB"/>
<path d="M133.558 87.0279L128.262 94.1104L121.602 89.1461C121.134 88.8001 120.739 88.3658 120.441 87.8681C120.142 87.3703 119.946 86.8189 119.862 86.2454C119.779 85.672 119.81 85.0878 119.954 84.5263C120.098 83.9649 120.352 83.4372 120.702 82.9737C121.406 82.0359 122.454 81.4136 123.619 81.243C124.783 81.0724 125.968 81.3674 126.913 82.0635L133.558 87.0279Z" fill="#E0E0E0"/>
<path d="M76.9404 86.0515L82.2524 78.969L88.9132 83.9334C89.381 84.2793 89.7754 84.7136 90.0739 85.2114C90.3724 85.7091 90.5691 86.2605 90.6526 86.834C90.7362 87.4075 90.7049 87.9917 90.5608 88.5531C90.4166 89.1146 90.1623 89.6422 89.8124 90.1058C89.1091 91.0435 88.0604 91.6659 86.8961 91.8365C85.7318 92.0071 84.5469 91.712 83.6012 91.0159L76.9404 86.0515Z" fill="#EBEBEB"/>
<path d="M83.4015 79.8958L78.0895 86.9783L71.4288 82.0139C70.9597 81.6692 70.5638 81.2359 70.2637 80.7387C69.9637 80.2415 69.7654 79.6904 69.6803 79.1168C69.5952 78.5433 69.625 77.9587 69.7678 77.3967C69.9107 76.8346 70.1639 76.3061 70.5129 75.8416C71.2152 74.918 72.2541 74.3053 73.4063 74.1351C74.5585 73.9649 75.7319 74.2508 76.6741 74.9314L83.4015 79.8958Z" fill="#E0E0E0"/>
<path d="M112.876 113.323L118.171 106.24L124.832 111.204C125.3 111.55 125.694 111.985 125.992 112.482C126.291 112.98 126.488 113.532 126.571 114.105C126.655 114.678 126.623 115.263 126.479 115.824C126.335 116.386 126.081 116.913 125.731 117.377C125.028 118.314 123.979 118.937 122.815 119.107C121.65 119.278 120.465 118.983 119.52 118.287L112.876 113.323Z" fill="#EBEBEB"/>
<path d="M119.37 107.134L114.058 114.216L107.397 109.252C106.924 108.909 106.523 108.477 106.218 107.98C105.913 107.484 105.71 106.932 105.62 106.357C105.53 105.782 105.556 105.195 105.695 104.629C105.834 104.064 106.084 103.532 106.431 103.063C107.138 102.124 108.189 101.501 109.356 101.331C110.523 101.16 111.711 101.456 112.659 102.153L119.37 107.134Z" fill="#E0E0E0"/>
<path d="M59.9889 106.108L65.2842 99.0251L71.945 103.99C72.4128 104.335 72.8072 104.77 73.1057 105.268C73.4042 105.765 73.6009 106.317 73.6844 106.89C73.768 107.464 73.7367 108.048 73.5926 108.609C73.4484 109.171 73.1941 109.698 72.8442 110.162C72.4961 110.627 72.0591 111.019 71.5582 111.315C71.0573 111.612 70.5024 111.807 69.9254 111.89C69.3483 111.973 68.7604 111.942 68.1954 111.799C67.6304 111.656 67.0995 111.403 66.633 111.056L59.9889 106.108Z" fill="#EBEBEB"/>
<path d="M66.4831 99.9022L61.1712 106.985L54.5104 102.02C53.5708 101.314 52.9507 100.266 52.7854 99.1067C52.62 97.9472 52.9229 96.7698 53.6278 95.8314C54.3366 94.8952 55.3894 94.2757 56.5563 94.1083C57.7232 93.9409 58.9093 94.2391 59.8557 94.9378L66.4831 99.9022Z" fill="#E0E0E0"/>
<path d="M96.2568 132.965L101.569 125.883L108.23 130.847C108.699 131.192 109.095 131.625 109.395 132.122C109.695 132.619 109.893 133.171 109.978 133.744C110.063 134.318 110.033 134.902 109.891 135.464C109.748 136.026 109.494 136.555 109.145 137.019C108.797 137.484 108.36 137.876 107.859 138.173C107.359 138.469 106.804 138.665 106.227 138.748C105.65 138.831 105.062 138.8 104.497 138.657C103.932 138.513 103.401 138.261 102.934 137.913L96.2568 132.965Z" fill="#EBEBEB"/>
<path d="M102.768 126.776L97.4558 133.842L90.795 128.878C89.8528 128.173 89.2294 127.127 89.061 125.967C88.8925 124.808 89.1926 123.629 89.8958 122.689C90.2438 122.224 90.6809 121.832 91.1818 121.535C91.6827 121.239 92.2376 121.043 92.8146 120.96C93.3917 120.877 93.9796 120.908 94.5446 121.051C95.1095 121.195 95.6405 121.447 96.1069 121.795L102.768 126.776Z" fill="#E0E0E0"/>
<path d="M45.0354 128.696L50.2974 121.613L56.9582 126.578C57.9004 127.282 58.5237 128.328 58.6922 129.488C58.8607 130.647 58.5606 131.826 57.8574 132.766C57.5093 133.231 57.0723 133.623 56.5714 133.92C56.0705 134.217 55.5156 134.412 54.9386 134.495C54.3615 134.578 53.7736 134.547 53.2086 134.404C52.6437 134.26 52.1127 134.008 51.6462 133.66L45.0354 128.696Z" fill="#EBEBEB"/>
<path d="M51.5463 122.49L46.2343 129.54L39.5735 124.575C38.6321 123.879 38.0057 122.841 37.831 121.688C37.6564 120.535 37.9475 119.36 38.641 118.419C38.9891 117.955 39.4261 117.563 39.927 117.266C40.4279 116.969 40.9828 116.774 41.5599 116.691C42.1369 116.608 42.7248 116.639 43.2898 116.782C43.8548 116.925 44.3857 117.178 44.8522 117.526L51.5463 122.49Z" fill="#E0E0E0"/>
<path d="M79.5549 154.246L84.8669 147.163L91.5277 152.127C91.9968 152.472 92.3927 152.906 92.6927 153.403C92.9928 153.9 93.1911 154.451 93.2762 155.025C93.3613 155.598 93.3315 156.183 93.1886 156.745C93.0458 157.307 92.7925 157.835 92.4436 158.3C92.0955 158.765 91.6584 159.157 91.1576 159.453C90.6567 159.75 90.1018 159.945 89.5247 160.028C88.9476 160.111 88.3598 160.08 87.7948 159.937C87.2298 159.794 86.6988 159.541 86.2324 159.193L79.5549 154.246Z" fill="#EBEBEB"/>
<path d="M86.0661 148.04L80.7541 155.123L74.0933 150.158C73.1512 149.454 72.5278 148.408 72.3593 147.248C72.1908 146.088 72.4909 144.91 73.1941 143.969C73.5422 143.504 73.9792 143.112 74.4801 142.816C74.981 142.519 75.5359 142.324 76.113 142.241C76.69 142.158 77.2779 142.189 77.8429 142.332C78.4079 142.475 78.9388 142.728 79.4053 143.076L86.0661 148.04Z" fill="#E0E0E0"/>
<path d="M742.121 466.224L635.149 502.448C634.069 502.812 632.929 502.961 631.791 502.887C630.654 502.813 629.543 502.518 628.52 502.017C627.498 501.516 626.585 500.819 625.834 499.968C625.083 499.116 624.508 498.126 624.142 497.053L549.524 279.381C549.155 278.309 549.001 277.175 549.073 276.043C549.146 274.912 549.441 273.806 549.944 272.789C550.447 271.771 551.146 270.862 552.003 270.114C552.86 269.365 553.856 268.792 554.936 268.427L661.908 232.22C664.086 231.483 666.468 231.636 668.532 232.644C670.596 233.653 672.173 235.435 672.915 237.598L747.533 455.286C747.902 456.357 748.055 457.49 747.983 458.62C747.91 459.75 747.614 460.855 747.112 461.871C746.609 462.888 745.909 463.795 745.053 464.542C744.196 465.289 743.2 465.861 742.121 466.224Z" fill="#EBEBEB"/>
<path d="M603.843 298.56C604.454 300.335 604.521 302.25 604.036 304.063C603.551 305.876 602.536 307.505 601.12 308.745C599.703 309.984 597.948 310.778 596.077 311.026C594.206 311.275 592.303 310.966 590.609 310.139C588.914 309.312 587.505 308.005 586.559 306.382C585.612 304.759 585.172 302.893 585.293 301.021C585.413 299.149 586.09 297.355 587.237 295.865C588.384 294.376 589.95 293.258 591.737 292.653C594.131 291.842 596.75 292.009 599.02 293.117C601.29 294.224 603.025 296.182 603.843 298.56Z" fill="#FAFAFA"/>
<path d="M656.296 280.804C656.904 282.576 656.969 284.488 656.483 286.296C655.997 288.105 654.983 289.73 653.568 290.966C652.153 292.202 650.401 292.993 648.534 293.239C646.666 293.486 644.767 293.176 643.077 292.35C641.387 291.524 639.981 290.218 639.037 288.598C638.093 286.978 637.654 285.116 637.775 283.248C637.896 281.38 638.571 279.59 639.716 278.103C640.861 276.617 642.424 275.501 644.207 274.897C645.391 274.496 646.643 274.33 647.892 274.41C649.14 274.49 650.361 274.813 651.483 275.362C652.606 275.911 653.609 276.674 654.435 277.607C655.26 278.541 655.893 279.628 656.296 280.804Z" fill="#FAFAFA"/>
<path d="M620.445 347.029C621.052 348.801 621.117 350.712 620.631 352.521C620.146 354.33 619.131 355.955 617.716 357.191C616.301 358.426 614.55 359.218 612.682 359.464C610.815 359.71 608.916 359.401 607.225 358.575C605.535 357.749 604.129 356.443 603.185 354.823C602.241 353.203 601.802 351.341 601.923 349.473C602.044 347.605 602.72 345.814 603.865 344.328C605.01 342.841 606.572 341.726 608.355 341.122C609.539 340.718 610.792 340.551 612.041 340.63C613.29 340.709 614.511 341.032 615.635 341.581C616.758 342.13 617.761 342.893 618.586 343.828C619.412 344.763 620.043 345.851 620.445 347.029Z" fill="#FAFAFA"/>
<path d="M672.915 329.273C673.522 331.045 673.587 332.957 673.101 334.765C672.616 336.574 671.601 338.199 670.186 339.435C668.771 340.671 667.02 341.462 665.152 341.708C663.285 341.955 661.386 341.645 659.695 340.819C658.005 339.993 656.599 338.687 655.655 337.067C654.711 335.447 654.272 333.585 654.393 331.717C654.514 329.849 655.19 328.059 656.335 326.572C657.48 325.086 659.042 323.97 660.826 323.366C662.01 322.965 663.262 322.799 664.51 322.879C665.759 322.959 666.979 323.282 668.102 323.831C669.224 324.38 670.227 325.143 671.053 326.076C671.879 327.01 672.511 328.097 672.915 329.273Z" fill="#FAFAFA"/>
<path d="M637.063 395.515C637.671 397.287 637.736 399.198 637.25 401.007C636.764 402.815 635.75 404.44 634.335 405.676C632.92 406.912 631.168 407.703 629.301 407.949C627.433 408.196 625.534 407.886 623.844 407.06C622.153 406.234 620.747 404.929 619.804 403.309C618.86 401.688 618.421 399.827 618.542 397.958C618.663 396.09 619.338 394.3 620.483 392.813C621.628 391.327 623.191 390.211 624.974 389.607C626.158 389.206 627.41 389.041 628.659 389.12C629.907 389.2 631.127 389.524 632.25 390.072C633.373 390.621 634.376 391.384 635.201 392.318C636.027 393.251 636.66 394.338 637.063 395.515Z" fill="#FAFAFA"/>
<path d="M689.533 377.759C690.141 379.531 690.206 381.442 689.72 383.251C689.234 385.059 688.22 386.684 686.805 387.92C685.39 389.156 683.638 389.947 681.771 390.194C679.903 390.44 678.004 390.131 676.314 389.305C674.624 388.478 673.218 387.173 672.274 385.553C671.33 383.933 670.891 382.071 671.012 380.203C671.133 378.335 671.808 376.544 672.953 375.058C674.098 373.571 675.661 372.455 677.444 371.851C678.628 371.45 679.88 371.285 681.129 371.365C682.377 371.444 683.598 371.768 684.72 372.316C685.843 372.865 686.846 373.628 687.672 374.562C688.497 375.496 689.13 376.582 689.533 377.759Z" fill="#FAFAFA"/>
<path d="M653.682 443.95C654.29 445.722 654.355 447.634 653.869 449.442C653.383 451.251 652.369 452.876 650.954 454.112C649.539 455.348 647.787 456.139 645.92 456.385C644.052 456.632 642.153 456.322 640.463 455.496C638.773 454.67 637.367 453.364 636.423 451.744C635.479 450.124 635.04 448.262 635.161 446.394C635.282 444.526 635.957 442.736 637.102 441.249C638.247 439.763 639.81 438.647 641.593 438.043C642.777 437.642 644.029 437.476 645.278 437.556C646.526 437.636 647.746 437.959 648.869 438.508C649.992 439.057 650.995 439.82 651.821 440.753C652.646 441.687 653.279 442.774 653.682 443.95Z" fill="#FAFAFA"/>
<path d="M706.152 426.228C706.76 428 706.825 429.911 706.339 431.72C705.853 433.528 704.839 435.153 703.424 436.389C702.009 437.625 700.257 438.416 698.39 438.662C696.522 438.909 694.623 438.599 692.933 437.773C691.242 436.947 689.836 435.642 688.893 434.022C687.949 432.401 687.51 430.54 687.631 428.671C687.752 426.803 688.427 425.013 689.572 423.526C690.717 422.04 692.28 420.924 694.063 420.32C695.247 419.919 696.499 419.754 697.748 419.833C698.996 419.913 700.216 420.237 701.339 420.785C702.462 421.334 703.465 422.097 704.29 423.031C705.116 423.964 705.749 425.051 706.152 426.228Z" fill="#FAFAFA"/>
<path d="M598.731 293.48C597.715 296.281 596.467 298.993 595.001 301.588C593.765 304.303 592.294 306.905 590.604 309.366C591.62 306.565 592.868 303.853 594.335 301.258C595.567 298.542 597.038 295.939 598.731 293.48Z" fill="#E0E0E0"/>
<path d="M650.102 275.658C649.094 278.464 647.852 281.182 646.389 283.783C645.141 286.491 643.671 289.093 641.992 291.56C643.004 288.756 644.246 286.038 645.706 283.435C646.958 280.729 648.428 278.128 650.102 275.658Z" fill="#E0E0E0"/>
<path d="M615.832 341.949C614.957 344.875 613.843 347.725 612.502 350.471C611.407 353.337 610.07 356.104 608.505 358.745C609.387 355.821 610.5 352.972 611.836 350.223C612.934 347.359 614.271 344.592 615.832 341.949Z" fill="#E0E0E0"/>
<path d="M667.653 324.077C666.955 326.912 666.007 329.681 664.822 332.351C663.87 335.121 662.684 337.806 661.275 340.377C661.977 337.543 662.924 334.774 664.106 332.103C665.066 329.336 666.252 326.652 667.653 324.077Z" fill="#E0E0E0"/>
<path d="M630.885 390.219C629.134 395.516 626.904 400.644 624.225 405.543C625.976 400.246 628.206 395.117 630.885 390.219Z" fill="#E0E0E0"/>
<path d="M684.622 373.274C682.422 378.497 679.758 383.514 676.662 388.267C677.64 385.608 678.861 383.043 680.309 380.605C681.534 378.044 682.977 375.592 684.622 373.274Z" fill="#E0E0E0"/>
<path d="M648.919 439.383C647.831 442.142 646.511 444.804 644.973 447.343C643.655 450 642.112 452.541 640.36 454.938C642.764 449.521 645.627 444.317 648.919 439.383Z" fill="#E0E0E0"/>
<path d="M701.273 420.055C700.403 423.165 699.289 426.202 697.943 429.14C696.835 432.17 695.488 435.108 693.913 437.927C694.783 434.817 695.897 431.779 697.244 428.842C698.347 425.81 699.695 422.872 701.273 420.055Z" fill="#E0E0E0"/>
<path d="M720.407 452.224C720.407 452.423 704.404 458.033 684.522 464.768C664.639 471.503 648.437 476.798 648.37 476.6C648.304 476.401 664.373 470.791 684.272 464.056C704.171 457.321 720.34 451.993 720.407 452.224Z" fill="#E0E0E0"/>
<path d="M649.103 257.306C649.103 257.488 633.1 263.114 613.201 269.85C593.302 276.585 577.133 281.88 577.066 281.681C577 281.483 593.069 275.873 612.968 269.138C632.867 262.403 649.036 257.108 649.103 257.306Z" fill="#E0E0E0"/>
<path d="M614.117 279.216C614.024 279.24 613.927 279.24 613.834 279.216H613.734L614.467 278.984C614.467 279.1 614.467 279.265 614.2 279.332C613.934 279.398 613.801 279.332 613.751 279.216L614.483 278.984C614.483 278.984 614.483 279.067 614.483 279.083C614.436 279.131 614.379 279.168 614.315 279.191C614.252 279.214 614.184 279.222 614.117 279.216Z" fill="#E0E0E0"/>
<path d="M681.94 464.784C681.741 464.784 666.554 421.065 648.004 366.986C629.453 312.907 614.6 268.989 614.8 268.923C614.999 268.857 630.186 312.643 648.72 366.738C667.253 420.833 682.14 464.718 681.94 464.784Z" fill="#E0E0E0"/>
<path d="M285.539 750.216L291.251 664.984L458.881 676.078C461.649 676.261 464.23 677.529 466.056 679.603C467.883 681.677 468.805 684.387 468.621 687.137L464.299 751.631C464.115 754.381 462.839 756.946 460.751 758.761C458.664 760.576 455.937 761.493 453.17 761.309L285.539 750.216Z" fill="#F5F5F5"/>
<path d="M337.986 699.878L334.397 753.441L411.458 758.541L415.048 704.978L337.986 699.878Z" fill="#E0E0E0"/>
<path d="M275.646 660.041L269.246 755.543C269.118 757.458 270.576 759.113 272.503 759.241L295.299 760.75C297.226 760.877 298.892 759.428 299.02 757.513L305.42 662.011C305.549 660.096 304.091 658.441 302.164 658.313L279.368 656.804C277.441 656.677 275.774 658.126 275.646 660.041Z" fill="#EBEBEB"/>
<path d="M299.345 752.834C294.343 752.964 289.338 752.787 284.358 752.305C279.382 752.124 274.422 751.643 269.505 750.865C274.506 750.736 279.511 750.913 284.491 751.395C289.467 751.575 294.428 752.056 299.345 752.834Z" fill="#E0E0E0"/>
<path d="M299.894 744.56C294.92 744.697 289.942 744.52 284.99 744.031C280.014 743.851 275.054 743.37 270.137 742.591C275.111 742.474 280.087 742.651 285.04 743.12C290.016 743.301 294.977 743.781 299.894 744.56Z" fill="#E0E0E0"/>
<path d="M300.46 736.303C295.458 736.432 290.453 736.255 285.473 735.773C280.497 735.593 275.537 735.113 270.62 734.334C275.622 734.205 280.627 734.381 285.607 734.863C290.583 735.045 295.543 735.525 300.46 736.303Z" fill="#E0E0E0"/>
<path d="M301.01 728.029C296.008 728.158 291.003 727.981 286.023 727.499C281.047 727.319 276.087 726.838 271.169 726.06C276.171 725.94 281.176 726.117 286.156 726.589C291.132 726.769 296.093 727.25 301.01 728.029Z" fill="#E0E0E0"/>
<path d="M301.559 719.772C296.585 719.898 291.608 719.722 286.656 719.242C281.674 719.062 276.708 718.581 271.785 717.802C276.787 717.673 281.792 717.85 286.772 718.332C291.726 718.515 296.664 718.995 301.559 719.772Z" fill="#E0E0E0"/>
<path d="M302.125 711.498C297.123 711.627 292.118 711.45 287.138 710.968C282.162 710.788 277.202 710.307 272.285 709.528C277.287 709.408 282.291 709.585 287.272 710.058C292.247 710.239 297.208 710.72 302.125 711.498Z" fill="#E0E0E0"/>
<path d="M302.675 703.24C297.673 703.37 292.668 703.193 287.688 702.711C282.712 702.531 277.752 702.05 272.835 701.271C277.836 701.142 282.841 701.319 287.821 701.801C292.797 701.982 297.758 702.463 302.675 703.24Z" fill="#E0E0E0"/>
<path d="M303.224 694.966C298.223 695.095 293.218 694.919 288.238 694.437C283.262 694.255 278.301 693.775 273.384 692.997C278.386 692.878 283.39 693.055 288.371 693.526C293.347 693.707 298.307 694.187 303.224 694.966Z" fill="#E0E0E0"/>
<path d="M303.774 686.709C298.8 686.835 293.823 686.659 288.87 686.179C283.894 685.999 278.934 685.518 274.017 684.739C279.019 684.609 284.024 684.786 289.004 685.269C293.952 685.452 298.884 685.933 303.774 686.709Z" fill="#E0E0E0"/>
<path d="M304.34 678.435C299.338 678.564 294.333 678.387 289.353 677.905C284.377 677.725 279.417 677.245 274.5 676.466C279.501 676.346 284.506 676.523 289.487 676.995C294.462 677.176 299.423 677.657 304.34 678.435Z" fill="#E0E0E0"/>
<path d="M304.89 670.178C299.888 670.307 294.883 670.13 289.903 669.648C284.927 669.468 279.967 668.987 275.049 668.208C280.051 668.079 285.056 668.256 290.036 668.738C295.012 668.918 299.972 669.399 304.89 670.178Z" fill="#E0E0E0"/>
<path d="M305.439 661.903C300.465 662.03 295.488 661.853 290.536 661.374C285.554 661.193 280.588 660.713 275.665 659.934C280.667 659.805 285.672 659.982 290.652 660.464C295.606 660.647 300.544 661.127 305.439 661.903Z" fill="#E0E0E0"/>
<path d="M447.856 744.594L443.021 744.274C441.699 744.186 440.466 743.58 439.593 742.589C438.721 741.599 438.28 740.304 438.368 738.99L439.463 722.644L454.417 723.634L453.322 739.98C453.277 740.643 453.1 741.291 452.799 741.884C452.498 742.478 452.081 743.006 451.571 743.436C451.061 743.866 450.47 744.19 449.831 744.389C449.193 744.588 448.521 744.658 447.856 744.594Z" fill="#EBEBEB"/>
<path d="M444.136 707.361L449.132 707.708C450.457 707.8 451.691 708.412 452.562 709.408C453.433 710.404 453.87 711.703 453.778 713.02L452.624 729.403L437.637 728.36L438.791 711.978C438.884 710.661 439.499 709.435 440.501 708.569C441.504 707.703 442.811 707.269 444.136 707.361Z" fill="#E0E0E0"/>
<path d="M412.79 692.178L411.53 696.849C411.186 698.126 410.345 699.215 409.193 699.876C408.04 700.537 406.671 700.716 405.386 700.374L389.395 696.114L393.292 681.668L409.282 685.928C409.931 686.1 410.539 686.4 411.069 686.81C411.598 687.221 412.04 687.732 412.367 688.315C412.694 688.898 412.9 689.541 412.973 690.204C413.046 690.868 412.984 691.539 412.79 692.178Z" fill="#EBEBEB"/>
<path d="M375.899 685.725L377.152 681.073C377.495 679.801 378.332 678.717 379.479 678.058C380.626 677.4 381.99 677.221 383.27 677.562L399.194 681.799L395.318 696.185L379.393 691.948C378.747 691.776 378.142 691.477 377.615 691.069C377.087 690.661 376.647 690.151 376.321 689.571C375.995 688.991 375.79 688.351 375.717 687.69C375.645 687.03 375.706 686.361 375.899 685.725Z" fill="#E0E0E0"/>
<path d="M459.581 684.56L460.89 689.183C461.247 690.447 461.085 691.801 460.439 692.946C459.792 694.091 458.715 694.934 457.443 695.289L441.617 699.713L437.57 685.415L453.396 680.992C454.038 680.812 454.71 680.762 455.372 680.845C456.033 680.929 456.672 681.143 457.248 681.476C457.825 681.808 458.329 682.253 458.73 682.783C459.13 683.313 459.42 683.917 459.581 684.56Z" fill="#EBEBEB"/>
<path d="M414.232 699.702L412.924 695.079C412.566 693.815 412.729 692.462 413.375 691.316C414.021 690.171 415.099 689.328 416.371 688.973L432.261 684.532L436.307 698.829L420.481 703.252C419.836 703.442 419.16 703.5 418.491 703.423C417.823 703.346 417.178 703.135 416.594 702.803C416.01 702.472 415.5 702.026 415.094 701.493C414.688 700.96 414.395 700.35 414.232 699.702Z" fill="#E0E0E0"/>
<path d="M421.154 743.765L416.667 741.946C415.441 741.449 414.463 740.487 413.949 739.274C413.436 738.06 413.428 736.693 413.929 735.474L420.155 720.305L434.032 725.93L427.805 741.099C427.305 742.318 426.338 743.29 425.116 743.8C423.895 744.311 422.52 744.318 421.293 743.821L421.154 743.765Z" fill="#EBEBEB"/>
<path d="M431.97 704.64L436.457 706.459C437.684 706.956 438.662 707.917 439.175 709.131C439.689 710.345 439.696 711.711 439.196 712.93L432.97 728.1L419.093 722.475L425.319 707.306C425.572 706.69 425.946 706.131 426.419 705.662C426.893 705.193 427.457 704.823 428.077 704.574C428.698 704.326 429.362 704.204 430.03 704.215C430.699 704.226 431.359 704.371 431.97 704.64Z" fill="#E0E0E0"/>
<path d="M653.499 93.1341L664.755 107.365C664.961 107.633 665.053 107.969 665.012 108.303C664.972 108.636 664.802 108.941 664.539 109.153L650.068 120.322C648.993 121.156 647.763 121.77 646.448 122.131C645.133 122.491 643.76 122.59 642.407 122.423C641.054 122.255 639.747 121.824 638.561 121.154C637.376 120.484 636.335 119.589 635.498 118.519C634.659 117.449 634.04 116.225 633.677 114.917C633.314 113.609 633.214 112.243 633.383 110.897C633.552 109.551 633.985 108.251 634.66 107.071C635.334 105.892 636.236 104.856 637.313 104.023L651.784 92.8528C652.054 92.6808 652.379 92.6143 652.695 92.6663C653.012 92.7182 653.298 92.8849 653.499 93.1341Z" fill="#EBEBEB"/>
<path d="M661.924 109.483L650.734 95.2026C650.632 95.0701 650.556 94.9187 650.512 94.7571C650.468 94.5956 650.457 94.427 650.478 94.261C650.5 94.0951 650.554 93.935 650.638 93.7899C650.722 93.6448 650.834 93.5176 650.967 93.4154L665.421 82.2456C666.497 81.4122 667.727 80.7978 669.042 80.4374C670.356 80.077 671.73 79.9777 673.083 80.1452C674.436 80.3128 675.743 80.7438 676.929 81.4137C678.114 82.0836 679.155 82.9792 679.992 84.0493C680.831 85.1194 681.45 86.3433 681.812 87.651C682.175 88.9588 682.275 90.3248 682.107 91.671C681.938 93.0172 681.504 94.3172 680.83 95.4967C680.156 96.6763 679.254 97.7122 678.177 98.5453L663.723 109.682C663.458 109.892 663.119 109.989 662.782 109.952C662.445 109.915 662.137 109.746 661.924 109.483Z" fill="#E0E0E0"/>
<path d="M12.5307 431.97L29.6656 438.159C29.9876 438.278 30.2489 438.519 30.3925 438.829C30.536 439.139 30.5501 439.493 30.4316 439.814L24.1705 456.908C23.7055 458.184 22.992 459.356 22.0706 460.358C21.1492 461.36 20.0381 462.172 18.8008 462.747C17.5636 463.321 16.2244 463.648 14.8599 463.708C13.4954 463.768 12.1325 463.56 10.8489 463.096C8.25801 462.16 6.14705 460.24 4.97942 457.757C3.81178 455.275 3.6829 452.434 4.62105 449.858L10.8822 432.764C10.9364 432.603 11.0224 432.455 11.1351 432.328C11.2478 432.2 11.385 432.097 11.5385 432.023C11.692 431.949 11.8589 431.906 12.0293 431.897C12.1996 431.888 12.3701 431.913 12.5307 431.97Z" fill="#EBEBEB"/>
<path d="M28.4668 441.419L11.3486 435.23C11.1864 435.175 11.0372 435.087 10.91 434.973C10.7829 434.859 10.6804 434.72 10.6087 434.565C10.5371 434.411 10.4979 434.243 10.4934 434.073C10.4889 433.903 10.5192 433.733 10.5826 433.575L16.8437 416.464C17.3085 415.188 18.0222 414.016 18.9439 413.015C19.8655 412.013 20.9771 411.203 22.2148 410.629C23.4524 410.056 24.7919 409.731 26.1562 409.673C27.5205 409.615 28.883 409.825 30.1653 410.292C31.4494 410.754 32.6291 411.463 33.6367 412.379C34.6443 413.295 35.4601 414.399 36.0371 415.629C36.6142 416.859 36.9412 418.19 36.9995 419.546C37.0577 420.902 36.846 422.256 36.3765 423.53L30.1154 440.641C29.9987 440.96 29.7602 441.22 29.4517 441.366C29.1431 441.511 28.7893 441.53 28.4668 441.419Z" fill="#E0E0E0"/>
<path d="M731.364 759.917C731.364 760.165 571.771 760.347 375.011 760.347C178.251 760.347 18.6587 760.165 18.6587 759.917C18.6587 759.669 178.218 759.487 375.094 759.487C571.971 759.487 731.364 759.685 731.364 759.917Z" fill="#263238"/>
<path d="M595.3 28.8785H194.037C184.749 28.8785 177.219 36.3614 177.219 45.592V582.986C177.219 592.217 184.749 599.7 194.037 599.7H595.3C604.589 599.7 612.119 592.217 612.119 582.986V45.592C612.119 36.3614 604.589 28.8785 595.3 28.8785Z" fill="#E36CC5"/>
<path d="M582.978 55.8517H206.327V560.481H582.978V55.8517Z" fill="white"/>
<path d="M582.995 560.481C582.995 557.039 582.828 354.641 582.595 55.7688L582.995 56.1494H206.377L206.81 55.7192C206.81 243.919 206.81 418.301 206.81 560.431L206.443 560.067L583.111 560.431L206.443 560.779H206.094V560.431C206.094 418.384 206.094 244.002 206.01 55.7192V55.2889H206.493H583.111H583.494V55.6861C583.161 354.592 582.995 557.039 582.995 560.481Z" fill="#263238"/>
<path d="M285.623 140.544L276.848 127.421H267.14V140.544H256.599V93.4485H276.315C279.935 93.3631 283.529 94.0751 286.839 95.5336C289.656 96.7814 292.041 98.8241 293.7 101.408C295.364 104.144 296.202 107.297 296.114 110.493C296.216 113.705 295.365 116.876 293.666 119.611C291.993 122.181 289.587 124.197 286.756 125.403L296.98 140.544H285.623ZM282.959 104.453C280.887 102.901 278.32 102.149 275.732 102.335H267.14V118.75H275.732C278.327 118.928 280.897 118.157 282.959 116.583C284.551 114.96 285.442 112.784 285.442 110.518C285.442 108.252 284.551 106.075 282.959 104.453Z" fill="#C3BEBE"/>
<path d="M308.686 173.094L298.262 157.671L288.021 173.16H276.548L292.534 150.473L277.347 128.547H288.704L298.695 143.01L308.403 128.481H319.194L304.207 149.993L320.309 173.061L308.686 173.094Z" fill="#C3BEBE"/>
<path d="M452.193 104.701H387.55V120.604H452.193V104.701Z" fill="#E0E0E0"/>
<path d="M546.993 114.746C546.993 114.994 529.308 115.176 507.494 115.176C485.68 115.176 468.012 114.994 468.012 114.746C468.012 114.498 485.68 114.316 507.494 114.316C529.308 114.316 546.993 114.514 546.993 114.746Z" fill="#263238"/>
<path d="M545.511 133.826C545.511 134.057 510.142 134.256 466.53 134.256C422.919 134.256 387.55 134.057 387.55 133.826C387.55 133.594 422.902 133.379 466.53 133.379C510.158 133.379 545.511 133.577 545.511 133.826Z" fill="#263238"/>
<path d="M545.511 152.508C545.511 152.74 510.142 152.938 466.53 152.938C422.919 152.938 387.55 152.74 387.55 152.508C387.55 152.277 422.902 152.078 466.53 152.078C510.158 152.078 545.511 152.26 545.511 152.508Z" fill="#263238"/>
<path d="M570.156 202.35C570.156 202.582 491.575 202.781 394.677 202.781C297.779 202.781 219.182 202.582 219.182 202.35C219.182 202.119 297.729 201.904 394.677 201.904C491.625 201.904 570.156 202.069 570.156 202.35Z" fill="#263238"/>
<path d="M570.156 484.427C570.156 484.658 491.575 484.857 394.677 484.857C297.779 484.857 219.182 484.658 219.182 484.427C219.182 484.195 297.729 483.996 394.677 483.996C491.625 483.996 570.156 484.178 570.156 484.427Z" fill="#263238"/>
<path d="M356.377 230.863H248.09V251.051H356.377V230.863Z" fill="#E0E0E0"/>
<path d="M294.965 513.22H248.09V533.409H294.965V513.22Z" fill="#E0E0E0"/>
<path d="M452.36 513.22H405.484V533.409H452.36V513.22Z" fill="#E0E0E0"/>
<path d="M373.529 527.203C373.529 527.451 358.892 527.633 340.841 527.633C322.79 527.633 308.137 527.451 308.137 527.203C308.137 526.955 322.774 526.773 340.841 526.773C358.908 526.773 373.529 526.972 373.529 527.203Z" fill="#263238"/>
<path d="M541.847 527.203C541.847 527.451 527.21 527.633 509.16 527.633C491.109 527.633 476.455 527.451 476.455 527.203C476.455 526.955 491.092 526.773 509.16 526.773C527.227 526.773 541.847 526.972 541.847 527.203Z" fill="#263238"/>
<path d="M537.967 281.45C537.967 281.681 473.807 281.88 394.76 281.88C315.713 281.88 251.553 281.681 251.553 281.45C251.553 281.218 315.68 281.02 394.76 281.02C473.841 281.02 537.967 281.202 537.967 281.45Z" fill="#263238"/>
<path d="M543.529 304.485C543.529 304.733 478.137 304.915 397.491 304.915C316.846 304.915 251.437 304.733 251.437 304.485C251.437 304.236 316.812 304.054 397.491 304.054C478.17 304.054 543.529 304.253 543.529 304.485Z" fill="#263238"/>
<path d="M393.028 327.536C393.028 327.767 360.574 327.966 320.559 327.966C280.544 327.966 248.09 327.767 248.09 327.536C248.09 327.304 280.528 327.105 320.559 327.105C360.59 327.105 393.028 327.287 393.028 327.536Z" fill="#263238"/>
<path d="M541.381 411.103C541.381 411.103 541.065 411.235 540.415 411.434L537.584 412.294C533.926 413.376 530.206 414.238 526.444 414.876C523.727 415.351 520.976 415.611 518.218 415.654C514.918 415.718 511.627 415.311 508.443 414.446C504.777 413.404 501.399 411.541 498.569 409.001C495.377 406.104 493.28 402.21 492.624 397.964C492.282 395.67 492.563 393.328 493.44 391.179C494.422 388.945 496.028 387.038 498.069 385.685C499.124 384.959 500.313 384.449 501.568 384.185C502.824 383.921 504.119 383.908 505.379 384.146C506.655 384.458 507.856 385.021 508.91 385.801C509.938 386.656 510.796 387.694 511.441 388.863C512.665 391.283 513.277 393.964 513.222 396.673C513.234 399.445 512.726 402.195 511.724 404.782C509.55 410.137 505.967 414.812 501.35 418.318C496.513 422.054 490.768 424.452 484.698 425.268C481.585 425.709 478.423 425.67 475.323 425.152C473.748 424.9 472.195 424.53 470.677 424.043C469.159 423.488 467.68 422.836 466.247 422.091C463.39 420.507 460.845 418.421 458.737 415.935C456.558 413.397 455.032 410.37 454.291 407.115C453.477 403.771 453.897 400.249 455.473 397.186C457.038 394.087 459.632 391.62 462.817 390.203C464.429 389.478 466.199 389.171 467.962 389.309C469.711 389.482 471.382 390.11 472.808 391.13C475.516 393.263 477.384 396.273 478.087 399.635C478.852 402.854 479.033 406.183 478.62 409.465C478.294 412.679 477.572 415.841 476.471 418.881C474.428 424.878 470.82 430.229 466.014 434.386C461.343 438.368 455.502 440.742 449.362 441.154C443.69 441.728 437.998 440.276 433.305 437.059C428.612 433.842 425.225 429.07 423.751 423.597C422.244 418.711 422.444 413.462 424.317 408.704C425.199 406.433 426.712 404.459 428.68 403.011C429.664 402.296 430.806 401.825 432.011 401.638C433.195 401.464 434.403 401.691 435.441 402.283C436.391 402.898 437.186 403.723 437.764 404.693C438.342 405.663 438.686 406.752 438.771 407.876C439.05 409.932 438.965 412.021 438.522 414.048C437.864 417.746 436.745 421.348 435.191 424.772C433.845 427.744 432.17 430.558 430.196 433.161C428.546 435.367 426.684 437.407 424.634 439.251C421.839 441.843 418.688 444.027 415.275 445.738C414.4 446.201 413.5 446.616 412.578 446.979L411.629 447.343L412.545 446.896C413.144 446.598 414.077 446.234 415.209 445.589C418.564 443.803 421.661 441.577 424.417 438.97C428.79 434.875 432.319 429.974 434.808 424.54C436.363 421.157 437.482 417.594 438.139 413.933C438.545 411.956 438.618 409.926 438.355 407.926C438.274 406.896 437.959 405.898 437.434 405.007C436.909 404.115 436.188 403.354 435.324 402.779C434.402 402.256 433.328 402.057 432.277 402.217C431.196 402.409 430.174 402.851 429.296 403.507C427.429 404.883 425.996 406.76 425.167 408.919C423.363 413.546 423.193 418.645 424.684 423.382C426.131 428.677 429.422 433.29 433.972 436.399C438.522 439.509 444.035 440.912 449.529 440.36C455.483 439.933 461.141 437.612 465.664 433.741C470.355 429.676 473.873 424.445 475.855 418.583C476.926 415.6 477.63 412.499 477.954 409.349C478.351 406.166 478.17 402.937 477.421 399.817C476.761 396.649 474.991 393.816 472.425 391.825C471.115 390.887 469.577 390.315 467.97 390.166C466.362 390.018 464.744 390.299 463.283 390.981C460.276 392.328 457.829 394.666 456.356 397.6C454.878 400.474 454.488 403.78 455.257 406.916C456.061 409.986 457.501 412.855 459.486 415.34C461.47 417.825 463.954 419.87 466.78 421.346C468.166 422.063 469.595 422.693 471.06 423.233C475.455 424.656 480.118 425.069 484.698 424.441C487.67 424.03 490.575 423.234 493.34 422.074C496.042 420.929 498.587 419.45 500.917 417.672C505.432 414.245 508.935 409.672 511.058 404.434C512.032 401.938 512.535 399.284 512.54 396.607C512.598 394.022 512.027 391.462 510.874 389.144C510.272 388.061 509.483 387.092 508.543 386.281C507.584 385.517 506.48 384.955 505.296 384.626C504.125 384.403 502.921 384.414 501.755 384.659C500.588 384.903 499.483 385.376 498.502 386.049C496.563 387.317 495.036 389.116 494.106 391.229C493.26 393.275 492.978 395.509 493.29 397.699C493.922 401.81 495.942 405.586 499.018 408.406C501.779 410.903 505.076 412.742 508.66 413.784C511.791 414.659 515.032 415.082 518.285 415.041C521.024 415.023 523.758 414.791 526.461 414.346C530.214 413.736 533.933 412.929 537.601 411.93L540.465 411.153L541.381 411.103Z" fill="#263238"/>
<path d="M457.505 24.03H331.816V71.7874H457.505V24.03Z" fill="#E0E0E0"/>
<path d="M457.505 71.7708C457.505 71.7708 457.505 71.473 457.505 70.9103C457.505 70.3477 457.505 69.5038 457.505 68.4281C457.505 66.2273 457.505 63.0501 457.505 58.9462C457.505 50.6722 457.405 38.8073 457.339 24.03L457.638 24.3279L331.966 24.4603L332.399 24.03C332.399 40.7103 332.399 56.8446 332.399 71.7708L331.982 71.3571L421.903 71.5557L448.097 71.6715H455.14H456.972H457.605C457.411 71.688 457.216 71.688 457.022 71.6715H455.24H448.297L422.186 71.7874L331.916 71.9694H331.5V71.5557C331.5 56.6626 331.5 40.4952 331.5 23.8149L331.932 23.3846L457.605 23.517H457.905V23.8149C457.905 38.708 457.788 50.6226 457.738 58.9131C457.738 62.9839 457.738 66.1445 457.738 68.3289C457.738 69.3714 457.738 70.1822 457.738 70.7614C457.738 71.3406 457.505 71.7708 457.505 71.7708Z" fill="#263238"/>
<path d="M608.039 759.189H526.644C524.897 759.189 523.221 758.507 521.975 757.291C520.729 756.075 520.014 754.421 519.983 752.685L518.018 534.534H612.635L614.6 752.553C614.604 754.294 613.918 755.967 612.69 757.209C611.462 758.451 609.791 759.163 608.039 759.189Z" fill="#C3BEBE"/>
<g opacity="0.3">
<path d="M596.066 582.953V750.898C596.066 750.898 609.388 755.3 610.037 743.716C610.687 732.133 610.337 582.92 610.337 582.92L596.066 582.953Z" fill="white"/>
</g>
<path d="M603.709 523.464H527.11C525.785 523.464 524.515 523.987 523.578 524.918C522.641 525.849 522.115 527.111 522.115 528.428V533.31H608.705V528.345C608.683 527.043 608.147 525.801 607.213 524.888C606.278 523.975 605.02 523.463 603.709 523.464Z" fill="#FAFAFA"/>
<path d="M603.709 523.463C603.985 523.423 604.266 523.423 604.542 523.463C605.364 523.565 606.145 523.879 606.807 524.374C607.356 524.778 607.818 525.288 608.164 525.874C608.51 526.459 608.734 527.109 608.821 527.782C608.821 529.437 608.821 531.092 608.821 533.21V533.409H608.605C592.736 533.525 562.079 533.624 527.01 533.624H521.598V528.577C521.573 527.755 521.734 526.938 522.072 526.187C522.409 525.436 522.914 524.771 523.547 524.241C524.181 523.717 524.927 523.343 525.728 523.149C526.497 523.012 527.279 522.962 528.059 523H532.489H549.324L577.632 523.099L596.665 523.232L577.632 523.364L549.324 523.463H532.489H528.059C527.346 523.421 526.63 523.466 525.928 523.596C525.258 523.763 524.633 524.074 524.096 524.506C521.698 526.31 522.664 529.785 522.431 532.78L521.998 532.35H526.994C562.113 532.35 592.769 532.432 608.588 532.565L608.372 532.78C608.372 530.744 608.372 528.908 608.372 527.402C608.308 526.757 608.114 526.132 607.802 525.564C607.491 524.995 607.067 524.495 606.557 524.092C605.679 523.639 604.697 523.422 603.709 523.463Z" fill="#263238"/>
<path d="M618.247 530.943H512.49C510.062 530.943 508.094 532.899 508.094 535.312V578.551C508.094 580.964 510.062 582.92 512.49 582.92H618.247C620.675 582.92 622.643 580.964 622.643 578.551V535.312C622.643 532.899 620.675 530.943 618.247 530.943Z" fill="#FAFAFA"/>
<path d="M618.247 582.953C618.247 582.953 618.546 582.953 619.079 582.821C619.878 582.655 620.612 582.264 621.194 581.696C623.142 580.239 622.36 576.731 622.476 572.71C622.476 564.436 622.393 552.604 622.343 537.959C622.343 537.049 622.343 536.123 622.343 535.179C622.314 534.296 621.992 533.446 621.427 532.763C620.837 532.068 620.037 531.58 619.146 531.373C618.184 531.27 617.215 531.242 616.248 531.291H603.693H575.984H512.523C511.888 531.286 511.261 531.435 510.696 531.723C510.13 532.011 509.643 532.43 509.276 532.945C508.919 533.435 508.685 534.003 508.593 534.6C508.559 535.273 508.559 535.947 508.593 536.619V560.945C508.593 566.207 508.593 571.386 508.593 576.466V578.369C508.596 578.941 508.721 579.505 508.96 580.024C509.197 580.54 509.542 580.999 509.973 581.37C510.404 581.741 510.91 582.016 511.457 582.175C512.026 582.333 512.618 582.389 513.206 582.341H518.734L570.572 582.424L605.541 582.573H615.033L605.541 582.655L570.572 582.788L518.734 582.887H513.206C512.544 582.934 511.88 582.867 511.241 582.688C510.579 582.499 509.966 582.17 509.444 581.725C508.921 581.279 508.5 580.728 508.21 580.107C507.927 579.477 507.78 578.795 507.777 578.105V576.202C507.777 571.127 507.777 565.953 507.777 560.68C507.777 555.401 507.777 550.023 507.777 544.579V536.305C507.777 535.593 507.777 534.948 507.777 534.17C507.891 533.408 508.182 532.683 508.627 532.052C509.073 531.425 509.665 530.915 510.352 530.563C511.039 530.212 511.8 530.03 512.573 530.033H576.034H603.743H616.298C617.316 529.982 618.335 530.021 619.346 530.149C620.378 530.408 621.299 530.988 621.977 531.804C622.621 532.605 622.989 533.591 623.026 534.617V537.413C623.026 552.042 622.909 563.89 622.876 572.164C622.876 574.199 622.876 576.02 622.876 577.608C622.926 578.291 622.821 578.976 622.567 579.612C622.313 580.248 621.918 580.819 621.41 581.282C620.797 581.853 620.026 582.227 619.196 582.358C618.924 582.619 618.601 582.822 618.247 582.953Z" fill="#263238"/>
<path d="M514.755 582.06C514.505 582.06 514.322 570.989 514.322 557.354C514.322 543.718 514.505 532.631 514.755 532.631C515.004 532.631 515.187 543.702 515.187 557.354C515.187 571.006 514.988 582.06 514.755 582.06Z" fill="#263238"/>
<path d="M523.414 582.06C523.164 582.06 522.981 570.989 522.981 557.354C522.981 543.718 523.164 532.631 523.414 532.631C523.663 532.631 523.847 543.702 523.847 557.354C523.847 571.006 523.647 582.06 523.414 582.06Z" fill="#263238"/>
<path d="M532.073 582.06C531.839 582.06 531.64 570.989 531.64 557.354C531.64 543.718 531.839 532.631 532.073 532.631C532.306 532.631 532.506 543.702 532.506 557.354C532.506 571.006 532.306 582.06 532.073 582.06Z" fill="#263238"/>
<path d="M540.732 582.06C540.498 582.06 540.299 570.989 540.299 557.354C540.299 543.718 540.498 532.631 540.732 532.631C540.965 532.631 541.164 543.702 541.164 557.354C541.164 571.006 540.981 582.06 540.732 582.06Z" fill="#263238"/>
<path d="M549.407 582.06C549.158 582.06 548.974 570.989 548.974 557.354C548.974 543.718 549.158 532.631 549.407 532.631C549.657 532.631 549.84 543.702 549.84 557.354C549.84 571.006 549.64 582.06 549.407 582.06Z" fill="#263238"/>
<path d="M558.066 582.06C557.817 582.06 557.634 570.989 557.634 557.354C557.634 543.718 557.817 532.631 558.066 532.631C558.316 532.631 558.499 543.702 558.499 557.354C558.499 571.006 558.3 582.06 558.066 582.06Z" fill="#263238"/>
<path d="M566.726 582.06C566.493 582.06 566.293 570.989 566.293 557.354C566.293 543.718 566.493 532.631 566.726 532.631C566.959 532.631 567.159 543.702 567.159 557.354C567.159 571.006 566.959 582.06 566.726 582.06Z" fill="#263238"/>
<path d="M575.385 582.06C575.151 582.06 574.952 570.989 574.952 557.354C574.952 543.718 575.151 532.631 575.385 532.631C575.618 532.631 575.818 543.702 575.818 557.354C575.818 571.006 575.634 582.06 575.385 582.06Z" fill="#263238"/>
<path d="M584.044 582.06C583.81 582.06 583.611 570.989 583.611 557.354C583.611 543.718 583.81 532.631 584.044 532.631C584.277 532.631 584.493 543.702 584.493 557.354C584.493 571.006 584.293 582.06 584.044 582.06Z" fill="#263238"/>
<path d="M592.719 582.06C592.47 582.06 592.286 570.989 592.286 557.354C592.286 543.718 592.47 532.631 592.719 532.631C592.969 532.631 593.152 543.702 593.152 557.354C593.152 571.006 592.952 582.06 592.719 582.06Z" fill="#263238"/>
<path d="M601.378 582.06C601.145 582.06 600.945 570.989 600.945 557.354C600.945 543.718 601.145 532.631 601.378 532.631C601.611 532.631 601.811 543.702 601.811 557.354C601.811 571.006 601.611 582.06 601.378 582.06Z" fill="#263238"/>
<path d="M610.037 582.06C609.804 582.06 609.604 570.989 609.604 557.354C609.604 543.718 609.804 532.631 610.037 532.631C610.271 532.631 610.47 543.702 610.47 557.354C610.47 571.006 610.287 582.06 610.037 582.06Z" fill="#263238"/>
<path d="M618.696 582.06C618.463 582.06 618.263 570.989 618.263 557.354C618.263 543.718 618.463 532.631 618.696 532.631C618.93 532.631 619.129 543.702 619.129 557.354C619.129 571.006 618.946 582.06 618.696 582.06Z" fill="#263238"/>
<path d="M607.39 622.073H525.479V687.255H607.39V622.073Z" fill="white"/>
<path d="M539.549 642.824L537.635 640.077H535.536V642.824H533.205V632.994H537.485C538.263 632.975 539.037 633.128 539.749 633.441C540.36 633.692 540.882 634.119 541.248 634.665C541.605 635.235 541.784 635.897 541.764 636.568C541.782 637.236 541.597 637.894 541.231 638.455C540.863 638.996 540.341 639.416 539.733 639.663L541.947 642.824H539.549ZM538.967 635.294C538.513 634.968 537.96 634.81 537.401 634.847H535.536V638.273H537.401C537.96 638.31 538.513 638.152 538.967 637.826C539.136 637.661 539.271 637.464 539.363 637.247C539.455 637.03 539.503 636.796 539.503 636.56C539.503 636.324 539.455 636.091 539.363 635.874C539.271 635.656 539.136 635.459 538.967 635.294Z" fill="#263238"/>
<path d="M544.545 649.608L542.28 646.382L540.065 649.608H537.584L541.048 644.876L537.717 640.308H540.182L542.33 643.32L544.445 640.308H546.793L543.462 644.793L546.943 649.608H544.545Z" fill="#263238"/>
<path d="M601.378 632.978H554.603V640.044H601.378V632.978Z" fill="#E0E0E0"/>
<path d="M596.066 657.584C596.066 657.816 582.412 658.015 565.56 658.015C548.708 658.015 535.053 657.816 535.053 657.584C535.053 657.353 548.708 657.154 565.56 657.154C582.412 657.154 596.066 657.419 596.066 657.584Z" fill="#263238"/>
<path d="M596.066 664.932C596.066 665.18 582.412 665.362 565.56 665.362C548.708 665.362 535.053 665.18 535.053 664.932C535.053 664.684 548.708 664.502 565.56 664.502C582.412 664.502 596.066 664.7 596.066 664.932Z" fill="#263238"/>
<path d="M562.246 674.149H530.64V680.205H562.246V674.149Z" fill="#E0E0E0"/>
<path d="M605.525 685.236C605.525 685.236 605.525 684.839 605.525 684.078C605.525 683.316 605.525 682.191 605.525 680.768C605.525 677.839 605.525 673.619 605.442 668.241C605.442 657.452 605.325 642.096 605.258 623.562L605.608 623.926H527.094C526.994 624.009 527.91 623.115 527.527 623.512V639.928C527.527 645.322 527.527 650.618 527.527 655.781C527.527 666.123 527.527 675.986 527.527 685.17L527.144 684.789L583.761 684.988L599.846 685.087H604.143H605.641C605.641 685.087 605.542 685.087 605.292 685.087H604.226H600.013L584.01 685.186L527.127 685.385H526.744V684.988C526.744 675.804 526.744 665.941 526.744 655.599C526.744 650.436 526.744 645.14 526.744 639.746V623.33C526.361 623.694 527.277 622.784 527.177 622.883H605.691H606.058V623.247C606.058 641.864 605.908 657.32 605.875 668.158C605.875 673.487 605.791 677.69 605.775 680.603C605.775 681.993 605.775 683.068 605.775 683.912C605.775 684.756 605.525 685.236 605.525 685.236Z" fill="#263238"/>
<path d="M523.414 741.4C523.164 741.4 522.981 707.377 522.981 665.412C522.981 623.446 523.164 589.423 523.414 589.423C523.663 589.423 523.847 623.446 523.847 665.412C523.847 707.377 523.647 741.4 523.414 741.4Z" fill="white"/>
<path d="M607.473 755.647C607.473 755.879 589.605 756.078 567.508 756.078C545.411 756.078 527.543 755.879 527.543 755.647C527.543 755.416 545.411 755.217 567.508 755.217C589.605 755.217 607.473 755.416 607.473 755.647Z" fill="#263238"/>
<path d="M688.651 759.089H622.709C621.296 759.09 619.939 758.535 618.935 757.546C617.931 756.558 617.36 755.215 617.347 753.811L615.682 577.095H692.281L693.863 753.711C693.881 755.109 693.344 756.457 692.368 757.464C691.393 758.471 690.057 759.055 688.651 759.089Z" fill="#E36CC5"/>
<g opacity="0.3">
<path d="M678.943 616.281V752.371C678.943 752.371 689.734 755.929 690.266 746.546C690.799 737.163 690.5 616.281 690.5 616.281H678.943Z" fill="white"/>
</g>
<path d="M684.189 568.06H623.959C622.634 568.06 621.363 568.583 620.426 569.514C619.489 570.445 618.963 571.708 618.963 573.024V575.987H689.135V573.024C689.135 571.716 688.615 570.461 687.689 569.532C686.763 568.602 685.505 568.073 684.189 568.06Z" fill="#FAFAFA"/>
<path d="M684.188 568.06C684.426 568.027 684.667 568.027 684.904 568.06C685.614 568.12 686.299 568.347 686.903 568.722C687.905 569.328 688.669 570.256 689.067 571.353C689.296 572.052 689.397 572.786 689.367 573.521C689.367 574.299 689.367 575.176 689.367 575.97V576.334H689.151C676.179 576.466 651.817 576.549 623.958 576.549H618.53V576.119C618.53 574.861 618.53 573.719 618.53 572.396C618.72 571.096 619.383 569.911 620.392 569.064C621.401 568.217 622.687 567.765 624.008 567.795H627.538H640.943L663.49 567.878L678.593 568.01L682.69 568.093C683.163 568.085 683.636 568.112 684.105 568.176C683.634 568.212 683.161 568.212 682.69 568.176L678.593 568.259L663.49 568.391L640.943 568.49H624.091C622.988 568.463 621.911 568.834 621.061 569.533C620.191 570.242 619.625 571.254 619.479 572.362C619.379 573.455 619.479 574.762 619.479 575.97L619.046 575.54H624.041C651.9 575.54 676.262 575.622 689.234 575.755L689.017 575.97C689.017 575.109 689.017 574.315 689.017 573.521C689.072 572.828 688.993 572.132 688.784 571.469C688.446 570.424 687.759 569.524 686.836 568.92C686.034 568.43 685.127 568.136 684.188 568.06Z" fill="#263238"/>
<path d="M696.095 574.183H612.085C609.657 574.183 607.689 576.139 607.689 578.551V611.929C607.689 614.341 609.657 616.297 612.085 616.297H696.095C698.522 616.297 700.491 614.341 700.491 611.929V578.551C700.491 576.139 698.522 574.183 696.095 574.183Z" fill="#FAFAFA"/>
<path d="M696.078 616.281C696.962 616.216 697.812 615.919 698.543 615.42C699.388 614.797 699.979 613.893 700.208 612.872C700.314 612.204 700.341 611.527 700.291 610.853C700.291 610.125 700.291 609.331 700.291 608.52C700.291 601.901 700.208 592.319 700.158 580.537C700.158 579.809 700.158 579.031 700.158 578.303C700.113 577.593 699.878 576.907 699.475 576.318C699.062 575.704 698.489 575.212 697.818 574.895C697.147 574.577 696.402 574.446 695.662 574.514H685.537H663.224H612.085C611.058 574.517 610.072 574.915 609.334 575.625C608.595 576.334 608.161 577.3 608.122 578.32C608.122 580.537 608.122 582.738 608.122 584.939V597.913C608.122 602.171 608.122 606.341 608.122 610.423C608.031 611.386 608.128 612.358 608.405 613.286C608.757 614.137 609.384 614.847 610.187 615.304C611.027 615.72 611.968 615.892 612.901 615.801H615.865L657.629 615.9L685.787 616.033H693.447L685.787 616.115L657.629 616.248L615.865 616.347H612.901C611.861 616.531 610.79 616.428 609.804 616.049C608.835 615.5 608.079 614.643 607.656 613.617C607.451 613.088 607.338 612.528 607.323 611.962V610.423C607.323 606.341 607.323 602.171 607.323 597.913V578.386C607.37 577.144 607.899 575.967 608.799 575.104C609.7 574.24 610.901 573.756 612.152 573.753H663.29H685.604H695.728C696.578 573.71 697.425 573.883 698.189 574.257C698.952 574.63 699.607 575.192 700.091 575.887C700.542 576.574 700.801 577.368 700.841 578.187C700.841 578.982 700.841 579.71 700.841 580.455C700.841 592.237 700.724 601.785 700.691 608.437C700.691 609.248 700.691 610.092 700.691 610.77C700.724 611.463 700.679 612.156 700.557 612.839C700.299 613.921 699.639 614.867 698.709 615.487C698.148 615.867 697.502 616.105 696.827 616.182C696.586 616.259 696.332 616.292 696.078 616.281Z" fill="#263238"/>
<path d="M613.135 615.586C612.902 615.586 612.702 606.633 612.702 595.579C612.702 584.525 612.902 575.556 613.135 575.556C613.368 575.556 613.568 584.509 613.568 595.579C613.568 606.65 613.301 615.586 613.135 615.586Z" fill="#263238"/>
<path d="M620.078 615.586C619.845 615.586 619.646 606.633 619.646 595.579C619.646 584.525 619.845 575.556 620.078 575.556C620.312 575.556 620.511 584.509 620.511 595.579C620.511 606.65 620.328 615.586 620.078 615.586Z" fill="#263238"/>
<path d="M627.106 615.586C626.856 615.586 626.673 606.633 626.673 595.579C626.673 584.525 626.856 575.556 627.106 575.556C627.355 575.556 627.538 584.509 627.538 595.579C627.538 606.65 627.339 615.586 627.106 615.586Z" fill="#263238"/>
<path d="M634.116 615.586C633.883 615.586 633.683 606.633 633.683 595.579C633.683 584.525 633.883 575.556 634.116 575.556C634.349 575.556 634.549 584.509 634.549 595.579C634.549 606.65 634.366 615.586 634.116 615.586Z" fill="#263238"/>
<path d="M641.143 615.586C640.893 615.586 640.71 606.633 640.71 595.579C640.71 584.525 640.893 575.556 641.143 575.556C641.393 575.556 641.576 584.509 641.576 595.579C641.576 606.65 641.443 615.586 641.143 615.586Z" fill="#263238"/>
<path d="M648.104 615.586C647.871 615.586 647.671 606.633 647.671 595.579C647.671 584.525 647.871 575.556 648.104 575.556C648.337 575.556 648.537 584.509 648.537 595.579C648.537 606.65 648.404 615.586 648.104 615.586Z" fill="#263238"/>
<path d="M655.181 615.586C654.931 615.586 654.748 606.633 654.748 595.579C654.748 584.525 654.931 575.556 655.181 575.556C655.43 575.556 655.613 584.509 655.613 595.579C655.613 606.65 655.414 615.586 655.181 615.586Z" fill="#263238"/>
<path d="M662.191 615.586C661.958 615.586 661.758 606.633 661.758 595.579C661.758 584.525 661.958 575.556 662.191 575.556C662.424 575.556 662.624 584.509 662.624 595.579C662.624 606.65 662.424 615.586 662.191 615.586Z" fill="#263238"/>
<path d="M669.218 615.586C668.968 615.586 668.769 606.633 668.769 595.579C668.769 584.525 668.968 575.556 669.218 575.556C669.468 575.556 669.651 584.509 669.651 595.579C669.651 606.65 669.451 615.586 669.218 615.586Z" fill="#263238"/>
<path d="M676.229 615.586C675.996 615.586 675.796 606.633 675.796 595.579C675.796 584.525 675.996 575.556 676.229 575.556C676.462 575.556 676.662 584.509 676.662 595.579C676.662 606.65 676.412 615.586 676.229 615.586Z" fill="#263238"/>
<path d="M683.24 615.586C683.006 615.586 682.807 606.633 682.807 595.579C682.807 584.525 683.006 575.556 683.24 575.556C683.473 575.556 683.673 584.509 683.673 595.579C683.673 606.65 683.489 615.586 683.24 615.586Z" fill="#263238"/>
<path d="M690.266 615.586C690.017 615.586 689.833 606.633 689.833 595.579C689.833 584.525 690.017 575.556 690.266 575.556C690.516 575.556 690.699 584.509 690.699 595.579C690.699 606.65 690.5 615.586 690.266 615.586Z" fill="#263238"/>
<path d="M697.277 615.586C697.044 615.586 696.844 606.633 696.844 595.579C696.844 584.525 697.044 575.556 697.277 575.556C697.51 575.556 697.71 584.509 697.71 595.579C697.71 606.65 697.527 615.586 697.277 615.586Z" fill="#263238"/>
<path d="M688.118 648.003H621.76V700.808H688.118V648.003Z" fill="white"/>
<path d="M633.117 664.816L631.585 662.598H629.92V664.816H628.122V656.856H631.452C632.086 656.84 632.716 656.959 633.3 657.204C633.792 657.414 634.21 657.765 634.499 658.213C634.782 658.674 634.931 659.204 634.931 659.744C634.931 660.284 634.782 660.813 634.499 661.274C634.201 661.713 633.778 662.053 633.284 662.251L635.082 664.816H633.117ZM632.651 658.71C632.281 658.454 631.835 658.332 631.385 658.362H629.87V661.126H631.452C631.904 661.16 632.354 661.03 632.718 660.761C632.866 660.637 632.983 660.479 633.058 660.3C633.133 660.122 633.165 659.928 633.15 659.735C633.16 659.54 633.122 659.345 633.041 659.167C632.96 658.989 632.838 658.832 632.684 658.71H632.651Z" fill="#263238"/>
<path d="M637.213 670.31L635.382 667.695L633.583 670.31H631.568L634.366 666.471L631.702 662.781H633.7L635.365 665.213L637.03 662.781H638.929L636.447 666.405L639.262 670.31H637.213Z" fill="#263238"/>
<path d="M683.239 656.84H645.356V662.565H683.239V656.84Z" fill="#E0E0E0"/>
<path d="M678.943 676.763C678.943 677.012 667.886 677.194 654.232 677.194C640.577 677.194 629.52 677.012 629.52 676.763C629.52 676.515 640.577 676.333 654.232 676.333C667.886 676.333 678.943 676.532 678.943 676.763Z" fill="#263238"/>
<path d="M678.943 682.737C678.943 682.969 667.886 683.167 654.232 683.167C640.577 683.167 629.52 682.969 629.52 682.737C629.52 682.506 640.577 682.307 654.232 682.307C667.886 682.307 678.943 682.489 678.943 682.737Z" fill="#263238"/>
<path d="M651.551 690.184H625.94V695.082H651.551V690.184Z" fill="#E0E0E0"/>
<path d="M686.603 699.186C686.603 699.186 686.603 698.838 686.603 698.226C686.603 697.614 686.603 696.671 686.603 695.545C686.603 693.146 686.603 689.72 686.52 685.385C686.52 676.631 686.403 664.204 686.337 649.211L686.686 649.575H623.092L623.525 649.145V655.764C623.525 657.998 623.525 660.199 623.525 662.383V675.225C623.525 683.598 623.525 691.574 623.525 699.037L623.142 698.64L668.985 698.838L682.041 698.938H685.521H686.42H686.736H685.604H682.274L669.302 699.037L623.209 699.236H622.809V698.855C622.809 691.392 622.809 683.416 622.809 675.042V648.897C622.426 649.277 623.342 648.367 623.259 648.466H686.853H687.219V649.145C687.219 664.22 687.069 676.747 687.036 685.55C687.036 689.853 686.953 693.245 686.936 695.612C686.936 696.72 686.936 697.597 686.936 698.243C686.852 698.566 686.741 698.881 686.603 699.186Z" fill="#263238"/>
<path d="M620.078 744.676C619.845 744.676 619.646 717.107 619.646 683.118C619.646 649.128 619.845 621.559 620.078 621.559C620.312 621.559 620.511 649.112 620.511 683.118C620.511 717.124 620.328 744.676 620.078 744.676Z" fill="white"/>
<path d="M688.185 756.21C688.185 756.458 673.698 756.64 655.847 756.64C637.996 756.64 623.525 756.458 623.525 756.21C623.525 755.962 637.996 755.78 655.847 755.78C673.698 755.78 688.185 755.978 688.185 756.21Z" fill="#263238"/>
<path d="M155.721 688.413L144.681 727.384C144.681 727.384 179.866 751.908 178.518 759.305L103.584 740.159L118.354 678.733L155.721 688.413Z" fill="#E36CC5"/>
<path d="M122.301 718.166C121.516 718.219 120.778 718.556 120.228 719.115C119.678 719.674 119.355 720.414 119.32 721.195C119.323 721.976 119.627 722.726 120.168 723.292C120.71 723.858 121.449 724.197 122.234 724.239C123.068 724.194 123.855 723.839 124.438 723.244C125.021 722.65 125.357 721.859 125.381 721.029C125.231 719.457 123.516 717.819 122.051 718.2" fill="#E0E0E0"/>
<g opacity="0.6">
<path d="M103.584 740.158L105.249 734.036L176.486 754.638C176.486 754.638 179.467 756.955 178.501 759.255L103.584 740.158Z" fill="white"/>
</g>
<path d="M145.996 727.301C145.88 727.681 144.015 727.301 141.917 728.112C139.819 728.922 138.47 730.18 138.17 729.948C137.87 729.717 138.953 727.698 141.5 726.854C144.048 726.01 146.146 726.92 145.996 727.301Z" fill="#263238"/>
<path d="M153.04 732.613C153.04 733.01 151.375 733.225 149.71 734.499C148.045 735.773 147.312 737.329 146.946 737.213C146.579 737.097 146.946 734.946 148.927 733.423C150.909 731.901 153.123 732.265 153.04 732.613Z" fill="#263238"/>
<path d="M155.205 743.336C154.855 743.336 154.805 741.35 156.237 739.546C157.669 737.743 159.568 737.362 159.668 737.71C159.768 738.057 158.419 738.884 157.253 740.39C156.087 741.896 155.521 743.468 155.205 743.336Z" fill="#263238"/>
<path d="M147.545 718.15C147.295 718.448 145.746 717.504 143.648 717.124C141.55 716.743 139.768 716.991 139.652 716.611C139.535 716.23 141.417 715.32 143.881 715.8C146.346 716.28 147.795 717.902 147.545 718.15Z" fill="#263238"/>
<path d="M129.445 697.597L127.779 738.107C127.779 738.107 167.744 753.513 168.044 761.042L90.762 760.43L90.9285 697.184L129.445 697.597Z" fill="#E36CC5"/>
<path d="M103.834 734.516C103.081 734.749 102.44 735.248 102.032 735.919C101.624 736.59 101.477 737.385 101.619 738.156C101.794 738.917 102.261 739.579 102.921 740.002C103.58 740.426 104.379 740.577 105.149 740.423C105.948 740.174 106.627 739.642 107.057 738.928C107.486 738.214 107.637 737.368 107.48 736.551C107.215 735.786 106.658 735.155 105.93 734.793C105.201 734.431 104.359 734.367 103.584 734.615" fill="#E0E0E0"/>
<g opacity="0.6">
<path d="M90.6785 760.43L90.9449 754.059L164.946 757.021C164.946 757.021 168.377 758.576 167.96 761.042L90.6785 760.43Z" fill="white"/>
</g>
<path d="M128.961 737.726C128.961 738.107 127.063 738.272 125.181 739.48C123.3 740.688 122.317 742.31 121.968 742.161C121.618 742.012 122.201 739.794 124.499 738.355C126.797 736.915 129.045 737.362 128.961 737.726Z" fill="#263238"/>
<path d="M137.038 741.201C137.038 741.565 135.489 742.21 134.19 743.832C132.891 745.454 132.525 747.142 132.142 747.142C131.759 747.142 131.543 744.941 133.191 742.972C134.84 741.002 137.038 740.837 137.038 741.201Z" fill="#263238"/>
<path d="M141.567 751.113C141.217 751.196 140.718 749.276 141.7 747.175C142.683 745.073 144.448 744.246 144.614 744.577C144.781 744.908 143.665 746.016 142.949 747.737C142.233 749.458 141.883 751.08 141.567 751.113Z" fill="#263238"/>
<path d="M128.345 728.443C128.196 728.79 126.464 728.244 124.332 728.443C122.201 728.641 120.519 729.253 120.336 728.922C120.153 728.591 121.751 727.268 124.266 727.102C126.78 726.937 128.562 728.145 128.345 728.443Z" fill="#263238"/>
<path d="M81.6365 401.108V433.144L90.0791 557.949C90.0791 557.949 84.817 618.498 81.5866 652.686C78.789 682.356 83.3683 734.052 83.3683 734.052H132.558L150.209 561.672L161.133 454.111L180.183 405.228L81.6365 401.108Z" fill="#263238"/>
<path d="M211.172 406.685L201.747 580.819L151.991 711.2L149.693 719.043L120.319 711.812L142.166 403.292L211.172 406.685Z" fill="#263238"/>
<path d="M160.966 455.435C160.984 455.677 160.984 455.92 160.966 456.163C160.966 456.692 160.966 457.387 160.966 458.281C160.966 460.201 160.833 462.947 160.717 466.456C160.517 473.538 160.017 483.781 159.318 496.44C157.836 521.759 155.072 556.692 150.742 595.149C146.413 633.606 141.8 668.324 138.37 693.444C136.704 705.954 135.222 716.098 134.24 723.23C133.74 726.705 133.341 729.419 133.074 731.305C132.924 732.199 132.825 732.96 132.741 733.407C132.713 733.648 132.663 733.886 132.591 734.119V733.39C132.591 732.877 132.741 732.182 132.841 731.289C133.074 729.386 133.407 726.672 133.84 723.18C134.74 716.114 136.055 705.954 137.687 693.394C141.017 668.258 145.53 633.54 149.793 595.083C154.056 556.625 156.97 521.759 158.618 496.457C159.401 483.814 160.001 473.571 160.284 466.489C160.467 462.981 160.6 460.25 160.7 458.331C160.7 457.437 160.8 456.676 160.833 456.212C160.849 455.949 160.894 455.688 160.966 455.435Z" fill="#E36CC5"/>
<path d="M164.081 411.88C164.068 412.375 163.908 412.854 163.622 413.259C163.336 413.664 162.936 413.976 162.473 414.156C162.009 414.337 161.503 414.377 161.016 414.273C160.53 414.168 160.085 413.924 159.738 413.569C159.39 413.215 159.156 412.767 159.063 412.281C158.971 411.795 159.025 411.293 159.218 410.837C159.412 410.381 159.736 409.992 160.15 409.719C160.565 409.445 161.052 409.299 161.55 409.299C161.887 409.301 162.221 409.37 162.531 409.501C162.842 409.632 163.123 409.824 163.358 410.064C163.594 410.304 163.779 410.588 163.903 410.9C164.027 411.212 164.087 411.545 164.081 411.88Z" fill="#E36CC5"/>
<path d="M207.326 436.206C206.016 435.275 204.85 434.16 203.862 432.896C201.318 429.907 199.231 426.561 197.668 422.967C196.094 419.379 195.051 415.583 194.57 411.698C194.292 410.102 194.252 408.474 194.454 406.866C194.604 406.866 194.704 408.703 195.203 411.616C195.875 415.39 196.993 419.073 198.534 422.587C200.082 426.077 202.045 429.371 204.378 432.4C206.144 434.783 207.426 436.09 207.326 436.206Z" fill="#E36CC5"/>
<path d="M201.448 244.018C201.448 244.018 210.856 247.692 215.219 261.394C218.249 270.925 232.437 341.883 232.437 341.883L212.654 354.84L204.611 288.4L201.448 244.018Z" fill="#E0E0E0"/>
<path d="M126.214 210.128L120.019 221.05C120.019 221.05 78.606 241.966 78.7559 244.018C78.7559 244.018 81.0705 322.092 81.5034 379.364C81.67 400.992 80.8707 420.866 80.4377 430.414C79.2887 455.485 78.3895 552.869 78.3895 552.869L228.257 549.344L201.448 244.018L180.3 234.834L177.602 229.357L167.894 221.513L126.214 210.128Z" fill="#E0E0E0"/>
<path d="M191.839 550.155C191.862 549.935 191.862 549.713 191.839 549.493C191.839 549.013 191.839 548.368 191.756 547.557C191.656 545.786 191.523 543.271 191.34 540.061C190.957 533.524 190.391 524.125 189.675 512.558C188.259 489.292 186.344 457.222 184.163 421.793C181.981 386.363 180.25 354.294 178.901 331.011C178.285 319.427 177.768 310.044 177.419 303.491C177.236 300.281 177.102 297.782 177.002 296.012C177.002 295.201 176.903 294.555 176.869 294.076C176.856 293.853 176.829 293.632 176.786 293.414C176.767 293.634 176.767 293.855 176.786 294.076C176.786 294.555 176.786 295.201 176.786 296.028C176.786 297.782 176.919 300.298 177.036 303.508C177.269 310.011 177.685 319.427 178.235 331.044C179.334 354.211 181.099 386.397 183.23 421.859C185.362 457.321 187.427 489.374 189.009 512.591C189.808 524.175 190.474 533.541 190.924 540.094C191.173 543.288 191.373 545.803 191.506 547.557L191.673 549.51C191.704 549.73 191.76 549.947 191.839 550.155Z" fill="#263238"/>
<path d="M167.894 221.513L171.374 245.425L177.602 293.414L150.459 247.113L126.897 216.433L165.729 243.472L166.212 221.066" fill="#C3BEBE"/>
<path d="M119.836 222.506C120.025 223.152 120.276 223.778 120.586 224.376C121.168 225.683 121.934 227.421 122.9 229.555L131.326 247.758L131.426 247.99H131.692H137.354L137.088 247.229L132.925 250.621L132.542 250.935L132.891 251.283L140.784 258.961L166.179 283.436L173.938 290.766L176.087 292.735C176.321 292.98 176.584 293.197 176.869 293.381C176.686 293.091 176.462 292.829 176.203 292.603L174.188 290.518L166.612 282.972L141.417 258.316C138.703 255.668 136.039 253.103 133.507 250.654V251.299L137.654 247.891L138.57 247.129H137.371H131.709L132.075 247.361C128.529 240.014 125.531 233.792 123.35 229.291C122.301 227.189 121.468 225.485 120.835 224.21C120.548 223.617 120.214 223.047 119.836 222.506Z" fill="#263238"/>
<path d="M177.602 293.364C177.861 292.387 178.044 291.391 178.151 290.386C178.451 288.317 178.834 285.57 179.3 282.244C180.233 275.36 181.465 265.845 182.764 255.337L183.963 245.541V245.16L183.58 245.061L176.769 243.406V244.2L183.597 242.992L184.063 242.909L183.863 242.496L179.367 232.782C178.851 231.74 178.434 230.863 178.085 230.151C177.961 229.828 177.787 229.527 177.569 229.257C177.638 229.595 177.75 229.923 177.902 230.234C178.201 230.962 178.568 231.889 179.001 232.948C180.066 235.43 181.498 238.756 183.214 242.777L183.48 242.297L176.636 243.406L174.671 243.72L176.603 244.2L183.397 245.855L183.064 245.392C182.664 248.503 182.264 251.796 181.832 255.172C180.533 265.696 179.4 275.211 178.634 282.112C178.285 285.421 177.985 288.218 177.768 290.386C177.635 291.373 177.58 292.369 177.602 293.364Z" fill="#263238"/>
<path d="M154.439 421.131H153.473L150.592 421.313L139.536 422.107L99.9371 425.135H99.5375V425.533C100.17 432.93 100.87 440.972 101.602 449.444C101.969 453.703 102.346 458.055 102.735 462.501C102.934 464.735 103.118 466.969 103.317 469.236C103.387 470.409 103.571 471.573 103.867 472.711C104.218 473.886 104.746 475.002 105.432 476.02C107.673 479.027 111.019 481.031 114.741 481.597C118.242 482.028 121.77 482.216 125.298 482.16C131.958 482.178 138.599 481.456 145.097 480.008C146.639 479.638 148.148 479.145 149.61 478.536C150.338 478.243 151.04 477.888 151.708 477.477C152.047 477.252 152.364 476.997 152.657 476.715C152.926 476.422 153.176 476.113 153.407 475.789C154.826 473.193 155.704 470.34 155.988 467.399C156.643 462.235 156.905 457.03 156.77 451.827C156.62 442.296 155.938 434.617 155.422 429.322C155.172 426.674 154.922 424.639 154.739 423.249C154.739 422.587 154.572 422.074 154.522 421.594C154.513 421.413 154.474 421.234 154.406 421.065C154.406 421.065 154.406 421.247 154.406 421.611C154.406 421.975 154.406 422.537 154.539 423.266C154.672 424.722 154.839 426.757 155.055 429.355C155.471 434.651 156.054 442.329 156.121 451.827C156.197 456.994 155.902 462.159 155.238 467.283C154.944 470.108 154.089 472.847 152.724 475.342C151.864 476.506 150.649 477.365 149.26 477.791C147.841 478.376 146.376 478.846 144.881 479.198C138.445 480.608 131.872 481.308 125.281 481.283C121.809 481.334 118.337 481.146 114.891 480.72C111.4 480.193 108.259 478.32 106.148 475.507C105.535 474.585 105.053 473.582 104.716 472.529C104.441 471.444 104.268 470.336 104.2 469.219C104 466.952 103.8 464.702 103.617 462.468C103.218 458.033 102.835 453.664 102.452 449.428C101.686 440.939 100.97 432.88 100.303 425.516L99.9538 425.946L139.269 422.537L150.393 421.528L153.357 421.247C153.72 421.233 154.081 421.194 154.439 421.131Z" fill="#263238"/>
<g opacity="0.3">
<path d="M103.95 471.652C108.18 482.606 119.22 483.235 131.109 481.58C142.283 479.926 153.04 477.625 153.873 474.448C153.573 480.257 149.277 484.708 143.881 487.041C138.403 489.122 132.523 489.942 126.68 489.441C120.569 489.159 115.29 489.441 110.244 485.982C105.199 482.524 103.933 476.649 103.95 471.652Z" fill="black"/>
</g>
<path d="M217.3 424.523C217.285 424.386 217.285 424.247 217.3 424.109L217.15 422.918C217.039 421.815 216.873 420.276 216.651 418.301C216.251 414.197 215.685 408.372 214.986 401.29C213.62 386.926 211.788 367.069 209.857 345.143C207.925 323.217 206.26 303.343 205.144 288.88C204.595 281.681 204.195 275.856 203.962 271.835C203.829 269.816 203.779 268.261 203.746 267.185C203.746 266.705 203.746 266.308 203.746 265.977C203.721 265.84 203.721 265.7 203.746 265.564C204.145 270.23 206.926 301.853 210.723 344.994C212.621 366.903 214.353 386.728 215.602 401.174C216.185 408.306 216.667 414.098 217 418.202C217.15 420.154 217.267 421.71 217.35 422.835C217.35 423.315 217.35 423.712 217.35 424.043C217.357 424.205 217.34 424.366 217.3 424.523Z" fill="#263238"/>
<path d="M239.014 343.455C239.654 345.747 239.89 348.132 239.714 350.504C239.364 354.128 239.198 363.031 229.489 366.076C219.781 369.121 215.069 366.208 212.088 362.121L210.606 344.415L220.997 337.597L239.014 343.455Z" fill="#E0E0E0"/>
<g opacity="0.3">
<path d="M157.903 354.84C157.903 354.84 133.075 379.215 113.792 382.723C94.5086 386.231 87.6147 379.413 82.4858 362.253L157.903 354.84Z" fill="black"/>
</g>
<path d="M79.2052 243.422C79.2052 243.422 63.4358 257.952 67.9318 292.355C72.0948 324.325 79.5882 368.839 89.3796 374.019C99.1709 379.198 120.569 376.6 136.172 367.813C151.775 359.026 196.985 335.264 196.985 335.264L178.268 302.168L117.971 325.335C117.971 325.335 110.178 272.381 105.499 263.181" fill="#E0E0E0"/>
<path d="M105.249 262.568C105.249 262.568 105.416 262.916 105.715 263.594C105.849 263.925 106.048 264.339 106.248 264.852C106.448 265.365 106.615 265.994 106.848 266.672C107.73 269.419 108.779 273.54 109.928 278.901C112.26 289.608 115.074 305.229 118.038 324.689L117.605 324.425L177.868 301.092L178.201 300.96L178.385 301.274C184.296 311.732 190.591 322.786 197.118 334.37L197.335 334.767L196.935 334.982L158.269 355.684L139.302 365.828C136.188 367.482 133.091 369.22 129.877 370.593C126.671 371.94 123.377 373.073 120.019 373.986C113.479 375.806 106.69 376.588 99.9038 376.302C96.5958 376.156 93.3363 375.457 90.2623 374.234L89.13 373.738C88.7636 373.556 88.4139 373.291 88.0476 373.059C87.4289 372.537 86.8704 371.949 86.3824 371.305C85.3913 370.035 84.5373 368.665 83.8346 367.218C81.2367 361.652 79.2061 355.843 77.7733 349.875C76.258 344.133 75.059 338.49 73.9767 333.013C71.8452 322.075 70.2633 311.815 68.9811 302.432C67.6989 293.05 66.4833 284.511 66.833 276.949C66.9973 270.485 68.154 264.084 70.2633 257.968C71.6303 254.115 73.5543 250.481 75.9749 247.179C76.6108 246.325 77.3005 245.513 78.0398 244.746C78.2924 244.489 78.5592 244.246 78.839 244.018L78.1064 244.813C77.4007 245.598 76.7392 246.421 76.1248 247.278C73.7805 250.604 71.9194 254.242 70.5963 258.084C68.5303 264.174 67.4074 270.54 67.2659 276.965C66.9662 284.478 68.1651 292.967 69.5306 302.333C70.8961 311.699 72.5113 321.959 74.676 332.881C75.7584 338.325 76.974 343.951 78.506 349.677C79.9319 355.586 81.9456 361.34 84.5174 366.854C85.19 368.237 85.9987 369.551 86.9319 370.775C87.424 371.386 87.9824 371.941 88.5971 372.43C88.9046 372.646 89.2274 372.84 89.5629 373.009L90.6287 373.489C93.6275 374.655 96.8025 375.309 100.02 375.425C106.712 375.697 113.404 374.921 119.853 373.125C123.162 372.23 126.411 371.125 129.578 369.816C132.775 368.442 135.805 366.738 138.936 365.083L157.903 354.923L196.585 334.238L196.402 334.833L177.719 301.737L178.235 301.919L117.905 325.087L117.522 325.235V324.838C114.641 305.395 111.927 289.757 109.712 279.034C108.629 273.672 107.63 269.535 106.798 266.788C106.598 266.11 106.415 265.497 106.248 264.968L105.765 263.694C105.432 262.933 105.249 262.568 105.249 262.568Z" fill="#263238"/>
<path d="M126.897 302.217H156.82V292.322H126.897V302.217Z" fill="white"/>
<path d="M133.091 296.674C136.178 296.228 139.301 296.078 142.416 296.227C145.537 296.078 148.666 296.228 151.758 296.674C148.664 297.099 145.537 297.243 142.416 297.104C139.301 297.243 136.18 297.099 133.091 296.674Z" fill="#263238"/>
<g opacity="0.3">
<path d="M176.087 292.768L132.042 257.257L133.091 254.162H129.261L122.9 229.555L132.059 247.427L137.354 247.179L133.507 250.687L176.087 292.768Z" fill="black"/>
</g>
<path d="M121.684 252.292L123.35 251.63C123.35 251.547 119.736 242.992 116.189 233.924C114.915 231.138 114.398 228.068 114.691 225.021C114.89 224.063 115.424 223.205 116.198 222.6C116.972 221.994 117.936 221.68 118.92 221.712L120.086 221.099L120.685 220.04C117.605 219.378 113.475 221.943 112.975 224.773C112.651 228.138 113.225 231.529 114.641 234.602C118.054 243.72 121.634 252.209 121.684 252.292Z" fill="#E36CC5"/>
<path d="M119.087 272.282L121.302 271.421C119.487 266.771 117.006 258.547 118.071 256.23C118.597 255.403 119.293 254.697 120.114 254.158C120.935 253.619 121.862 253.259 122.834 253.103C124.023 252.791 125.269 252.757 126.474 253.004C127.679 253.251 128.81 253.772 129.778 254.526C132.309 256.661 136.139 264.173 137.404 266.904L139.552 265.911C139.369 265.497 134.773 255.618 131.31 252.673C130.063 251.682 128.602 250.992 127.041 250.659C125.481 250.326 123.863 250.358 122.318 250.753C120.976 250.984 119.704 251.513 118.596 252.301C117.489 253.089 116.575 254.116 115.923 255.304C114.125 259.143 118.238 270.197 119.087 272.282Z" fill="#E36CC5"/>
<path d="M142.999 308.158C145.73 308.158 148.428 306.702 151.009 303.822L150.109 303.028C147.279 306.222 144.348 307.479 141.45 306.801C129.611 304.037 120.586 271.355 120.502 271.024L119.353 271.322C119.736 272.696 128.645 305.03 141.167 307.943C141.767 308.088 142.382 308.16 142.999 308.158Z" fill="#263238"/>
<path d="M148.727 305.163C148.968 305.402 149.287 305.547 149.627 305.571C149.966 305.596 150.303 305.498 150.576 305.295L153.14 303.392C153.332 303.273 153.497 303.117 153.625 302.933C153.754 302.748 153.844 302.54 153.889 302.32C153.934 302.1 153.934 301.874 153.888 301.654C153.842 301.435 153.752 301.226 153.623 301.042C153.487 300.83 153.304 300.652 153.088 300.52C152.872 300.389 152.629 300.308 152.377 300.284C152.125 300.26 151.871 300.294 151.633 300.382C151.396 300.47 151.183 300.611 151.009 300.794L148.694 303.177C148.434 303.445 148.292 303.805 148.298 304.177C148.304 304.549 148.459 304.904 148.727 305.163Z" fill="#263238"/>
<path d="M137.97 309.234C139.511 309.351 141.056 309.084 142.467 308.457C143.877 307.83 145.108 306.862 146.046 305.643C153.323 295.499 139.602 267.334 139.019 266.143L137.953 266.656C138.087 266.954 151.958 295.383 145.081 304.964C143.282 307.463 140.085 308.456 135.722 307.91L135.572 309.068C136.367 309.178 137.168 309.233 137.97 309.234Z" fill="#263238"/>
<path d="M138.187 308.588C138.164 308.925 138.02 309.242 137.782 309.482C137.543 309.722 137.226 309.869 136.888 309.896L133.691 310.16C133.469 310.195 133.243 310.186 133.026 310.132C132.808 310.077 132.604 309.98 132.425 309.846C132.246 309.711 132.096 309.542 131.985 309.349C131.873 309.156 131.802 308.942 131.776 308.721C131.734 308.472 131.751 308.218 131.823 307.976C131.896 307.735 132.023 307.513 132.195 307.328C132.366 307.143 132.579 306.999 132.815 306.908C133.051 306.817 133.305 306.78 133.558 306.801L136.888 307.082C137.259 307.116 137.602 307.292 137.845 307.574C138.087 307.855 138.21 308.219 138.187 308.588Z" fill="#263238"/>
<path d="M195.17 274.036C199.842 274.036 203.629 270.273 203.629 265.63C203.629 260.987 199.842 257.224 195.17 257.224C190.498 257.224 186.711 260.987 186.711 265.63C186.711 270.273 190.498 274.036 195.17 274.036Z" fill="#263238"/>
<path d="M195.17 274.036C199.842 274.036 203.629 270.273 203.629 265.63C203.629 260.987 199.842 257.224 195.17 257.224C190.498 257.224 186.711 260.987 186.711 265.63C186.711 270.273 190.498 274.036 195.17 274.036Z" fill="#263238"/>
<path d="M188.925 265.63C188.922 266.862 189.287 268.067 189.974 269.093C190.66 270.119 191.638 270.919 192.783 271.392C193.928 271.865 195.188 271.989 196.404 271.75C197.62 271.51 198.737 270.917 199.614 270.046C200.49 269.175 201.087 268.065 201.328 266.856C201.569 265.648 201.444 264.395 200.968 263.258C200.492 262.12 199.687 261.148 198.655 260.466C197.622 259.784 196.41 259.421 195.17 259.424C193.514 259.424 191.925 260.078 190.754 261.242C189.583 262.406 188.925 263.984 188.925 265.63Z" fill="#E0E0E0"/>
<path d="M177.219 229.009C178.018 230.151 186.86 248.701 191.689 258.051L193.105 257.323C192.389 255.949 179.533 229.588 178.534 228.116L169.176 220.553L168.843 222.324L177.219 229.009Z" fill="#E36CC5"/>
<path d="M173.672 265.431C179.8 271.504 195.32 287.308 195.32 287.308L199.466 284.825L177.619 261.658C177.175 261.189 176.579 260.891 175.935 260.818C175.292 260.745 174.643 260.902 174.105 261.261C173.769 261.483 173.486 261.775 173.277 262.118C173.069 262.461 172.939 262.846 172.897 263.244C172.856 263.643 172.904 264.046 173.038 264.424C173.172 264.802 173.388 265.146 173.672 265.431Z" fill="#263238"/>
<path d="M178.085 301.489L183.297 286.894C183.838 285.319 184.843 283.943 186.183 282.946C187.523 281.948 189.134 281.375 190.807 281.301H191.589C194.72 281.648 210.656 282.691 210.656 282.691L216.817 289.558C217.324 290.129 217.604 290.865 217.604 291.627C217.604 292.388 217.324 293.124 216.817 293.695L218.599 306.106L215.152 308.489L215.502 317.16C215.502 317.16 212.388 319.212 211.006 318.534L209.607 317.838L207.542 315.77L201.647 324.044L193.504 328.727L178.085 301.489Z" fill="#FFBF9D"/>
<path d="M216.917 294.39C216.221 293.548 215.476 292.747 214.686 291.991C213.799 291.235 212.792 290.631 211.705 290.204C210.29 289.871 208.845 289.678 207.392 289.624C203.567 289.415 199.764 288.906 196.019 288.102C199.848 288.012 203.679 288.222 207.475 288.731C209.002 288.781 210.518 289.014 211.988 289.426C213.155 289.917 214.218 290.625 215.119 291.511C216.021 292.247 216.654 293.26 216.917 294.39Z" fill="#51384A"/>
<path d="M216.568 305.792C216.211 304.711 215.783 303.655 215.285 302.631C213.863 300.287 211.695 298.482 209.124 297.501C206.508 296.566 203.745 296.1 200.965 296.128C199.799 296.207 198.627 296.173 197.468 296.028C198.594 295.655 199.777 295.476 200.965 295.499C203.846 295.277 206.742 295.672 209.457 296.657C212.22 297.701 214.497 299.723 215.852 302.333C216.476 303.373 216.729 304.592 216.568 305.792Z" fill="#51384A"/>
<path d="M215.002 316.432C214.426 315.389 214.139 314.213 214.17 313.023C214.102 311.803 213.838 310.602 213.387 309.465C213.079 308.813 212.614 308.247 212.033 307.817C211.452 307.387 210.773 307.106 210.057 307C207.312 306.415 204.53 306.017 201.731 305.808C200.542 305.761 199.372 305.491 198.284 305.014C199.457 304.986 200.631 305.042 201.797 305.179C204.648 305.202 207.488 305.518 210.273 306.123C211.112 306.33 211.903 306.695 212.604 307.198C213.256 307.704 213.761 308.372 214.07 309.134C214.525 310.363 214.745 311.665 214.719 312.973C214.802 315.125 215.152 316.382 215.002 316.432Z" fill="#51384A"/>
<path d="M223.694 289.062L154.955 359.606L157.603 362.27L206.843 356.759L273.101 294.026L273.034 291.014L223.694 289.062Z" fill="#E36CC5"/>
<g opacity="0.3">
<path d="M236.566 321.959C234.947 320.491 233.036 319.376 230.957 318.687C228.877 317.997 226.676 317.747 224.494 317.954C220.123 318.399 215.984 320.128 212.604 322.919C209.742 325.002 207.657 327.97 206.676 331.358C205.277 337.282 210.19 345.573 215.602 348.452C222.462 342.975 229.14 334.568 236 329.108C237.113 328.392 237.952 327.326 238.382 326.079C238.439 325.298 238.304 324.514 237.988 323.796C237.672 323.078 237.184 322.447 236.566 321.959Z" fill="black"/>
</g>
<path d="M272.834 293.894C272.535 293.915 272.235 293.915 271.935 293.894H269.304L259.446 293.778L225.143 293.182L225.46 293.05L208.241 310.806L172.523 347.327L161.632 358.315L158.635 361.277C158.297 361.631 157.935 361.963 157.553 362.27C157.846 361.887 158.175 361.533 158.535 361.211L161.416 358.133L172.107 346.946C181.249 337.498 193.754 324.541 207.625 310.243C213.703 303.988 219.548 297.998 224.877 292.537L225.01 292.404H225.143L259.396 293.381L269.238 293.728L271.869 293.861C272.191 293.836 272.515 293.847 272.834 293.894Z" fill="#263238"/>
<path d="M229.806 314.579C229.806 314.579 236.466 314.711 238.648 315.787C240.829 316.862 246.791 323.15 246.791 323.15C246.791 323.15 246.791 327.453 245.126 327.618C245.338 328.581 245.455 329.562 245.475 330.547C245.642 332.963 245.991 334.337 242.694 336.405C242.694 336.405 243.044 340.36 241.828 341.37C241.007 342.056 240.139 342.687 239.231 343.256C239.231 343.256 239.048 347.608 233.169 347.559L227.658 349.975C227.658 349.975 215.402 348.833 216.701 347.393C217.999 345.953 220.947 338.821 220.947 338.821C220.947 338.821 212.621 332.748 212.721 330.862C212.821 328.975 213.587 328.793 213.587 328.793C213.587 328.793 213.254 325.186 216.184 324.838C216.184 324.838 218.449 320.354 220.697 320.188C222.945 320.023 238.198 325.517 238.198 325.517L232.487 320.701C232.487 320.701 226.758 319.841 226.942 317.938C227.125 316.035 229.806 314.579 229.806 314.579Z" fill="#FFBF9D"/>
<path d="M228.807 337.266C226.163 336.158 223.578 334.915 221.063 333.542C218.419 332.417 215.835 331.158 213.32 329.77C216.173 330.297 218.922 331.275 221.463 332.665C224.138 333.807 226.616 335.36 228.807 337.266Z" fill="#51384A"/>
<path d="M236.8 332.004C233.383 331.218 230.041 330.144 226.808 328.793C223.488 327.722 220.267 326.366 217.184 324.739C220.6 325.525 223.942 326.599 227.175 327.949C230.496 329.02 233.716 330.377 236.8 332.004Z" fill="#51384A"/>
<path d="M128.262 179.514C126.046 172.01 124.475 164.331 123.566 156.562C122.658 148.756 123.711 140.848 126.63 133.544C127.113 132.452 131.043 125.27 132.209 125.37C133.058 125.485 130.543 132.32 130.91 133.081C134.64 140.263 135.306 148.719 134.24 156.744C133.128 164.529 131.145 172.167 128.329 179.514" fill="#263238"/>
<path d="M129.045 149.678C129.411 130.052 141.217 113.935 160.933 114.928L162.748 115.126C171.579 116.031 179.741 120.213 185.605 126.835C191.47 133.458 194.606 142.034 194.387 150.853C193.971 167.848 193.288 186.613 192.222 195.648C190.008 214.331 170.858 215.274 170.858 215.274L166.495 244.101L126.214 216.267L129.045 149.678Z" fill="#FFBF9D"/>
<path d="M170.791 215.341C162.093 214.402 153.848 211.008 147.029 205.561C147.029 205.561 150.792 221.563 169.759 221.844L170.791 215.341Z" fill="#51384A"/>
<path d="M187.143 166.425C187.076 167.122 186.736 167.764 186.198 168.216C185.66 168.667 184.965 168.892 184.263 168.841C183.918 168.833 183.578 168.756 183.264 168.615C182.95 168.474 182.667 168.271 182.432 168.02C182.198 167.768 182.017 167.473 181.899 167.151C181.782 166.828 181.73 166.486 181.748 166.144C181.816 165.446 182.155 164.801 182.692 164.347C183.23 163.893 183.925 163.665 184.629 163.711C184.975 163.722 185.315 163.801 185.629 163.943C185.943 164.086 186.226 164.29 186.46 164.543C186.694 164.796 186.876 165.092 186.993 165.415C187.11 165.739 187.161 166.082 187.143 166.425Z" fill="#263238"/>
<path d="M189.475 158.118C189.109 158.416 187.227 156.711 184.329 156.463C181.432 156.215 179.167 157.39 178.884 157.009C178.601 156.629 179.151 156.231 180.15 155.669C181.494 154.93 183.037 154.63 184.563 154.808C186.066 154.96 187.482 155.579 188.609 156.579C189.425 157.307 189.658 157.969 189.475 158.118Z" fill="#263238"/>
<path d="M162.382 165.267C162.314 165.965 161.975 166.609 161.438 167.063C160.9 167.517 160.205 167.745 159.501 167.699C159.156 167.689 158.816 167.61 158.501 167.467C158.187 167.324 157.904 167.12 157.67 166.867C157.436 166.615 157.255 166.318 157.137 165.995C157.02 165.672 156.969 165.328 156.987 164.985C157.074 164.302 157.421 163.678 157.957 163.241C158.493 162.804 159.176 162.588 159.867 162.635C160.206 162.644 160.54 162.719 160.85 162.856C161.16 162.993 161.44 163.189 161.673 163.433C161.907 163.678 162.09 163.965 162.211 164.28C162.333 164.594 162.391 164.93 162.382 165.267Z" fill="#263238"/>
<path d="M161 156.298C160.633 156.612 158.752 154.908 155.854 154.643C152.957 154.378 150.692 155.569 150.409 155.172C150.126 154.775 150.676 154.411 151.675 153.848C153.019 153.11 154.562 152.809 156.087 152.988C157.59 153.139 159.007 153.759 160.134 154.759C160.95 155.503 161.183 156.165 161 156.298Z" fill="#263238"/>
<path d="M169.043 179.498C170.619 179.174 172.232 179.057 173.839 179.15C174.571 179.15 175.287 179.15 175.504 178.587C175.646 177.833 175.553 177.054 175.237 176.353L173.655 170.529C171.457 162.255 169.959 155.47 170.325 155.387C170.691 155.304 172.706 162.006 174.904 170.28C175.42 172.316 175.92 174.268 176.403 176.122C176.748 177.068 176.748 178.104 176.403 179.051C176.27 179.297 176.083 179.51 175.855 179.673C175.627 179.837 175.364 179.947 175.087 179.994C174.662 180.049 174.231 180.049 173.805 179.994C172.203 180.023 170.604 179.857 169.043 179.498Z" fill="#263238"/>
<path d="M160.317 180.59C160.783 180.59 160.467 183.734 162.915 186.233C165.363 188.732 168.743 188.732 168.726 189.178C168.71 189.625 167.911 189.708 166.495 189.592C164.653 189.427 162.93 188.618 161.633 187.308C160.38 186.059 159.669 184.372 159.651 182.609C159.668 181.285 160.101 180.557 160.317 180.59Z" fill="#263238"/>
<path d="M162.082 144.615C161.716 145.359 158.868 144.615 155.421 144.747C151.974 144.879 149.144 145.426 148.761 144.747C148.594 144.383 149.16 143.705 150.426 143.092C151.974 142.311 153.685 141.903 155.421 141.901C157.153 141.892 158.863 142.282 160.417 143.043C161.683 143.572 162.249 144.251 162.082 144.615Z" fill="#263238"/>
<path d="M189.291 148.421C188.709 149.016 186.794 148.139 184.396 147.858C181.998 147.577 179.933 147.858 179.533 147.097C179.367 146.749 179.75 146.121 180.699 145.591C181.965 144.961 183.396 144.736 184.795 144.946C186.2 145.085 187.524 145.665 188.575 146.6C189.341 147.428 189.558 148.123 189.291 148.421Z" fill="#263238"/>
<path d="M129.111 163.694C128.795 163.512 116.572 158.531 115.623 171.373C114.674 184.214 127.846 182.509 127.896 182.145C127.946 181.781 129.111 163.694 129.111 163.694Z" fill="#FFBF9D"/>
<path d="M124.299 176.982C124.299 176.982 124.066 177.131 123.666 177.28C123.118 177.454 122.524 177.419 122.001 177.181C120.686 176.585 119.686 174.351 119.786 172.035C119.842 170.931 120.137 169.853 120.652 168.874C120.795 168.468 121.037 168.105 121.357 167.816C121.677 167.527 122.064 167.322 122.484 167.219C122.748 167.167 123.022 167.21 123.257 167.34C123.492 167.471 123.672 167.68 123.766 167.931C123.916 168.295 123.766 168.543 123.883 168.576C123.999 168.609 124.166 168.377 124.099 167.848C124.052 167.524 123.893 167.225 123.65 167.004C123.485 166.858 123.292 166.747 123.084 166.676C122.875 166.605 122.654 166.576 122.434 166.59C121.894 166.651 121.379 166.851 120.941 167.17C120.503 167.489 120.157 167.917 119.936 168.411C119.308 169.479 118.948 170.683 118.887 171.919C118.787 174.517 119.936 177.032 121.768 177.711C122.107 177.836 122.471 177.883 122.832 177.849C123.192 177.814 123.54 177.699 123.849 177.512C124.266 177.297 124.349 177.015 124.299 176.982Z" fill="#51384A"/>
<path d="M187.343 128.944C189.508 127.934 183.663 120.802 178.668 118.155C171.124 114.15 159.401 111.238 152.025 112.793C143.232 114.68 135.789 118.486 130.96 126.031C126.275 133.71 123.729 142.488 123.583 151.466C123.298 154.193 123.752 156.947 124.899 159.442C126.564 162.387 129.894 164.406 129.461 168.311C129.367 169.017 129.414 169.734 129.6 170.421C129.785 171.108 130.106 171.752 130.544 172.316C132.758 174.98 135.789 172.812 137.288 170.545C140.451 165.68 141.151 159.706 141.784 153.997C142.458 149.938 142.458 145.795 141.784 141.735C141.284 139.551 140.401 137.466 140.118 135.249C139.863 134.157 139.851 133.023 140.081 131.926C140.311 130.828 140.778 129.794 141.451 128.894C141.791 128.535 142.165 128.208 142.566 127.918C144.472 126.473 146.73 125.558 149.11 125.267C151.489 124.976 153.903 125.32 156.104 126.263C163.215 129.291 175.404 133.908 178.818 131.658C183.713 128.431 184.979 126.197 184.979 126.197L187.343 128.944Z" fill="#263238"/>
</g>
<defs>
<filter id="filter0_d_43_1436" x="0" y="3.48145" width="752" height="765.851" filterUnits="userSpaceOnUse" color-interpolation-filters="sRGB">
<feFlood flood-opacity="0" result="BackgroundImageFix"/>
<feColorMatrix in="SourceAlpha" type="matrix" values="0 0 0 0 0 0 0 0 0 0 0 0 0 0 0 0 0 0 127 0" result="hardAlpha"/>
<feOffset dy="4"/>
<feGaussianBlur stdDeviation="2"/>
<feComposite in2="hardAlpha" operator="out"/>
<feColorMatrix type="matrix" values="0 0 0 0 0 0 0 0 0 0 0 0 0 0 0 0 0 0 0.4 0"/>
<feBlend mode="normal" in2="BackgroundImageFix" result="effect1_dropShadow_43_1436"/>
<feBlend mode="normal" in="SourceGraphic" in2="effect1_dropShadow_43_1436" result="shape"/>
</filter>
</defs>
</svg>
