<svg width="775" height="636" viewBox="0 0 775 636" fill="none" xmlns="http://www.w3.org/2000/svg">
<g filter="url(#filter0_d_61_364)">
<path d="M767 551.877H0V552.298H767V551.877Z" fill="#EBEBEB"/>
<path d="M690.146 578.999H639.34V579.42H690.146V578.999Z" fill="#EBEBEB"/>
<path d="M508.091 583.583H494.761V584.005H508.091V583.583Z" fill="#EBEBEB"/>
<path d="M637.806 563.356H564.681V563.777H637.806V563.356Z" fill="#EBEBEB"/>
<path d="M116.799 566.188H80.4736V566.609H116.799V566.188Z" fill="#EBEBEB"/>
<path d="M170.105 566.188H130.451V566.609H170.105V566.188Z" fill="#EBEBEB"/>
<path d="M300.833 573.301H201.675V573.723H300.833V573.301Z" fill="#EBEBEB"/>
<path d="M363.558 476.697H67.3578C65.0374 476.693 62.8134 475.677 61.1741 473.872C59.5347 472.068 58.614 469.622 58.614 467.072V9.54069C58.6342 7.00554 59.5639 4.58152 61.201 2.79515C62.8382 1.00878 65.0506 0.00434285 67.3578 0H363.558C365.881 0 368.109 1.01406 369.752 2.81909C371.394 4.62412 372.317 7.07227 372.317 9.62497V467.072C372.317 469.625 371.394 472.073 369.752 473.878C368.109 475.683 365.881 476.697 363.558 476.697ZM67.3578 0.337128C65.1391 0.341593 63.0127 1.31322 61.4453 3.03874C59.8778 4.76426 58.9975 7.10267 58.9975 9.54069V467.072C58.9975 469.51 59.8778 471.849 61.4453 473.574C63.0127 475.3 65.1391 476.272 67.3578 476.276H363.558C365.778 476.272 367.906 475.3 369.476 473.575C371.046 471.85 371.93 469.512 371.934 467.072V9.54069C371.93 7.10112 371.046 4.76275 369.476 3.03771C367.906 1.31267 365.778 0.341584 363.558 0.337128H67.3578Z" fill="#EBEBEB"/>
<path d="M695.378 476.697H399.162C396.84 476.693 394.615 475.677 392.973 473.873C391.331 472.069 390.407 469.624 390.403 467.072V9.54069C390.427 7.004 391.36 4.58 393 2.7941C394.64 1.00819 396.854 0.00429549 399.162 0H695.378C697.682 0.00877288 699.891 1.01517 701.525 2.80107C703.158 4.58696 704.086 7.00845 704.106 9.54069V467.072C704.106 469.619 703.188 472.062 701.551 473.866C699.915 475.671 697.695 476.689 695.378 476.697ZM399.162 0.337128C396.942 0.341584 394.814 1.31267 393.244 3.03771C391.674 4.76275 390.791 7.10112 390.787 9.54069V467.072C390.791 469.512 391.674 471.85 393.244 473.575C394.814 475.3 396.942 476.272 399.162 476.276H695.378C697.598 476.272 699.726 475.3 701.296 473.575C702.865 471.85 703.749 469.512 703.753 467.072V9.54069C703.749 7.10112 702.865 4.76275 701.296 3.03771C699.726 1.31267 697.598 0.341584 695.378 0.337128H399.162Z" fill="#EBEBEB"/>
<path d="M677.123 43.8265H434.797V551.877H677.123V43.8265Z" fill="#EBEBEB"/>
<path d="M659.098 60.3963H452.821V551.877H659.098V60.3963Z" fill="#F5F5F5"/>
<path d="M584.976 101.155H526.975V118.77H584.976V101.155Z" fill="white"/>
<path d="M611.1 276.141H642.562C643.864 276.141 645.112 276.709 646.033 277.72C646.954 278.732 647.471 280.104 647.471 281.535C647.471 282.965 646.954 284.337 646.033 285.349C645.112 286.36 643.864 286.929 642.562 286.929H611.1C609.798 286.929 608.549 286.36 607.629 285.349C606.708 284.337 606.191 282.965 606.191 281.535C606.191 280.104 606.708 278.732 607.629 277.72C608.549 276.709 609.798 276.141 611.1 276.141Z" fill="white"/>
<path d="M269.125 97.8848H107.963V240.607H269.125V97.8848Z" fill="#EBEBEB"/>
<path d="M260.458 231.101V107.392L116.599 107.392V231.101H260.458Z" fill="#FAFAFA"/>
<path d="M243.691 170.873V164.956H133.381V170.873H243.691Z" fill="#E0E0E0"/>
<path d="M243.691 184.341V178.424H133.381V184.341H243.691Z" fill="#E0E0E0"/>
<path d="M243.691 197.792V191.876H133.381V197.792H243.691Z" fill="#E0E0E0"/>
<path d="M216.033 211.261V205.344H161.039V211.261H216.033Z" fill="#E0E0E0"/>
<path d="M133.458 107.392C133.458 109.821 133.021 112.227 132.172 114.47C131.322 116.713 130.078 118.749 128.509 120.461C126.941 122.174 125.08 123.528 123.033 124.447C120.987 125.366 118.795 125.831 116.584 125.816C113.534 125.824 110.54 124.908 107.932 123.169V97.8848H130.942C132.555 100.742 133.425 104.03 133.458 107.392Z" fill="#EBEBEB"/>
<path d="M269.125 97.8848V123.169C265.918 125.289 262.158 126.169 258.443 125.669C254.728 125.168 251.273 123.317 248.627 120.409C245.98 117.501 244.296 113.704 243.84 109.622C243.385 105.541 244.186 101.409 246.115 97.8848H269.125Z" fill="#EBEBEB"/>
<path d="M133.458 231.117C133.463 234.461 132.636 237.743 131.065 240.607H108.055V215.323C110.6 213.648 113.503 212.745 116.47 212.705C119.436 212.665 122.359 213.49 124.94 215.095C127.522 216.7 129.671 219.028 131.167 221.843C132.663 224.658 133.454 227.858 133.458 231.117Z" fill="#EBEBEB"/>
<path d="M269.125 215.306V240.591H246.115C244.532 237.731 243.699 234.447 243.707 231.1C243.71 227.836 244.501 224.632 245.998 221.813C247.496 218.994 249.648 216.663 252.233 215.055C254.818 213.448 257.745 212.623 260.715 212.664C263.685 212.705 266.593 213.611 269.14 215.289L269.125 215.306Z" fill="#EBEBEB"/>
<path d="M202.639 140.048C203.903 131.493 198.616 123.432 190.83 122.043C183.045 120.654 175.709 126.464 174.445 135.019C173.181 143.574 178.468 151.635 186.254 153.024C194.039 154.413 201.375 148.603 202.639 140.048Z" fill="#E0E0E0"/>
<path d="M399.362 349.179H80.4736V361.788H399.362V349.179Z" fill="#EBEBEB"/>
<path d="M396.6 361.788H292.994V551.877H396.6V361.788Z" fill="#F5F5F5"/>
<path d="M188.023 361.788H84.4163V551.877H188.023V361.788Z" fill="#F5F5F5"/>
<path d="M87.9598 361.788H84.4163V551.877H87.9598V361.788Z" fill="#EBEBEB"/>
<path d="M296.537 361.788H292.994V551.877H296.537V361.788Z" fill="#EBEBEB"/>
<path d="M138.827 318.787H119.775L121.309 349.179H137.293L138.827 318.787Z" fill="#F0F0F0"/>
<path d="M304.238 335.998H204.697V349.179H304.238V335.998Z" fill="#F0F0F0"/>
<path d="M304.253 337.548H258.356V347.645H304.253V337.548Z" fill="#FAFAFA"/>
<path d="M383.5 628C547.765 628 680.927 619.457 680.927 608.919C680.927 598.38 547.765 589.837 383.5 589.837C219.235 589.837 86.0728 598.38 86.0728 608.919C86.0728 619.457 219.235 628 383.5 628Z" fill="#F5F5F5"/>
<path d="M522.649 490.89C549.489 490.89 571.246 466.982 571.246 437.49C571.246 407.997 549.489 384.089 522.649 384.089C495.81 384.089 474.052 407.997 474.052 437.49C474.052 466.982 495.81 490.89 522.649 490.89Z" fill="white"/>
<path d="M522.649 491.548C512.919 491.551 503.406 488.383 495.314 482.445C487.221 476.508 480.914 468.066 477.188 458.188C473.462 448.311 472.485 437.441 474.382 426.954C476.278 416.466 480.963 406.832 487.842 399.27C494.722 391.709 503.487 386.558 513.031 384.471C522.574 382.384 532.466 383.453 541.457 387.544C550.447 391.636 558.131 398.564 563.537 407.455C568.944 416.345 571.829 426.797 571.829 437.489C571.817 451.82 566.632 465.559 557.412 475.694C548.192 485.828 535.69 491.53 522.649 491.548ZM522.649 384.763C513.155 384.763 503.875 387.857 495.981 393.653C488.087 399.449 481.935 407.688 478.303 417.326C474.67 426.965 473.72 437.571 475.574 447.802C477.427 458.034 482 467.432 488.714 474.808C495.429 482.183 503.983 487.205 513.295 489.238C522.606 491.272 532.258 490.225 541.028 486.23C549.799 482.236 557.294 475.473 562.566 466.797C567.839 458.121 570.651 447.922 570.648 437.489C570.636 423.507 565.574 410.101 556.575 400.215C547.576 390.329 535.374 384.772 522.649 384.763Z" fill="#E36CC5"/>
<path d="M530.473 407.216H514.826V467.764H530.473V407.216Z" fill="#E36CC5"/>
<path d="M550.2 446.103V428.91H495.099V446.103H550.2Z" fill="#E36CC5"/>
<path d="M193.453 33.8307L192.41 32.6002C199.511 25.2239 208.521 20.4529 218.196 18.9465L218.411 20.6322C209.048 22.0832 200.327 26.6953 193.453 33.8307Z" fill="#E36CC5"/>
<path d="M182.101 52.2547L180.675 51.6479C182.223 47.3537 184.287 43.3061 186.811 39.6124L188.038 40.6238C185.604 44.1984 183.608 48.1088 182.101 52.2547Z" fill="#E36CC5"/>
<path d="M224.9 116.831C248.147 116.831 266.993 96.1228 266.993 70.5775C266.993 45.0323 248.147 24.3237 224.9 24.3237C201.653 24.3237 182.807 45.0323 182.807 70.5775C182.807 96.1228 201.653 116.831 224.9 116.831Z" fill="#E36CC5"/>
<path d="M250.042 49.7431C248.421 47.8938 246.48 46.4181 244.334 45.4025C242.188 44.3869 239.879 43.8517 237.542 43.8281C235.206 43.8046 232.888 44.2932 230.725 45.2654C228.562 46.2376 226.598 47.6739 224.946 49.4903C223.295 47.6744 221.332 46.2385 219.17 45.2665C217.009 44.2945 214.693 43.806 212.357 43.8295C210.022 43.8531 207.714 44.3882 205.569 45.4036C203.424 46.419 201.485 47.8943 199.865 49.7431C196.691 53.5164 194.98 58.5012 195.098 63.6382C195.215 68.7752 197.151 73.6593 200.494 77.2527L220.436 99.1659C221.034 99.8234 221.744 100.345 222.526 100.701C223.308 101.057 224.146 101.24 224.992 101.24C225.838 101.24 226.676 101.057 227.458 100.701C228.239 100.345 228.95 99.8234 229.548 99.1659L249.49 77.2527C252.822 73.6482 254.744 68.7579 254.847 63.621C254.95 58.4842 253.227 53.5056 250.042 49.7431Z" fill="white"/>
<path d="M224.9 90.7883C224.591 90.7767 224.292 90.6626 224.043 90.461C223.794 90.2595 223.606 89.9799 223.504 89.6589L214.622 61.1211L210.91 73.0554C210.804 73.387 210.607 73.6742 210.346 73.8767C210.084 74.0792 209.772 74.1869 209.452 74.1848H194.588C194.181 74.1848 193.791 74.0072 193.503 73.6911C193.216 73.375 193.054 72.9462 193.054 72.4991C193.054 72.0521 193.216 71.6233 193.503 71.3072C193.791 70.9911 194.181 70.8135 194.588 70.8135H208.394L213.211 55.3562C213.315 55.025 213.511 54.7378 213.771 54.5345C214.03 54.3312 214.341 54.2219 214.66 54.2219C214.979 54.2219 215.29 54.3312 215.55 54.5345C215.81 54.7378 216.006 55.025 216.11 55.3562L225.145 84.3997L233.92 61.6942C234.031 61.4048 234.213 61.1552 234.446 60.9735C234.679 60.7919 234.954 60.6853 235.239 60.666C235.526 60.6479 235.812 60.7189 236.065 60.8709C236.317 61.0229 236.525 61.2498 236.666 61.5257L241.298 70.7967H255.273C255.68 70.7967 256.07 70.9742 256.358 71.2904C256.645 71.6065 256.807 72.0352 256.807 72.4823C256.807 72.9293 256.645 73.3581 256.358 73.6742C256.07 73.9903 255.68 74.1679 255.273 74.1679H240.409C240.134 74.1704 239.864 74.092 239.627 73.9408C239.389 73.7895 239.193 73.5711 239.059 73.3082L235.423 66.1612L226.311 89.76C226.194 90.0647 225.997 90.3247 225.746 90.5075C225.495 90.6904 225.201 90.788 224.9 90.7883Z" fill="#E36CC5"/>
<path d="M458.451 549.854H298.348C295.739 549.886 293.153 549.321 290.753 548.195C288.354 547.069 286.194 545.407 284.411 543.314C282.628 541.222 281.26 538.744 280.395 536.04C279.53 533.335 279.187 530.462 279.387 527.604L305.266 106.195C305.718 100.177 308.19 94.5579 312.201 90.4303C316.213 86.3028 321.477 83.9611 326.972 83.8603H487.106C489.722 83.8274 492.315 84.3946 494.72 85.5255C497.125 86.6564 499.289 88.3262 501.074 90.4282C502.858 92.5301 504.224 95.0181 505.083 97.7329C505.943 100.448 506.278 103.33 506.067 106.195L480.142 527.604C479.676 533.605 477.199 539.203 473.192 543.314C469.185 547.424 463.932 549.755 458.451 549.854Z" fill="#263238"/>
<path d="M493.948 255.475H489.914C489.183 255.484 488.459 255.326 487.787 255.011C487.115 254.695 486.511 254.229 486.013 253.642C485.515 253.055 485.134 252.36 484.894 251.601C484.654 250.843 484.562 250.038 484.621 249.238L489.576 168.681C489.691 166.997 490.378 165.421 491.5 164.266C492.622 163.111 494.098 162.461 495.636 162.445H499.67C500.4 162.435 501.125 162.593 501.796 162.908C502.468 163.224 503.072 163.69 503.571 164.278C504.069 164.865 504.45 165.56 504.69 166.318C504.929 167.076 505.022 167.881 504.962 168.681L500.007 249.238C499.892 250.923 499.206 252.498 498.083 253.653C496.961 254.808 495.486 255.458 493.948 255.475Z" fill="#263238"/>
<path d="M302.934 201.737H298.915C298.321 201.745 297.731 201.618 297.183 201.363C296.635 201.109 296.142 200.731 295.734 200.256C295.326 199.781 295.012 199.217 294.812 198.602C294.613 197.986 294.531 197.332 294.574 196.68L296.369 167.586C296.482 166.22 297.051 164.948 297.965 164.015C298.88 163.081 300.076 162.552 301.324 162.529H305.358C305.951 162.525 306.538 162.656 307.083 162.912C307.627 163.169 308.118 163.547 308.524 164.021C308.93 164.496 309.243 165.057 309.442 165.671C309.642 166.284 309.724 166.936 309.684 167.586L307.889 196.68C307.779 198.047 307.212 199.321 306.296 200.255C305.381 201.189 304.183 201.717 302.934 201.737Z" fill="#E36CC5"/>
<path d="M299.744 253.688H295.709C295.116 253.694 294.528 253.565 293.982 253.31C293.436 253.054 292.944 252.676 292.538 252.201C292.131 251.726 291.819 251.163 291.62 250.549C291.422 249.935 291.341 249.281 291.383 248.631L293.178 219.537C293.291 218.171 293.86 216.899 294.774 215.966C295.689 215.033 296.885 214.504 298.133 214.48H302.198C302.791 214.476 303.378 214.607 303.923 214.864C304.467 215.12 304.958 215.498 305.364 215.972C305.77 216.447 306.083 217.009 306.282 217.622C306.482 218.235 306.564 218.887 306.524 219.537L304.729 248.631C304.619 250.004 304.047 251.283 303.125 252.217C302.203 253.152 300.998 253.677 299.744 253.688Z" fill="#E36CC5"/>
<path d="M455.061 549.854H294.958C292.349 549.886 289.763 549.321 287.363 548.195C284.964 547.069 282.804 545.407 281.021 543.314C279.237 541.222 277.87 538.744 277.005 536.04C276.14 533.335 275.797 530.462 275.997 527.604L301.891 106.195C302.359 100.174 304.848 94.5605 308.874 90.4448C312.9 86.3292 318.176 84.0063 323.674 83.9277H483.716C486.326 83.8957 488.914 84.4611 491.315 85.5879C493.715 86.7148 495.876 88.3784 497.659 90.4729C499.443 92.5674 500.81 95.047 501.674 97.7537C502.537 100.461 502.879 103.335 502.677 106.195L476.767 527.604C476.3 533.608 473.822 539.209 469.811 543.319C465.801 547.43 460.545 549.759 455.061 549.854Z" fill="#E36CC5"/>
<path opacity="0.3" d="M277.685 522.884L302.965 111.656H500.943L475.663 522.884H277.685Z" fill="white"/>
<path opacity="0.1" d="M355.842 522.884L426.498 111.656H470.846L400.19 522.884H355.842Z" fill="white"/>
<path opacity="0.1" d="M322.339 522.884L392.995 111.656H415.468L344.812 522.884H322.339Z" fill="white"/>
<path d="M383.715 94.2607H422.325C422.648 94.2546 422.968 94.323 423.264 94.4615C423.561 94.5999 423.828 94.8053 424.048 95.0643C424.267 95.3234 424.435 95.6303 424.54 95.9651C424.645 96.3 424.685 96.6554 424.657 97.0082C424.604 97.7509 424.301 98.4453 423.808 98.9563C423.314 99.4672 422.666 99.7582 421.988 99.7727H383.377C383.054 99.7764 382.734 99.7057 382.437 99.5654C382.141 99.425 381.874 99.2181 381.654 98.9577C381.435 98.6974 381.267 98.3895 381.162 98.0537C381.057 97.718 381.018 97.3619 381.045 97.0082C381.099 96.2672 381.402 95.5748 381.896 95.0665C382.39 94.5583 383.038 94.2709 383.715 94.2607Z" fill="white"/>
<path d="M375.677 590.393L362.147 591.809L357.269 557.507L370.798 556.074L375.677 590.393Z" fill="#FFB573"/>
<path d="M360.597 584.544L374.771 579.707C375.016 579.613 375.284 579.628 375.518 579.747C375.753 579.867 375.936 580.082 376.029 580.347L380.631 592.703C380.746 593.034 380.796 593.388 380.78 593.741C380.764 594.095 380.681 594.441 380.537 594.758C380.393 595.075 380.191 595.355 379.943 595.582C379.695 595.808 379.407 595.976 379.097 596.074C373.974 597.76 369.096 598.147 362.914 601.131C355.689 604.502 352.667 609.02 344.889 609.02C339.321 609.02 338.063 603.407 340.425 602.631C351.163 599.058 349.752 596.125 357.545 586.904C358.355 585.836 359.408 585.021 360.597 584.544Z" fill="#263238"/>
<path opacity="0.2" d="M357.269 557.507L359.784 575.206L373.33 573.773L370.814 556.074L357.269 557.507Z" fill="black"/>
<path d="M367.055 124.063C349.307 121.77 331.651 123.304 313.933 127.08C310.98 127.71 308.287 129.356 306.243 131.781C304.2 134.205 302.912 137.282 302.566 140.565C300.649 159.208 298.455 200.995 307.015 263.33L379.542 256.587C379.68 245.277 372.363 193.747 378.407 140.278C378.654 138.391 378.555 136.468 378.115 134.624C377.675 132.779 376.903 131.05 375.845 129.538C374.787 128.027 373.464 126.764 371.955 125.823C370.445 124.883 368.779 124.284 367.055 124.063Z" fill="white"/>
<path d="M324.824 140.042L327.417 145.74C327.538 146.027 327.73 146.272 327.972 146.444C328.213 146.617 328.494 146.712 328.782 146.718L331.589 146.886C332.09 146.91 332.583 146.743 332.985 146.414L337.817 142.453L331.85 137.683L324.824 140.042Z" fill="#263238"/>
<path d="M331.681 145.251C330.658 144.73 329.499 144.629 328.414 144.965C326.128 153.814 323.628 179.217 323.367 190.477C330.301 212.676 332.571 214.918 332.571 214.918L336.084 188.201C336.084 188.201 332.142 160.877 331.681 145.251Z" fill="#263238"/>
<path d="M351.7 85.6302C350.043 96.6206 348.632 116.696 355.811 123.793C350.55 129.861 343.662 136.89 331.85 137.683C320.038 138.475 321.864 129.49 324.855 124.686C335.885 121.45 335.348 112.415 333.185 103.97L351.7 85.6302Z" fill="#FFB573"/>
<path d="M358.818 122.832C357.982 122.436 357.114 122.125 356.226 121.905C356.008 121.842 355.778 121.859 355.57 121.953C355.362 122.048 355.188 122.214 355.075 122.428C353.94 124.551 350.473 134.042 331.85 137.683C334.918 139.672 338.983 145.841 340.732 148.808C346.316 145.622 360.843 136.098 359.462 123.776C359.434 123.573 359.361 123.38 359.248 123.215C359.136 123.05 358.988 122.919 358.818 122.832Z" fill="#F5F5F5"/>
<path d="M324.963 125.192C325.002 125 324.997 124.801 324.948 124.612C324.899 124.422 324.808 124.25 324.683 124.109C324.558 123.968 324.403 123.864 324.233 123.806C324.062 123.748 323.88 123.738 323.705 123.776C323.06 123.914 322.424 124.099 321.803 124.332C321.659 124.394 321.524 124.479 321.404 124.585C319.977 126.035 312.2 138.374 319.486 148.353C321.02 145.639 326.313 139.486 331.85 137.683C326.604 135.087 324.027 130.249 324.963 125.192Z" fill="#F5F5F5"/>
<path opacity="0.2" d="M344.153 93.1144L333.2 103.97C333.728 105.931 334.098 107.939 334.305 109.971C338.538 109.179 344.23 103.903 344.536 99.0142C344.744 97.0385 344.614 95.0377 344.153 93.1144Z" fill="black"/>
<path d="M329.519 52.4064C320.069 56.4687 319.456 64.998 320.315 74.3196C321.174 83.6412 330.408 77.4717 332.464 71.6395C334.519 65.8072 342.604 46.7763 329.519 52.4064Z" fill="#263238"/>
<path d="M359.662 70.9989C357.038 85.6808 356.164 94.3955 348.525 101.155C337.004 111.269 321.404 102.537 320.023 87.4001C318.78 73.7633 323.275 52.0018 337.035 47.754C340.036 46.7832 343.215 46.6895 346.259 47.4822C349.303 48.275 352.106 49.9267 354.391 52.2742C356.676 54.6218 358.364 57.5838 359.288 60.8677C360.213 64.1516 360.341 67.6437 359.662 70.9989Z" fill="#FFB573"/>
<path d="M359.11 83.1523C347.865 83.8097 350.243 76.7975 352.283 72.7688C354.324 68.7402 350.166 62.0819 352.882 58.6264C348.034 60.7503 342.926 58.9972 336.437 54.0414C331.406 50.1813 325.101 65.6049 318.965 57.8678C313.166 50.569 318.551 39.5618 332.479 37.7919C346.408 36.022 348.939 46.8438 358.082 45.883C367.224 44.9221 364.049 53.1986 362.254 54.8842C369.924 55.4405 374.112 63.4978 359.11 83.1523Z" fill="#263238"/>
<path d="M360.49 55.9125C362.249 54.8522 363.719 53.2946 364.746 51.4008C365.774 49.5071 366.322 47.346 366.335 45.1413C369.372 50.9904 369.05 57.6318 360.49 55.9125Z" fill="#263238"/>
<path d="M331.344 86.6753C332.566 86.9078 333.819 86.8663 335.026 86.5535C336.233 86.2406 337.371 85.6628 338.37 84.8548C338.4 84.8233 338.424 84.7854 338.44 84.7434C338.457 84.7014 338.465 84.6561 338.465 84.6104C338.465 84.5647 338.457 84.5194 338.44 84.4774C338.424 84.4354 338.4 84.3975 338.37 84.366C338.31 84.3031 338.23 84.2681 338.147 84.2681C338.064 84.2681 337.985 84.3031 337.925 84.366C336.806 85.2374 335.518 85.8113 334.163 86.0424C332.808 86.2735 331.423 86.1554 330.117 85.6976C330.033 85.6748 329.945 85.6862 329.869 85.7297C329.793 85.7731 329.734 85.8456 329.703 85.9336C329.679 86.023 329.688 86.1192 329.728 86.2013C329.768 86.2833 329.836 86.3446 329.917 86.3719C330.384 86.5197 330.861 86.6213 331.344 86.6753Z" fill="#263238"/>
<path d="M362.377 87.6529C360.276 90.6273 357.197 92.5764 353.802 93.0807C349.338 93.7212 347.85 89.1532 349.721 84.8885C351.424 81.0453 355.857 76.0895 359.968 77.4211C364.08 78.7528 364.954 83.9446 362.377 87.6529Z" fill="#FFB573"/>
<path d="M357.944 406.862C358.481 362.85 363.604 258.02 363.604 258.02L307.061 263.262C307.061 263.262 318.305 371.295 325.086 416.2C332.142 462.875 353.787 572.222 353.787 572.222L376.797 570.065C376.797 570.065 368.39 440.895 357.944 406.862Z" fill="#263238"/>
<path d="M352.406 572.913L379.696 570.368L378.622 560.693L350.181 562.783L352.406 572.913Z" fill="#E36CC5"/>
<path d="M339.505 71.8754C339.367 73.0722 338.661 73.9825 337.971 73.8982C337.28 73.8139 336.805 72.7688 336.958 71.5551C337.112 70.3415 337.802 69.4481 338.492 69.5324C339.183 69.6167 339.658 70.6786 339.505 71.8754Z" fill="#263238"/>
<path d="M326.987 70.7966C326.849 72.0103 326.144 72.9037 325.453 72.8194C324.763 72.7351 324.288 71.69 324.441 70.4932C324.594 69.2964 325.285 68.3862 325.975 68.4705C326.665 68.5548 327.141 69.5324 326.987 70.7966Z" fill="#263238"/>
<path d="M330.516 72.2126C328.668 75.3318 326.45 78.1662 323.92 80.6407C325.546 82.5118 328.905 82.0061 328.905 82.0061L330.516 72.2126Z" fill="#ED893E"/>
<path opacity="0.4" d="M319.072 71.1C318.842 73.0217 320.606 74.623 323.045 74.9601C325.484 75.2973 327.739 73.8308 327.954 71.9091" fill="#E36CC5"/>
<path opacity="0.4" d="M333.568 72.8868C333.231 74.7916 334.934 76.5109 337.327 77.0166C339.72 77.5223 342.067 76.1738 342.389 74.2859" fill="#E36CC5"/>
<path d="M338.278 77.5392C338.002 77.5559 337.725 77.5559 337.449 77.5392C336.27 77.3842 335.163 76.8373 334.274 75.9715C333.886 75.6074 333.584 75.1465 333.392 74.6274C333.199 74.1082 333.123 73.5461 333.17 72.988C332.391 72.6155 331.562 72.3876 330.715 72.3137C329.864 72.0803 328.974 72.0803 328.123 72.3137C327.908 74.3702 325.576 75.7861 322.969 75.4321C321.789 75.2905 320.679 74.7484 319.793 73.8813C319.407 73.5155 319.106 73.0543 318.914 72.5356C318.722 72.0169 318.645 71.4556 318.689 70.8978L319.425 70.9989C319.394 71.4299 319.457 71.8629 319.609 72.2616C319.761 72.6604 319.998 73.0134 320.299 73.2914C321.072 74.0388 322.037 74.5041 323.061 74.623C325.27 74.9433 327.233 73.8139 327.432 72.1283C327.54 71.1843 329.319 71.2518 330.792 71.454C332.265 71.6563 334.013 72.1114 333.86 73.0385C333.828 73.4697 333.89 73.9031 334.042 74.302C334.195 74.701 334.432 75.054 334.734 75.331C335.517 76.0684 336.478 76.538 337.5 76.6817C338.523 76.8255 339.561 76.6372 340.487 76.1401C340.844 75.9573 341.156 75.6827 341.396 75.3394C341.637 74.9961 341.798 74.5943 341.867 74.1679V73.7634L360.797 76.4435L360.705 77.2526L342.481 74.6736C342.349 75.1428 342.131 75.5775 341.841 75.9513C341.551 76.3251 341.194 76.6302 340.794 76.8481C340.018 77.2989 339.155 77.5361 338.278 77.5392Z" fill="#263238"/>
<path d="M344.322 66.5825C344.431 66.5829 344.537 66.5477 344.628 66.4814C344.778 66.3861 344.887 66.2304 344.933 66.0476C344.979 65.8648 344.957 65.6696 344.874 65.5037C344.398 64.5234 343.71 63.6872 342.87 63.0697C342.029 62.4521 341.063 62.0723 340.057 61.9639C339.885 61.9546 339.716 62.0201 339.587 62.1461C339.458 62.2722 339.379 62.4489 339.367 62.6382C339.358 62.8232 339.416 63.0046 339.528 63.1432C339.64 63.2819 339.797 63.3668 339.965 63.3798C340.761 63.4825 341.522 63.7972 342.183 64.2966C342.843 64.796 343.382 65.465 343.754 66.2454C343.812 66.3527 343.896 66.4407 343.995 66.5C344.095 66.5594 344.208 66.5879 344.322 66.5825Z" fill="#263238"/>
<path d="M322.938 64.6778C323.044 64.6892 323.151 64.6721 323.25 64.6281C323.349 64.5841 323.436 64.5143 323.505 64.4249C324.001 63.7111 324.643 63.135 325.378 62.7427C326.113 62.3505 326.922 62.153 327.739 62.1661C327.824 62.1754 327.909 62.1662 327.991 62.139C328.072 62.1117 328.148 62.0671 328.213 62.0075C328.279 61.9479 328.333 61.8747 328.373 61.792C328.413 61.7093 328.437 61.6187 328.445 61.5256C328.455 61.4347 328.449 61.3425 328.427 61.2541C328.405 61.1657 328.368 61.0831 328.316 61.0109C328.265 60.9388 328.201 60.8786 328.128 60.8338C328.055 60.789 327.975 60.7606 327.892 60.7502C326.862 60.7206 325.839 60.9567 324.907 61.4398C323.975 61.9228 323.158 62.6392 322.523 63.5315C322.414 63.6748 322.361 63.8598 322.375 64.0462C322.389 64.2325 322.47 64.405 322.6 64.526C322.7 64.6051 322.816 64.6571 322.938 64.6778Z" fill="#263238"/>
<path d="M405.053 399.765C393.318 333.486 390.679 281.653 379.542 256.486L324.763 263.229C324.763 263.229 357.391 361.99 373.33 404.148C389.881 447.974 422.556 522.85 422.556 522.85H449.922C449.922 522.85 424.381 429.955 405.053 399.765Z" fill="#263238"/>
<path d="M231.419 148.858L225.498 144.745C224.537 144.065 223.391 143.772 222.255 143.917C221.119 144.061 220.064 144.634 219.27 145.538L215.251 150.19C214.818 150.692 214.484 151.286 214.268 151.936C214.053 152.586 213.961 153.278 213.998 153.968C214.035 154.659 214.201 155.333 214.485 155.95C214.77 156.568 215.166 157.114 215.65 157.556L218.518 160.253C221.014 162.577 223.924 164.299 227.063 165.31L235.73 168.125L241.421 161.383C243.155 154.354 231.419 148.858 231.419 148.858Z" fill="#FFB573"/>
<path d="M319.072 145.706C316.924 151.471 314.823 156.831 312.537 162.31C310.251 167.788 307.935 173.199 305.373 178.576C302.812 183.953 300.081 189.297 296.982 194.657C295.448 197.32 293.746 199.984 291.813 202.664C289.735 205.619 287.369 208.315 284.756 210.704C283.032 212.253 281.128 213.546 279.096 214.548C278.452 214.817 277.853 215.087 277.148 215.323L276.074 215.643C275.534 215.789 274.985 215.896 274.433 215.963C272.563 216.195 270.67 216.046 268.849 215.525C266.572 214.825 264.409 213.739 262.437 212.306C260.96 211.293 259.55 210.166 258.218 208.934C253.791 204.687 249.71 200.023 246.023 194.994C242.449 190.274 239.074 185.538 235.837 180.7C232.6 175.862 229.486 171.109 226.296 166.035L243.262 154C248.616 163.497 254.54 172.591 260.995 181.223C263.962 185.221 267.231 188.937 270.766 192.331C271.451 192.947 272.174 193.51 272.929 194.017C273.497 194.438 274.064 194.606 273.666 194.455C273.126 194.292 272.561 194.257 272.009 194.354C271.786 194.376 271.565 194.421 271.349 194.488H271.227C271.15 194.488 271.15 194.488 271.134 194.488C271.483 194.238 271.816 193.962 272.132 193.663C273.532 192.266 274.801 190.719 275.921 189.044C277.224 187.122 278.528 184.965 279.771 182.723C282.311 178.061 284.625 173.256 286.705 168.327C288.852 163.271 290.923 158.214 292.841 152.954C294.758 147.695 296.584 142.352 298.133 137.244L319.072 145.706Z" fill="#E36CC5"/>
<g opacity="0.6">
<path d="M319.072 145.706C316.924 151.471 314.823 156.831 312.537 162.31C310.251 167.788 307.935 173.199 305.373 178.576C302.812 183.953 300.081 189.297 296.982 194.657C295.448 197.32 293.746 199.984 291.813 202.664C289.735 205.619 287.369 208.315 284.756 210.704C283.032 212.253 281.128 213.546 279.096 214.548C278.452 214.817 277.853 215.087 277.148 215.323L276.074 215.643C275.534 215.789 274.985 215.896 274.433 215.963C272.563 216.195 270.67 216.046 268.849 215.525C266.572 214.825 264.409 213.739 262.437 212.306C260.96 211.293 259.55 210.166 258.218 208.934C253.791 204.687 249.71 200.023 246.023 194.994C242.449 190.274 239.074 185.538 235.837 180.7C232.6 175.862 229.486 171.109 226.296 166.035L243.262 154C248.616 163.497 254.54 172.591 260.995 181.223C263.962 185.221 267.231 188.937 270.766 192.331C271.451 192.947 272.174 193.51 272.929 194.017C273.497 194.438 274.064 194.606 273.666 194.455C273.126 194.292 272.561 194.257 272.009 194.354C271.786 194.376 271.565 194.421 271.349 194.488H271.227C271.15 194.488 271.15 194.488 271.134 194.488C271.483 194.238 271.816 193.962 272.132 193.663C273.532 192.266 274.801 190.719 275.921 189.044C277.224 187.122 278.528 184.965 279.771 182.723C282.311 178.061 284.625 173.256 286.705 168.327C288.852 163.271 290.923 158.214 292.841 152.954C294.758 147.695 296.584 142.352 298.133 137.244L319.072 145.706Z" fill="white"/>
</g>
<path d="M359.232 119.832C353.48 131.631 333.001 176.587 330.516 204.333C321.45 179.048 323.429 123.119 323.429 123.119C316.968 123.811 310.629 125.514 304.607 128.176C302.666 129.052 300.983 130.502 299.746 132.364C298.508 134.227 297.764 136.429 297.596 138.728C295.831 167.667 296.663 196.727 300.081 225.487C306.447 279.933 312.353 364.603 312.353 364.603C312.353 364.603 363.052 362.277 402.169 353.208C397.398 311.59 381.077 241.838 380.923 223.161C380.739 199.124 381.245 152.129 381.936 132.508C382.051 129.738 381.261 127.013 379.708 124.828C378.155 122.642 375.942 121.139 373.468 120.59C368.775 119.635 363.987 119.38 359.232 119.832Z" fill="#E36CC5"/>
<path opacity="0.7" d="M359.232 119.832C353.48 131.631 333.001 176.587 330.516 204.333C321.45 179.048 323.429 123.119 323.429 123.119C316.968 123.811 310.629 125.514 304.607 128.176C302.666 129.052 300.983 130.502 299.746 132.364C298.508 134.227 297.764 136.429 297.596 138.728C295.831 167.667 296.663 196.727 300.081 225.487C306.447 279.933 312.353 364.603 312.353 364.603C312.353 364.603 363.052 362.277 402.169 353.208C397.398 311.59 381.077 241.838 380.923 223.161C380.739 199.124 381.245 152.112 381.936 132.491C382.081 129.805 381.358 127.149 379.897 124.991C378.435 122.832 376.326 121.31 373.943 120.691C369.101 119.648 364.148 119.359 359.232 119.832Z" fill="white"/>
<path d="M347.282 355.568C338.477 302.184 331.498 223.852 330.93 214.43H331.712C332.28 223.852 339.275 302.083 348.065 355.467L347.282 355.568Z" fill="white"/>
<path d="M342.895 260.599H296.139C295.195 260.552 294.29 260.171 293.56 259.511C292.829 258.852 292.313 257.95 292.089 256.941L276.457 177.093C276.343 176.657 276.324 176.197 276.403 175.752C276.482 175.307 276.656 174.888 276.91 174.531C277.165 174.174 277.493 173.888 277.868 173.698C278.242 173.507 278.653 173.417 279.065 173.435H325.806C326.753 173.478 327.661 173.858 328.395 174.518C329.128 175.178 329.646 176.081 329.871 177.093L345.503 256.941C345.617 257.377 345.636 257.837 345.557 258.282C345.478 258.727 345.305 259.146 345.05 259.503C344.795 259.86 344.467 260.146 344.093 260.336C343.718 260.527 343.308 260.617 342.895 260.599Z" fill="white"/>
<path d="M341.438 261.273H293.884C292.922 261.224 292.001 260.835 291.257 260.164C290.514 259.492 289.988 258.575 289.757 257.548L273.85 176.351C273.736 175.906 273.719 175.438 273.801 174.985C273.883 174.531 274.062 174.106 274.322 173.742C274.582 173.379 274.917 173.089 275.298 172.895C275.68 172.701 276.098 172.609 276.519 172.626H324.073C325.034 172.675 325.955 173.064 326.699 173.736C327.442 174.407 327.969 175.324 328.199 176.351L344.091 257.548C344.208 257.992 344.228 258.46 344.148 258.913C344.068 259.367 343.891 259.793 343.632 260.157C343.373 260.521 343.039 260.812 342.657 261.006C342.276 261.2 341.858 261.292 341.438 261.273Z" fill="#E36CC5"/>
<path d="M346.884 215.458L335.056 214.969C333.634 214.915 332.218 215.191 330.899 215.778L324.763 218.475C324.188 218.726 323.664 219.101 323.223 219.579C322.783 220.058 322.435 220.629 322.2 221.258C321.965 221.888 321.848 222.563 321.856 223.243C321.865 223.924 321.998 224.595 322.247 225.218L324.702 231.05C325.197 232.181 326.032 233.09 327.066 233.624C328.099 234.159 329.269 234.285 330.378 233.983L337.143 232.129C337.143 232.129 349.844 231.016 350.304 223.701L346.884 215.458Z" fill="#FFB573"/>
<path d="M379.542 127.063C382.472 132.12 385.157 136.739 387.795 141.694C390.434 146.65 393.026 151.555 395.465 156.68C397.904 161.804 400.221 167.097 402.322 172.761C403.414 175.727 404.346 178.76 405.114 181.846C406.103 185.607 406.558 189.513 406.464 193.427V194.084C406.469 194.196 406.469 194.309 406.464 194.421C406.464 195.028 406.311 195.635 406.203 196.242C406.096 196.848 405.958 197.32 405.804 197.927C405.651 198.534 405.482 198.854 405.314 199.326C404.727 200.785 403.975 202.155 403.074 203.405C401.821 205.126 400.395 206.687 398.825 208.058C396.412 210.146 393.847 212.012 391.155 213.637C386.419 216.483 381.544 219.037 376.551 221.29C371.719 223.549 366.902 225.605 362.055 227.544C357.207 229.482 352.437 231.353 347.39 233.208L341.545 211.969C346.147 210.586 350.841 208.884 355.428 207.164C360.015 205.445 364.632 203.523 368.988 201.518C373.264 199.577 377.433 197.365 381.475 194.893C383.181 193.854 384.807 192.665 386.338 191.336C386.74 191.001 387.101 190.61 387.412 190.173C387.28 190.337 387.176 190.525 387.105 190.73C387.105 190.881 387.028 190.982 386.952 191.168C386.891 191.366 386.845 191.569 386.814 191.775C386.749 192.034 386.708 192.299 386.691 192.567C386.691 192.668 386.691 192.685 386.691 192.651V192.533C386.584 190.934 386.3 189.355 385.847 187.83C385.234 185.623 384.506 183.457 383.669 181.341C381.793 176.675 379.673 172.133 377.318 167.737C374.925 163.22 372.379 158.702 369.648 154.252C366.918 149.802 364.126 145.369 361.318 141.324L379.542 127.063Z" fill="#E36CC5"/>
<g opacity="0.7">
<path d="M379.542 127.063C382.472 132.12 385.157 136.739 387.795 141.694C390.434 146.65 393.026 151.555 395.465 156.68C397.904 161.804 400.221 167.097 402.322 172.761C403.414 175.727 404.346 178.76 405.114 181.846C406.103 185.607 406.558 189.513 406.464 193.427V194.084C406.469 194.196 406.469 194.309 406.464 194.421C406.464 195.028 406.311 195.635 406.203 196.242C406.096 196.848 405.958 197.32 405.804 197.927C405.651 198.534 405.482 198.854 405.314 199.326C404.727 200.785 403.975 202.155 403.074 203.405C401.821 205.126 400.395 206.687 398.825 208.058C396.412 210.146 393.847 212.012 391.155 213.637C386.419 216.483 381.544 219.037 376.551 221.29C371.719 223.549 366.902 225.605 362.055 227.544C357.207 229.482 352.437 231.353 347.39 233.208L341.545 211.969C346.147 210.586 350.841 208.884 355.428 207.164C360.015 205.445 364.632 203.523 368.988 201.518C373.264 199.577 377.433 197.365 381.475 194.893C383.181 193.854 384.807 192.665 386.338 191.336C386.74 191.001 387.101 190.61 387.412 190.173C387.28 190.337 387.176 190.525 387.105 190.73C387.105 190.881 387.028 190.982 386.952 191.168C386.891 191.366 386.845 191.569 386.814 191.775C386.749 192.034 386.708 192.299 386.691 192.567C386.691 192.668 386.691 192.685 386.691 192.651V192.533C386.584 190.934 386.3 189.355 385.847 187.83C385.234 185.623 384.506 183.457 383.669 181.341C381.793 176.675 379.673 172.133 377.318 167.737C374.925 163.22 372.379 158.702 369.648 154.252C366.918 149.802 364.126 145.369 361.318 141.324L379.542 127.063Z" fill="white"/>
</g>
<path d="M364.018 185.555C363.916 185.553 363.816 185.523 363.727 185.467C363.638 185.411 363.564 185.331 363.512 185.234C363.467 185.161 363.436 185.078 363.421 184.991C363.406 184.904 363.407 184.814 363.424 184.728C363.441 184.641 363.474 184.559 363.521 184.487C363.568 184.415 363.627 184.354 363.696 184.307L366.089 182.622C368.323 181.074 370.076 178.817 371.117 176.15C372.158 173.483 372.437 170.532 371.918 167.687L367.101 140.885C366.749 138.881 365.791 137.067 364.384 135.735C362.976 134.403 361.201 133.632 359.345 133.546C357.489 133.46 355.662 134.065 354.157 135.262C352.653 136.459 351.56 138.179 351.056 140.144L344.229 166.423C343.484 169.201 343.525 172.162 344.347 174.914C345.169 177.665 346.733 180.077 348.831 181.829L351.102 183.717C351.23 183.827 351.313 183.988 351.333 184.165C351.353 184.342 351.308 184.52 351.209 184.661C351.161 184.73 351.101 184.788 351.032 184.831C350.964 184.875 350.888 184.903 350.81 184.914C350.731 184.925 350.652 184.918 350.575 184.895C350.499 184.872 350.428 184.833 350.365 184.779L348.218 182.908C345.911 180.999 344.187 178.365 343.275 175.354C342.362 172.344 342.305 169.099 343.11 166.052L349.951 139.773C350.539 137.529 351.795 135.567 353.519 134.201C355.242 132.836 357.334 132.147 359.457 132.244C361.58 132.341 363.612 133.219 365.226 134.737C366.84 136.256 367.944 138.326 368.359 140.616L373.176 167.434C373.745 170.542 373.44 173.767 372.304 176.681C371.167 179.595 369.251 182.061 366.81 183.751L364.402 185.437C364.348 185.484 364.287 185.519 364.221 185.539C364.155 185.559 364.086 185.564 364.018 185.555Z" fill="#263238"/>
<path d="M367.7 141.442L350.473 140.649C350.392 140.645 350.313 140.623 350.24 140.585C350.167 140.547 350.102 140.494 350.048 140.428C349.994 140.362 349.952 140.286 349.925 140.202C349.898 140.119 349.886 140.03 349.89 139.941C349.905 139.766 349.98 139.602 350.099 139.484C350.218 139.365 350.373 139.3 350.534 139.301L367.746 140.093C367.826 140.097 367.905 140.119 367.978 140.157C368.051 140.195 368.117 140.248 368.171 140.314C368.225 140.38 368.267 140.457 368.294 140.54C368.321 140.624 368.333 140.712 368.329 140.801C368.327 140.889 368.309 140.975 368.276 141.055C368.243 141.135 368.196 141.208 368.137 141.267C368.079 141.327 368.01 141.373 367.935 141.403C367.859 141.433 367.78 141.446 367.7 141.442Z" fill="#263238"/>
<path d="M359.324 133.587C359.165 133.582 359.014 133.512 358.9 133.39C358.786 133.268 358.718 133.104 358.711 132.929C358.711 129.558 357.76 123.709 354.891 122.428C354.812 122.398 354.738 122.352 354.676 122.29C354.614 122.229 354.564 122.154 354.529 122.07C354.494 121.986 354.475 121.896 354.473 121.804C354.471 121.712 354.486 121.62 354.518 121.535C354.549 121.45 354.596 121.373 354.656 121.308C354.715 121.243 354.786 121.193 354.865 121.16C354.943 121.126 355.026 121.111 355.11 121.115C355.193 121.118 355.276 121.141 355.351 121.18C359.6 123.102 359.953 131.901 359.953 132.98C359.953 133.157 359.891 133.328 359.78 133.457C359.669 133.586 359.516 133.662 359.355 133.671L359.324 133.587Z" fill="#263238"/>
<path d="M306.631 156.494H306.509C306.35 156.458 306.212 156.354 306.123 156.206C306.034 156.057 306.001 155.876 306.033 155.702C308.058 144.627 316.434 127.147 323.812 121.989C323.88 121.943 323.955 121.913 324.033 121.899C324.111 121.885 324.191 121.888 324.268 121.909C324.345 121.929 324.418 121.966 324.482 122.017C324.546 122.069 324.6 122.134 324.641 122.208C324.685 122.281 324.716 122.362 324.731 122.448C324.746 122.534 324.745 122.622 324.727 122.707C324.71 122.793 324.677 122.873 324.631 122.944C324.584 123.015 324.525 123.074 324.457 123.119C317.323 128.074 309.193 145.032 307.23 155.938C307.205 156.093 307.131 156.233 307.022 156.335C306.913 156.436 306.775 156.493 306.631 156.494Z" fill="#263238"/>
<path d="M311.663 158.23C310.712 160.911 308.595 162.529 307.061 161.838C305.527 161.147 304.929 158.466 305.88 155.719C306.831 152.971 308.948 151.421 310.482 152.128C312.016 152.836 312.629 155.55 311.663 158.23Z" fill="white"/>
<path d="M352.161 184.341C352.161 185.588 351.455 186.583 350.703 186.549C349.952 186.515 349.369 185.47 349.415 184.206C349.461 182.942 350.12 181.947 350.872 181.998C351.624 182.049 352.207 183.077 352.161 184.341Z" fill="white"/>
<path d="M365.384 184.948C365.384 186.195 364.693 187.19 363.926 187.156C363.159 187.122 362.607 186.077 362.653 184.813C362.699 183.549 363.343 182.571 364.187 182.605C365.031 182.638 365.43 183.734 365.384 184.948Z" fill="white"/>
<path d="M625.519 161.568L623.985 161.467C624.24 157.878 623.814 154.27 622.733 150.872C621.652 147.474 619.94 144.36 617.706 141.727C615.471 139.095 612.764 137.001 609.754 135.58C606.745 134.158 603.499 133.439 600.223 133.469V131.783C603.709 131.75 607.163 132.514 610.366 134.026C613.569 135.538 616.451 137.765 618.829 140.565C621.208 143.366 623.031 146.679 624.182 150.294C625.334 153.91 625.789 157.749 625.519 161.568Z" fill="#E36CC5"/>
<path d="M626.328 168.636L625.439 182.593L626.973 182.711L627.862 168.754L626.328 168.636Z" fill="#E36CC5"/>
<path d="M600.223 137.683H494.377C488.597 137.787 483.058 140.25 478.839 144.594C474.62 148.937 472.023 154.849 471.551 161.18L470.585 176.84C470.365 179.853 470.719 182.883 471.624 185.738C472.53 188.592 473.966 191.208 475.842 193.419C477.718 195.63 479.993 197.387 482.521 198.578C485.05 199.769 487.776 200.368 490.527 200.338H596.373L616.898 214.244L620.15 161.18C620.372 158.168 620.02 155.138 619.116 152.284C618.213 149.429 616.778 146.813 614.903 144.602C613.028 142.391 610.754 140.634 608.227 139.442C605.699 138.251 602.973 137.652 600.223 137.683Z" fill="#E36CC5"/>
<path d="M594.854 160.118H496.816V164.029H594.854V160.118Z" fill="white"/>
<path d="M593.995 173.991H521.207V177.902H593.995V173.991Z" fill="white"/>
<path d="M440.994 221.459H549.172C551.984 221.425 554.772 222.036 557.357 223.253C559.943 224.47 562.269 226.266 564.187 228.527C566.106 230.787 567.574 233.462 568.499 236.381C569.424 239.3 569.785 242.398 569.558 245.479L568.577 261.492C568.091 267.963 565.434 274.004 561.122 278.442C556.811 282.881 551.152 285.401 545.245 285.513H437.052L414.318 299.756L417.662 245.479C418.144 239.007 420.8 232.964 425.113 228.525C429.425 224.085 435.086 221.567 440.994 221.459Z" fill="white"/>
<path opacity="0.15" d="M440.994 221.459H549.172C551.984 221.425 554.772 222.036 557.357 223.253C559.943 224.47 562.269 226.266 564.187 228.527C566.106 230.787 567.574 233.462 568.499 236.381C569.424 239.3 569.785 242.398 569.558 245.479L568.577 261.492C568.091 267.963 565.434 274.004 561.122 278.442C556.811 282.881 551.152 285.401 545.245 285.513H437.052L414.318 299.756L417.662 245.479C418.144 239.007 420.8 232.964 425.113 228.525C429.425 224.085 435.086 221.567 440.994 221.459Z" fill="#E36CC5"/>
<path opacity="0.5" d="M543.68 244.4H443.418V248.412H543.68V244.4Z" fill="#E36CC5"/>
<path opacity="0.5" d="M482.167 258.576H442.543V262.588H482.167V258.576Z" fill="#E36CC5"/>
<path opacity="0.5" d="M517.188 258.576H491.877V262.588H517.188V258.576Z" fill="#E36CC5"/>
</g>
<defs>
<filter id="filter0_d_61_364" x="0" y="0" width="775" height="636" filterUnits="userSpaceOnUse" color-interpolation-filters="sRGB">
<feFlood flood-opacity="0" result="BackgroundImageFix"/>
<feColorMatrix in="SourceAlpha" type="matrix" values="0 0 0 0 0 0 0 0 0 0 0 0 0 0 0 0 0 0 127 0" result="hardAlpha"/>
<feOffset dx="4" dy="4"/>
<feGaussianBlur stdDeviation="2"/>
<feComposite in2="hardAlpha" operator="out"/>
<feColorMatrix type="matrix" values="0 0 0 0 0 0 0 0 0 0 0 0 0 0 0 0 0 0 0.3 0"/>
<feBlend mode="normal" in2="BackgroundImageFix" result="effect1_dropShadow_61_364"/>
<feBlend mode="normal" in="SourceGraphic" in2="effect1_dropShadow_61_364" result="shape"/>
</filter>
</defs>
</svg>
