<svg width="21" height="21" viewBox="0 0 21 21" fill="none" xmlns="http://www.w3.org/2000/svg">
<path fill-rule="evenodd" clip-rule="evenodd" d="M15.2997 20.7994C13.7997 20.7442 9.54869 20.1567 5.09661 15.7057C0.645565 11.2536 0.0591062 7.00359 0.00285625 5.50255C-0.0804771 3.21505 1.67161 0.993171 3.69556 0.125463C3.93929 0.0202198 4.20619 -0.0198494 4.47008 0.00918708C4.73396 0.0382235 4.98576 0.135368 5.20077 0.291088C6.86744 1.50567 8.01744 3.34317 9.00494 4.78796C9.22221 5.10539 9.31511 5.49166 9.26594 5.87317C9.21676 6.25468 9.02894 6.60476 8.73827 6.85671L6.70598 8.36609C6.6078 8.43699 6.53868 8.54112 6.51148 8.65913C6.48427 8.77715 6.50083 8.90102 6.55806 9.00775C7.01848 9.84421 7.83723 11.09 8.77473 12.0275C9.71223 12.965 11.0174 13.838 11.9122 14.3505C12.0244 14.4134 12.1565 14.431 12.2812 14.3997C12.406 14.3683 12.514 14.2903 12.5831 14.1817L13.906 12.1682C14.1492 11.8451 14.508 11.6287 14.9072 11.5642C15.3064 11.4997 15.7151 11.5922 16.0476 11.8223C17.5133 12.8369 19.2237 13.9671 20.4758 15.5703C20.6441 15.7868 20.7512 16.0446 20.7859 16.3168C20.8205 16.5889 20.7814 16.8653 20.6726 17.1171C19.8008 19.1515 17.5945 20.8838 15.2997 20.7994Z" fill="white"/>
</svg>
