<svg width="86" height="94" viewBox="0 0 86 94" fill="none" xmlns="http://www.w3.org/2000/svg">
<path d="M76.3333 3H9.66667C7.89856 3 6.20286 3.76999 4.95262 5.14059C3.70238 6.51119 3 8.37011 3 10.3084V83.3927C3 85.331 3.70238 87.1899 4.95262 88.5605C6.20286 89.9311 7.89856 90.7011 9.66667 90.7011H76.3333C78.1014 90.7011 79.7971 89.9311 81.0474 88.5605C82.2976 87.1899 83 85.331 83 83.3927V10.3084C83 8.37011 82.2976 6.51119 81.0474 5.14059C79.7971 3.76999 78.1014 3 76.3333 3Z" stroke="white" stroke-width="6"/>
<path d="M50.3333 17.6169C46.2822 17.6169 43 21.1128 43 25.4223C43 33.2301 51.6667 40.3266 56.3333 41.9783C61 40.3266 69.6667 33.2326 69.6667 25.4223C69.6667 21.1128 66.3844 17.6169 62.3333 17.6169C61.1653 17.6116 60.0128 17.9095 58.9699 18.4862C57.9271 19.0629 57.0236 19.902 56.3333 20.9349C55.6431 19.902 54.7396 19.0629 53.6967 18.4862C52.6539 17.9095 51.5013 17.6116 50.3333 17.6169Z" stroke="white" stroke-width="6" stroke-linecap="round" stroke-linejoin="round"/>
</svg>
