<svg width="65" height="63" viewBox="0 0 65 63" fill="none" xmlns="http://www.w3.org/2000/svg">
<path d="M54.5796 20.7932L53.8621 22.444C53.7499 22.7128 53.5608 22.9424 53.3184 23.1039C53.076 23.2655 52.7913 23.3517 52.5 23.3517C52.2087 23.3517 51.924 23.2655 51.6816 23.1039C51.4392 22.9424 51.25 22.7128 51.1379 22.444L50.4204 20.7932C49.1589 17.8728 46.8486 15.5313 43.9454 14.2307L41.7317 13.2419C41.4631 13.1184 41.2356 12.9204 41.0761 12.6715C40.9166 12.4226 40.8318 12.1332 40.8318 11.8375C40.8318 11.5419 40.9166 11.2525 41.0761 11.0036C41.2356 10.7547 41.4631 10.5567 41.7317 10.4332L43.8229 9.50274C46.7991 8.16509 49.1489 5.73697 50.3883 2.71857L51.1262 0.936487C51.2346 0.660435 51.4237 0.423439 51.6687 0.256393C51.9137 0.0893467 52.2034 0 52.5 0C52.7966 0 53.0862 0.0893467 53.3313 0.256393C53.5763 0.423439 53.7654 0.660435 53.8737 0.936487L54.6117 2.71565C55.8498 5.73463 58.1985 8.16379 61.1742 9.50274L63.2683 10.4361C63.5361 10.56 63.7628 10.7579 63.9217 11.0065C64.0806 11.2551 64.165 11.544 64.165 11.839C64.165 12.134 64.0806 12.4229 63.9217 12.6715C63.7628 12.9201 63.5361 13.118 63.2683 13.2419L61.0517 14.2277C58.149 15.5296 55.8398 17.8722 54.5796 20.7932ZM23.3333 5.83649H35V11.6698H23.3333C18.692 11.6698 14.2408 13.5136 10.959 16.7955C7.67708 20.0773 5.83333 24.5285 5.83333 29.1698C5.83333 39.699 13.0142 46.5707 29.1667 53.9032V46.6698H35C39.6413 46.6698 44.0925 44.8261 47.3744 41.5442C50.6562 38.2623 52.5 33.8111 52.5 29.1698H58.3333C58.3333 35.3582 55.875 41.2931 51.4992 45.669C47.1233 50.0448 41.1884 52.5032 35 52.5032V62.7115C20.4167 56.8782 0 48.1282 0 29.1698C0 22.9814 2.45833 17.0465 6.83417 12.6707C11.21 8.29481 17.1449 5.83649 23.3333 5.83649Z" fill="white"/>
</svg>
