<svg width="86" height="71" viewBox="0 0 86 71" fill="none" xmlns="http://www.w3.org/2000/svg">
<path d="M84.7 30.1C85.4333 30.9 85.8 31.8507 85.8 32.952C85.8 34.0533 85.4333 35.0027 84.7 35.8L70.5 49.9C69.7667 50.7 68.8333 51.1 67.7 51.1C66.5667 51.1 65.6333 50.7 64.9 49.9L59.2 44.3C58.4 43.5 58 42.5507 58 41.452C58 40.3533 58.4 39.4027 59.2 38.6C60 37.8667 60.9507 37.5 62.052 37.5C63.1533 37.5 64.1027 37.8667 64.9 38.6L67.7 41.4L79 30.1C79.8 29.3667 80.7493 29 81.848 29C82.9467 29 83.8973 29.3667 84.7 30.1ZM37.3 69.7L27.3 60.6C22.5 56.2667 18.384 52.4 14.952 49C11.52 45.6 8.68667 42.4 6.452 39.4C4.21733 36.4 2.584 33.5 1.552 30.7C0.52 27.9 0.00266667 24.9667 0 21.9C0 15.6333 2.1 10.4173 6.3 6.252C10.5 2.08667 15.7333 0.00266667 22 0C25.4667 0 28.7667 0.717334 31.9 2.152C35.0333 3.58667 37.7333 5.636 40 8.3C42.2667 5.63333 44.9667 3.584 48.1 2.152C51.2333 0.72 54.5333 0.00266667 58 0C63.6667 0 68.4173 1.71733 72.252 5.152C76.0867 8.58667 78.4693 12.6027 79.4 17.2C78.0667 16.6667 76.6667 16.3333 75.2 16.2C73.7333 16.0667 72.2333 16 70.7 16C65.0333 16 59.8333 18.284 55.1 22.852C50.3667 27.42 48 33.136 48 40C48 43.2 48.7 46.4507 50.1 49.752C51.5 53.0533 53.4667 55.736 56 57.8C54.7333 58.9333 53.084 60.384 51.052 62.152C49.02 63.92 47.2693 65.4693 45.8 66.8L42.6 69.7C41.8667 70.3667 40.9827 70.7 39.948 70.7C38.9133 70.7 38.0307 70.3667 37.3 69.7Z" fill="#E36CC5"/>
</svg>
