<svg width="45" height="45" viewBox="0 0 45 45" fill="none" xmlns="http://www.w3.org/2000/svg">
<circle cx="22.5" cy="22.5" r="22.5" fill="#928D8D" fill-opacity="0.63"/>
<path d="M23.001 20C22.2054 20 21.4423 20.3161 20.8797 20.8787C20.3171 21.4413 20.001 22.2044 20.001 23C20.001 23.7956 20.3171 24.5587 20.8797 25.1213C21.4423 25.6839 22.2054 26 23.001 26C23.7966 26 24.5597 25.6839 25.1223 25.1213C25.6849 24.5587 26.001 23.7956 26.001 23C26.001 22.2044 25.6849 21.4413 25.1223 20.8787C24.5597 20.3161 23.7966 20 23.001 20ZM23.001 18C24.3271 18 25.5989 18.5268 26.5365 19.4645C27.4742 20.4021 28.001 21.6739 28.001 23C28.001 24.3261 27.4742 25.5979 26.5365 26.5355C25.5989 27.4732 24.3271 28 23.001 28C21.6749 28 20.4031 27.4732 19.4655 26.5355C18.5278 25.5979 18.001 24.3261 18.001 23C18.001 21.6739 18.5278 20.4021 19.4655 19.4645C20.4031 18.5268 21.6749 18 23.001 18ZM29.501 17.75C29.501 18.0815 29.3693 18.3995 29.1349 18.6339C28.9005 18.8683 28.5825 19 28.251 19C27.9195 19 27.6015 18.8683 27.3671 18.6339C27.1327 18.3995 27.001 18.0815 27.001 17.75C27.001 17.4185 27.1327 17.1005 27.3671 16.8661C27.6015 16.6317 27.9195 16.5 28.251 16.5C28.5825 16.5 28.9005 16.6317 29.1349 16.8661C29.3693 17.1005 29.501 17.4185 29.501 17.75ZM23.001 15C20.527 15 20.123 15.007 18.972 15.058C18.188 15.095 17.662 15.2 17.174 15.39C16.7658 15.5404 16.3967 15.7806 16.094 16.093C15.7813 16.3956 15.5407 16.7647 15.39 17.173C15.2 17.663 15.095 18.188 15.059 18.971C15.007 20.075 15 20.461 15 23C15 25.475 15.007 25.878 15.058 27.029C15.095 27.812 15.2 28.339 15.389 28.826C15.559 29.261 15.759 29.574 16.091 29.906C16.428 30.242 16.741 30.443 17.171 30.609C17.665 30.8 18.191 30.906 18.971 30.942C20.075 30.994 20.461 31 23 31C25.475 31 25.878 30.993 27.029 30.942C27.811 30.905 28.337 30.8 28.826 30.611C29.2342 30.4606 29.6033 30.2204 29.906 29.908C30.243 29.572 30.444 29.259 30.61 28.828C30.8 28.336 30.906 27.81 30.942 27.028C30.994 25.925 31 25.538 31 23C31 20.526 30.993 20.122 30.942 18.971C30.905 18.189 30.799 17.661 30.61 17.173C30.4596 16.7648 30.2194 16.3957 29.907 16.093C29.6044 15.7803 29.2353 15.5397 28.827 15.389C28.337 15.199 27.811 15.094 27.029 15.058C25.926 15.006 25.54 15 23 15M23 13C25.717 13 26.056 13.01 27.123 13.06C28.187 13.11 28.913 13.277 29.55 13.525C30.21 13.779 30.766 14.123 31.322 14.678C31.8307 15.1777 32.2242 15.7825 32.475 16.45C32.722 17.087 32.89 17.813 32.94 18.878C32.987 19.944 33 20.283 33 23C33 25.717 32.99 26.056 32.94 27.122C32.89 28.188 32.722 28.912 32.475 29.55C32.2242 30.2175 31.8307 30.8223 31.322 31.322C30.8223 31.8307 30.2175 32.2242 29.55 32.475C28.913 32.722 28.187 32.89 27.123 32.94C26.056 32.987 25.717 33 23 33C20.283 33 19.944 32.99 18.877 32.94C17.813 32.89 17.088 32.722 16.45 32.475C15.7825 32.2242 15.1777 31.8307 14.678 31.322C14.1693 30.8223 13.7758 30.2175 13.525 29.55C13.277 28.913 13.11 28.187 13.06 27.122C13.012 26.056 13 25.717 13 23C13 20.283 13.01 19.944 13.06 18.878C13.11 17.812 13.277 17.088 13.525 16.45C13.7758 15.7825 14.1693 15.1777 14.678 14.678C15.1777 14.1693 15.7825 13.7758 16.45 13.525C17.087 13.277 17.812 13.11 18.877 13.06C19.945 13.013 20.284 13 23.001 13" fill="white"/>
</svg>
