<svg width="75" height="70" viewBox="0 0 75 70" fill="none" xmlns="http://www.w3.org/2000/svg">
<path d="M16.7062 57.4359L0 70V3.58974C0 2.63768 0.395088 1.72462 1.09835 1.05141C1.80161 0.378204 2.75544 0 3.75 0H71.25C72.2446 0 73.1984 0.378204 73.9017 1.05141C74.6049 1.72462 75 2.63768 75 3.58974V53.8462C75 54.7982 74.6049 55.7113 73.9017 56.3845C73.1984 57.0577 72.2446 57.4359 71.25 57.4359H16.7062ZM37.5675 42L50.16 29.9421C50.966 29.1971 51.6089 28.306 52.0513 27.3206C52.4936 26.3353 52.7266 25.2754 52.7365 24.203C52.7464 23.1305 52.5331 22.0669 52.109 21.0743C51.6849 20.0816 51.0586 19.1797 50.2665 18.4212C49.4744 17.6627 48.5324 17.0628 47.4955 16.6566C46.4587 16.2503 45.3477 16.0458 44.2273 16.0549C43.107 16.0641 41.9998 16.2867 40.9703 16.7099C39.9408 17.133 39.0097 17.7482 38.2312 18.5195L37.5675 19.1549L36.9037 18.5195C36.1203 17.7695 35.1901 17.1745 34.1664 16.7686C33.1427 16.3627 32.0455 16.1538 30.9375 16.1538C29.8295 16.1538 28.7323 16.3627 27.7086 16.7686C26.6849 17.1745 25.7548 17.7695 24.9713 18.5195C23.3889 20.0342 22.4999 22.0886 22.4999 24.2308C22.4999 26.3729 23.3889 28.4273 24.9713 29.9421L37.5675 42Z" fill="white"/>
</svg>
