<svg width="80" height="80" viewBox="0 0 80 80" fill="none" xmlns="http://www.w3.org/2000/svg">
<circle cx="40" cy="40" r="39.5" fill="white" stroke="#E36CC5"/>
<g filter="url(#filter0_d_584_95)">
<path d="M54.3236 45.0674C54.3613 44.5889 54.3862 44.1133 54.3862 43.6524V25.6464C54.3862 25.5251 54.3503 25.4065 54.2831 25.3055C54.2158 25.2045 54.1202 25.1257 54.0083 25.079L37.1994 18.0477C37.1242 18.0162 37.0434 18 36.9619 18C36.8804 18 36.7996 18.0162 36.7244 18.0477L19.9159 25.079C19.8039 25.1257 19.7083 25.2045 19.641 25.3055C19.5738 25.4065 19.5379 25.5251 19.5379 25.6464V43.6524C19.5321 47.2412 20.5905 50.7512 22.5792 53.7387C24.5679 56.7261 27.3978 59.0569 30.7109 60.4363L36.7251 62.9521C36.8003 62.9836 36.881 62.9999 36.9626 62.9999C37.0441 62.9999 37.1249 62.9836 37.2001 62.9521L43.2146 60.4363C43.3074 60.3976 43.3978 60.3551 43.4895 60.3147C44.4704 61.2505 45.6412 61.9643 46.9224 62.4077C48.2035 62.8511 49.5651 63.0136 50.9146 62.8842C52.2641 62.7549 53.57 62.3367 54.7437 61.6581C55.9173 60.9794 56.9311 60.0562 57.7164 58.9511C58.5017 57.846 59.0401 56.5849 59.2949 55.2533C59.5497 53.9218 59.5151 52.551 59.1933 51.234C58.8715 49.9171 58.2702 48.6847 57.4301 47.6207C56.59 46.5567 55.5307 45.6859 54.3243 45.0674H54.3236ZM36.9621 61.7177L31.1852 59.3015C28.0962 58.0151 25.4579 55.8419 23.6038 53.0565C21.7497 50.271 20.763 46.9984 20.7684 43.6524V26.056L36.9621 19.282L53.1557 26.056V43.6524C53.1557 43.947 53.1459 44.25 53.129 44.5524C52.3969 44.2953 51.6357 44.13 50.8629 44.0602C50.8671 43.9217 50.8706 43.7849 50.8706 43.6516V27.9867C50.8706 27.8654 50.8347 27.7467 50.7674 27.6457C50.7002 27.5447 50.6046 27.4658 50.4927 27.419L37.1994 21.8586C37.1242 21.8272 37.0434 21.8109 36.9619 21.8109C36.8804 21.8109 36.7996 21.8272 36.7244 21.8586L23.4311 27.419C23.3193 27.4659 23.2238 27.5448 23.1566 27.6458C23.0894 27.7468 23.0536 27.8654 23.0536 27.9867V43.6524C23.0489 46.5476 23.9026 49.3793 25.5069 51.7895C27.1113 54.1997 29.3941 56.0801 32.0669 57.1931L36.7244 59.1411C36.7996 59.1727 36.8803 59.1889 36.9619 59.1889C37.0434 59.1889 37.1242 59.1727 37.1994 59.1411L41.4012 57.3833C41.7224 58.0874 42.1286 58.7494 42.611 59.3545L36.9621 61.7177ZM40.5522 53.4754C40.5518 54.4099 40.6904 55.3393 40.9636 56.233L36.9621 57.9068L32.5419 56.0579C30.0931 55.0383 28.0015 53.3156 26.5317 51.1074C25.0618 48.8993 24.2796 46.305 24.284 43.6524V28.3963L36.9621 23.093L49.6401 28.3963V43.6541C49.6401 43.7768 49.637 43.9034 49.6331 44.0317C47.1936 44.1307 44.8868 45.1686 43.1946 46.9284C41.5024 48.6882 40.5557 51.0339 40.5522 53.4754ZM45.2171 60.155V59.3999C45.218 58.5377 45.561 57.7111 46.1706 57.1014C46.7803 56.4918 47.6069 56.1489 48.4691 56.1479H51.5452C52.4074 56.1489 53.234 56.4918 53.8437 57.1014C54.4533 57.7111 54.7963 58.5377 54.7972 59.3999V60.1547C53.402 61.1593 51.7263 61.6998 50.0071 61.6998C48.2879 61.6998 46.6123 61.1596 45.2171 60.155ZM56.0118 59.0874C55.9321 57.9569 55.4273 56.8985 54.599 56.125C53.7707 55.3514 52.6803 54.9202 51.547 54.9178H48.4708C47.3375 54.9201 46.247 55.3513 45.4187 56.1249C44.5904 56.8984 44.0857 57.9568 44.006 59.0874C42.9103 57.9166 42.1807 56.4512 41.9069 54.8712C41.6332 53.2913 41.8273 51.6658 42.4653 50.1947C43.1034 48.7236 44.1575 47.4711 45.4981 46.5913C46.8387 45.7115 48.4072 45.2428 50.0107 45.2428C51.6141 45.2428 53.1827 45.7115 54.5232 46.5913C55.8638 47.4711 56.9179 48.7236 57.556 50.1947C58.194 51.6658 58.3881 53.2913 58.1144 54.8712C57.8407 56.4512 57.1111 57.9166 56.0154 59.0874H56.0118Z" fill="#E36CC5"/>
<path d="M50.0067 47.0054C49.3162 46.9669 48.63 47.1365 48.037 47.4922C47.4439 47.848 46.9713 48.3735 46.6802 49.0008C46.3891 49.6281 46.2929 50.3283 46.4042 51.0109C46.5154 51.6934 46.8289 52.3269 47.3041 52.8293C47.7793 53.3318 48.3943 53.68 49.0696 53.8291C49.7449 53.9782 50.4494 53.9211 51.092 53.6654C51.7345 53.4097 52.2855 52.9671 52.6737 52.3947C53.0619 51.8224 53.2695 51.1468 53.2695 50.4552C53.2926 49.5656 52.9622 48.703 52.3506 48.0564C51.7391 47.4098 50.8962 47.0318 50.0067 47.0054ZM50.0067 52.6743C49.5594 52.7137 49.1107 52.617 48.7193 52.397C48.328 52.177 48.0122 51.8438 47.8135 51.4412C47.6148 51.0386 47.5423 50.5854 47.6056 50.1409C47.6689 49.6964 47.865 49.2814 48.1683 48.9503C48.4715 48.6192 48.8677 48.3875 49.3049 48.2855C49.7422 48.1834 50.2 48.2159 50.6185 48.3786C51.0369 48.5413 51.3965 48.8266 51.65 49.1972C51.9035 49.5678 52.0391 50.0063 52.039 50.4552C52.0624 51.0188 51.8618 51.5687 51.4809 51.9848C51.1001 52.4008 50.5701 52.6492 50.0067 52.6757V52.6743Z" fill="#E36CC5"/>
<path d="M36.962 27.9453C35.4211 27.9453 33.9147 28.4023 32.6334 29.2584C31.3521 30.1145 30.3535 31.3313 29.7638 32.755C29.1741 34.1787 29.0198 35.7453 29.3204 37.2567C29.6211 38.768 30.3631 40.1563 31.4527 41.2459C32.5424 42.3356 33.9307 43.0776 35.442 43.3783C36.9534 43.6789 38.52 43.5246 39.9437 42.9349C41.3673 42.3452 42.5842 41.3465 43.4403 40.0653C44.2964 38.784 44.7534 37.2776 44.7534 35.7366C44.751 33.671 43.9294 31.6906 42.4688 30.2299C41.0081 28.7693 39.0277 27.9476 36.962 27.9453ZM42.889 38.5309H40.9129C41.0565 37.8123 41.1425 37.0834 41.1702 36.3512H43.4906C43.4189 37.1073 43.2154 37.845 42.889 38.5309ZM31.0351 32.941H33.0108C32.8676 33.6596 32.7816 34.3885 32.7535 35.1207H30.4332C30.5049 34.3646 30.7086 33.6268 31.0351 32.941ZM37.5773 31.7105V29.3445C38.2185 29.6792 38.8394 30.5135 39.2866 31.7112L37.5773 31.7105ZM39.6515 32.941C39.8117 33.6576 39.9076 34.3871 39.938 35.1207H37.5773V32.941H39.6515ZM36.3468 29.3438V31.7105H34.6375C35.0847 30.5152 35.7056 29.6792 36.3468 29.3445V29.3438ZM36.3468 32.941V35.1207H33.9861C34.0163 34.387 34.1122 33.6576 34.2726 32.941H36.3468ZM30.4325 36.3512H32.7528C32.7809 37.0834 32.8669 37.8122 33.0101 38.5309H31.0344C30.7079 37.845 30.5042 37.1073 30.4325 36.3512ZM33.9861 36.3512H36.3468V38.5309H34.2726C34.1122 37.8143 34.0163 37.0848 33.9861 36.3512ZM36.3468 39.7613V42.128C35.7056 41.7937 35.0847 40.9591 34.6372 39.7613H36.3468ZM37.5773 42.128V39.7613H39.2866C38.8394 40.9595 38.2185 41.7937 37.5773 42.128ZM37.5773 38.5309V36.3512H39.938C39.9076 37.0848 39.8117 37.8143 39.6515 38.5309H37.5773ZM41.1702 35.1207C41.1423 34.3885 41.0563 33.6596 40.9129 32.941H42.889C43.2157 33.6268 43.4197 34.3645 43.4916 35.1207H41.1702ZM42.1314 31.7105H40.5947C40.3844 31.0357 40.0891 30.3903 39.7158 29.79C40.6618 30.2298 41.4897 30.8881 42.1314 31.7105ZM34.2065 29.7907C33.8339 30.3909 33.5392 31.036 33.3294 31.7105H31.7927C32.4341 30.8886 33.2613 30.2306 34.2065 29.7907ZM31.7923 39.7613H33.3294C33.5391 40.4361 33.8339 41.0815 34.2065 41.6819C33.2611 41.2418 32.4337 40.5835 31.7923 39.7613ZM39.7172 41.6823C40.0905 41.0818 40.3858 40.4363 40.5961 39.7613H42.1332C41.4913 40.5839 40.6633 41.2421 39.7172 41.6823Z" fill="#E36CC5"/>
</g>
<defs>
<filter id="filter0_d_584_95" x="13" y="18" width="53" height="53" filterUnits="userSpaceOnUse" color-interpolation-filters="sRGB">
<feFlood flood-opacity="0" result="BackgroundImageFix"/>
<feColorMatrix in="SourceAlpha" type="matrix" values="0 0 0 0 0 0 0 0 0 0 0 0 0 0 0 0 0 0 127 0" result="hardAlpha"/>
<feOffset dy="4"/>
<feGaussianBlur stdDeviation="2"/>
<feComposite in2="hardAlpha" operator="out"/>
<feColorMatrix type="matrix" values="0 0 0 0 0 0 0 0 0 0 0 0 0 0 0 0 0 0 0.25 0"/>
<feBlend mode="normal" in2="BackgroundImageFix" result="effect1_dropShadow_584_95"/>
<feBlend mode="normal" in="SourceGraphic" in2="effect1_dropShadow_584_95" result="shape"/>
</filter>
</defs>
</svg>
