<svg width="48" height="50" viewBox="0 0 48 50" fill="none" xmlns="http://www.w3.org/2000/svg">
<path d="M21.0211 2.38205e-07C26.1253 -0.000748953 31.0553 1.76576 34.8912 4.96984C38.727 8.17392 41.2064 12.5966 41.8668 17.4125L47.7784 26.26C48.1672 26.8425 48.0884 27.71 47.1872 28.08L42.0402 30.175V37.5C42.0402 38.8261 41.4866 40.0979 40.5011 41.0355C39.5156 41.9732 38.1791 42.5 36.7854 42.5H31.5333L31.5307 50H7.88426V40.765C7.88426 37.815 6.73872 35.0225 4.61317 32.5025C2.1374 29.5611 0.585344 26.0141 0.135836 22.27C-0.313673 18.5259 0.357656 14.7372 2.07247 11.3403C3.78729 7.94341 6.47581 5.07664 9.82827 3.07029C13.1807 1.06393 17.0607 -0.000377927 21.0211 2.38205e-07ZM19.6286 14.4075C18.7616 13.6104 17.6003 13.1692 16.3947 13.1789C15.1892 13.1887 14.0358 13.6486 13.1832 14.4596C12.3305 15.2705 11.8467 16.3678 11.836 17.5149C11.8253 18.662 12.2885 19.7672 13.1259 20.5925L21.0211 28.1075L28.9164 20.5925C29.3555 20.1888 29.7057 19.706 29.9465 19.1722C30.1874 18.6384 30.3141 18.0643 30.3193 17.4834C30.3245 16.9025 30.208 16.3264 29.9767 15.7888C29.7454 15.2511 29.4039 14.7627 28.9721 14.352C28.5403 13.9413 28.0269 13.6166 27.4617 13.3967C26.8966 13.1768 26.2912 13.0662 25.6806 13.0714C25.0701 13.0766 24.4668 13.1974 23.9059 13.4268C23.345 13.6562 22.8377 13.9896 22.4137 14.4075L21.0211 15.7325L19.6286 14.4075Z" fill="#3A3A3A"/>
</svg>
