<svg width="30" height="36" viewBox="0 0 30 36" fill="none" xmlns="http://www.w3.org/2000/svg">
<path d="M14.6868 0.0316437C14.8944 -0.0105479 15.1086 -0.0105479 15.3162 0.0316437L28.7077 2.84442C29.4576 2.99912 30 3.69528 30 4.49692C30 5.29856 29.4576 5.99473 28.7077 6.14943L23.5721 7.23235V11.2476C23.5721 16.2192 19.7354 20.2485 15.0015 20.2485C10.2676 20.2485 6.43091 16.2192 6.43091 11.2476V7.23235L3.21695 6.55728V11.1351L4.26818 16.6481C4.32844 16.9786 4.24809 17.3232 4.04722 17.5834C3.84635 17.8435 3.53834 17.9982 3.21695 17.9982H1.0743C0.752906 17.9982 0.451597 17.8506 0.244028 17.5834C0.0364595 17.3161 -0.0438897 16.9786 0.0230679 16.6481L1.0743 11.1351V6.08614C0.438205 5.85409 0.00298064 5.22121 0.00298064 4.49692C0.00298064 3.69528 0.545337 2.99912 1.29526 2.84442L14.6868 0.0316437ZM7.49554 23.0401C8.1986 22.8011 8.95522 23.0683 9.46409 23.6379L14.2181 28.947C14.6399 29.4181 15.3564 29.4181 15.7782 28.947L20.5322 23.6379C21.0411 23.0683 21.7977 22.8011 22.5007 23.0401C26.853 24.5098 30 28.7852 30 33.8412C30 35.0366 29.076 36 27.9444 36H2.05858C0.926996 36 0.00298064 35.0296 0.00298064 33.8412C0.00298064 28.7852 3.14999 24.5098 7.49554 23.0401Z" fill="#E36CC5"/>
</svg>
