<svg width="71" height="88" viewBox="0 0 71 88" fill="none" xmlns="http://www.w3.org/2000/svg">
<path d="M3 7.57871C3 6.36436 3.34241 5.19975 3.9519 4.34107C4.5614 3.4824 5.38805 3 6.25 3H38.75C39.612 3 40.4386 3.4824 41.0481 4.34107C41.6576 5.19975 42 6.36436 42 7.57871V85.4168H6.25C5.38805 85.4168 4.5614 84.9344 3.9519 84.0757C3.34241 83.2171 3 82.0524 3 80.8381V7.57871Z" stroke="#E36CC5" stroke-width="5" stroke-linejoin="round"/>
<path d="M30.625 85.4168V64.8126C30.625 62.9911 30.1114 61.2442 29.1971 59.9561C28.2829 58.6681 27.0429 57.9445 25.75 57.9445H19.25C17.9571 57.9445 16.7171 58.6681 15.8029 59.9561C14.8886 61.2442 14.375 62.9911 14.375 64.8126V85.4168M42 44.2084H64.75C65.612 44.2084 66.4386 44.6908 67.0481 45.5495C67.6576 46.4082 68 47.5728 68 48.7871V80.8381C68 82.0524 67.6576 83.2171 67.0481 84.0757C66.4386 84.9344 65.612 85.4168 64.75 85.4168H42V44.2084Z" stroke="#E36CC5" stroke-width="5" stroke-linejoin="round"/>
<path d="M16 30.4723H29M51.75 57.9445H58.25M51.75 71.6807H58.25M22.5 21.3148V39.6297M7.875 85.4168H37.125" stroke="#E36CC5" stroke-width="5" stroke-linecap="round" stroke-linejoin="round"/>
</svg>
