<svg width="79" height="44" viewBox="0 0 79 44" fill="none" xmlns="http://www.w3.org/2000/svg">
<path d="M79 7.33333C79 11.3667 75.7682 14.6667 71.8182 14.6667C71.1985 14.6765 70.581 14.59 69.9868 14.41L57.2032 27.4267C57.3827 28.0133 57.4545 28.6733 57.4545 29.3333C57.4545 33.3667 54.2227 36.6667 50.2727 36.6667C46.3227 36.6667 43.0909 33.3667 43.0909 29.3333C43.0909 28.6733 43.1627 28.0133 43.3423 27.4267L34.1855 18.0767C33.6109 18.26 32.9645 18.3333 32.3182 18.3333C31.6718 18.3333 31.0255 18.26 30.4509 18.0767L14.1123 34.7967C14.2918 35.3833 14.3636 36.0067 14.3636 36.6667C14.3636 40.7 11.1318 44 7.18182 44C3.23182 44 0 40.7 0 36.6667C0 32.6333 3.23182 29.3333 7.18182 29.3333C7.82818 29.3333 8.43864 29.4067 9.01318 29.59L25.3877 12.9067C25.2082 12.32 25.1364 11.66 25.1364 11C25.1364 6.96667 28.3682 3.66667 32.3182 3.66667C36.2682 3.66667 39.5 6.96667 39.5 11C39.5 11.66 39.4282 12.32 39.2486 12.9067L48.4055 22.2567C48.98 22.0733 49.6264 22 50.2727 22C50.9191 22 51.5655 22.0733 52.14 22.2567L64.8877 9.20333C64.7115 8.59664 64.6267 7.96608 64.6364 7.33333C64.6364 3.3 67.8682 0 71.8182 0C75.7682 0 79 3.3 79 7.33333Z" fill="#3A3A3A"/>
</svg>
