<svg width="30" height="30" viewBox="0 0 30 30" fill="none" xmlns="http://www.w3.org/2000/svg">
<path d="M28.8 0H1.2C0.53625 0 0 0.53625 0 1.2V28.8C0 29.4638 0.53625 30 1.2 30H28.8C29.4638 30 30 29.4638 30 28.8V1.2C30 0.53625 29.4638 0 28.8 0ZM10.05 21.9C9.22125 21.9 8.55 21.2288 8.55 20.4C8.55 19.5713 9.22125 18.9 10.05 18.9C10.8788 18.9 11.55 19.5713 11.55 20.4C11.55 21.2288 10.8788 21.9 10.05 21.9ZM10.05 16.5C9.22125 16.5 8.55 15.8288 8.55 15C8.55 14.1713 9.22125 13.5 10.05 13.5C10.8788 13.5 11.55 14.1713 11.55 15C11.55 15.8288 10.8788 16.5 10.05 16.5ZM10.05 11.1C9.22125 11.1 8.55 10.4288 8.55 9.6C8.55 8.77125 9.22125 8.1 10.05 8.1C10.8788 8.1 11.55 8.77125 11.55 9.6C11.55 10.4288 10.8788 11.1 10.05 11.1ZM21.45 21.3C21.45 21.465 21.315 21.6 21.15 21.6H14.25C14.085 21.6 13.95 21.465 13.95 21.3V19.5C13.95 19.335 14.085 19.2 14.25 19.2H21.15C21.315 19.2 21.45 19.335 21.45 19.5V21.3ZM21.45 15.9C21.45 16.065 21.315 16.2 21.15 16.2H14.25C14.085 16.2 13.95 16.065 13.95 15.9V14.1C13.95 13.935 14.085 13.8 14.25 13.8H21.15C21.315 13.8 21.45 13.935 21.45 14.1V15.9ZM21.45 10.5C21.45 10.665 21.315 10.8 21.15 10.8H14.25C14.085 10.8 13.95 10.665 13.95 10.5V8.7C13.95 8.535 14.085 8.4 14.25 8.4H21.15C21.315 8.4 21.45 8.535 21.45 8.7V10.5Z" fill="#E36CC5"/>
</svg>
