<svg width="30" height="30" viewBox="0 0 30 30" fill="none" xmlns="http://www.w3.org/2000/svg">
<path d="M6 18H10.6125L18.075 10.5C18.3 10.275 18.469 10.0185 18.582 9.7305C18.695 9.4425 18.751 9.1615 18.75 8.8875C18.749 8.6135 18.693 8.345 18.582 8.082C18.471 7.819 18.3145 7.575 18.1125 7.35L16.725 5.925C16.5 5.7 16.25 5.5315 15.975 5.4195C15.7 5.3075 15.4125 5.251 15.1125 5.25C14.8375 5.25 14.5625 5.3065 14.2875 5.4195C14.0125 5.5325 13.7625 5.701 13.5375 5.925L6 13.3875V18ZM15.075 10.35L13.65 8.9625L15.1125 7.5L16.5 8.925L15.075 10.35ZM13.8 18H24V15H16.8L13.8 18ZM0 30V3C0 2.175 0.294 1.469 0.882 0.882C1.47 0.295 2.176 0.001 3 0H27C27.825 0 28.5315 0.294 29.1195 0.882C29.7075 1.47 30.001 2.176 30 3V21C30 21.825 29.7065 22.5315 29.1195 23.1195C28.5325 23.7075 27.826 24.001 27 24H6L0 30Z" fill="#E36CC5"/>
</svg>
