<svg width="28" height="22" viewBox="0 0 28 22" fill="none" xmlns="http://www.w3.org/2000/svg">
<path d="M3.33362 0.833328H24.6666C25.8571 0.833329 26.8336 1.8098 26.8336 3.00032V19.0003C26.8334 20.1907 25.857 21.1663 24.6666 21.1663H3.33362C2.1432 21.1663 1.1668 20.1907 1.16663 19.0003V3.00032C1.16663 1.88417 2.02466 0.956603 3.11292 0.845047L3.33362 0.833328ZM24.402 5.24251L13.9996 11.7435L3.59827 5.24251L2.83362 4.76497V19.5003H25.1666V4.76497L24.402 5.24251ZM3.06799 3.42415L13.735 10.0911L13.9996 10.2562L14.2653 10.0911L24.9313 3.42415L26.4098 2.50032H1.58948L3.06799 3.42415Z" fill="#343434" stroke="#343434"/>
</svg>
