<svg width="45" height="45" viewBox="0 0 45 45" fill="none" xmlns="http://www.w3.org/2000/svg">
<circle cx="22.5" cy="22.5" r="22.5" fill="#928D8D" fill-opacity="0.63"/>
<path d="M23.244 15C23.778 15.003 25.114 15.016 26.534 15.073L27.038 15.095C28.467 15.162 29.895 15.278 30.604 15.475C31.549 15.741 32.291 16.515 32.542 17.497C32.942 19.057 32.992 22.099 32.998 22.836L32.999 22.988V23.162C32.992 23.899 32.942 26.942 32.542 28.501C32.288 29.486 31.545 30.261 30.604 30.523C29.895 30.72 28.467 30.836 27.038 30.903L26.534 30.926C25.114 30.982 23.778 30.996 23.244 30.998L23.009 30.999H22.754C21.624 30.992 16.898 30.941 15.394 30.523C14.45 30.257 13.707 29.483 13.456 28.501C13.056 26.941 13.006 23.899 13 23.162V22.836C13.006 22.099 13.056 19.056 13.456 17.497C13.71 16.512 14.453 15.737 15.395 15.476C16.898 15.057 21.625 15.006 22.755 15H23.244ZM20.999 19.5V26.5L26.999 23L20.999 19.5Z" fill="white"/>
</svg>
