<svg width="34" height="34" viewBox="0 0 34 34" fill="none" xmlns="http://www.w3.org/2000/svg">
<path fill-rule="evenodd" clip-rule="evenodd" d="M16.6667 33.3333C25.8717 33.3333 33.3333 25.8717 33.3333 16.6667C33.3333 7.46167 25.8717 0 16.6667 0C7.46167 0 0 7.46167 0 16.6667C0 25.8717 7.46167 33.3333 16.6667 33.3333ZM25.6183 11.3917C25.6963 11.3113 25.7573 11.2161 25.7977 11.1117C25.838 11.0073 25.8569 10.8958 25.8533 10.784C25.8496 10.6721 25.8234 10.5621 25.7763 10.4605C25.7292 10.359 25.6621 10.268 25.5791 10.1929C25.496 10.1179 25.3987 10.0603 25.2929 10.0237C25.1871 9.98711 25.075 9.97219 24.9634 9.97985C24.8517 9.98751 24.7427 10.0176 24.6429 10.0683C24.5431 10.119 24.4545 10.1893 24.3825 10.275L14.4 21.3058L8.90833 16.0633C8.74854 15.9106 8.53462 15.8276 8.31364 15.8326C8.09266 15.8376 7.88272 15.9302 7.73 16.09C7.57728 16.2498 7.49429 16.4637 7.49929 16.6847C7.50429 16.9057 7.59687 17.1156 7.75667 17.2683L13.8683 23.1017L14.4875 23.6933L15.0617 23.0583L25.6183 11.3917Z" fill="#7DDE86"/>
</svg>
