<svg width="70" height="65" viewBox="0 0 70 65" fill="none" xmlns="http://www.w3.org/2000/svg">
<ellipse cx="35.0754" cy="32.0195" rx="34.1286" ry="32" fill="white"/>
<g clip-path="url(#clip0_410_506)">
<path fill-rule="evenodd" clip-rule="evenodd" d="M32.6404 18.0636L33.4916 20.1657C33.5172 20.2289 33.5768 20.2695 33.6488 20.2728L36.0439 20.3822C36.2069 20.3896 36.2735 20.5821 36.1464 20.6779L34.2773 22.0865C34.2211 22.1288 34.1984 22.1945 34.2173 22.2597L34.8464 24.4293C34.8892 24.5769 34.7147 24.6958 34.5782 24.612L32.5718 23.3806C32.5115 23.3435 32.4379 23.3435 32.3776 23.3806L30.3712 24.612C30.2348 24.6958 30.0602 24.5769 30.103 24.4293L30.7321 22.2596C30.751 22.1944 30.7283 22.1287 30.6721 22.0864L28.803 20.6778C28.6759 20.582 28.7426 20.3896 28.9055 20.3821L31.3007 20.2727C31.3727 20.2694 31.4322 20.2288 31.4578 20.1656L32.309 18.0636C32.3665 17.9215 32.5829 17.9215 32.6404 18.0636ZM44.221 35.8664C47.2296 35.8664 49.6686 38.1533 49.6686 40.9742C49.6686 43.7952 47.2296 46.082 44.221 46.082C41.2124 46.082 38.7734 43.7952 38.7734 40.9742C38.7734 38.1533 41.2124 35.8664 44.221 35.8664ZM43.5055 41.4247L42.2883 40.2835C41.9728 39.9877 41.4611 39.9877 41.1456 40.2835C40.8301 40.5792 40.8301 41.0591 41.1456 41.3548L42.9359 43.0335C43.2513 43.3293 43.7631 43.3293 44.0785 43.0335C45.1576 42.0217 46.2245 40.9985 47.2986 39.982C47.6118 39.6856 47.6108 39.2073 47.2951 38.9129C46.9794 38.6185 46.4679 38.6193 46.1543 38.9163L43.5055 41.4247ZM23.5094 43.3404L38.2864 43.3404C37.9564 42.6136 37.7736 41.8139 37.7736 40.9742C37.7736 39.6971 38.1964 38.5128 38.9173 37.5368C37.2055 36.1057 34.9487 35.2358 32.4748 35.2358C27.7128 35.2358 23.7538 38.4582 22.9418 42.7041C22.8779 43.0377 23.148 43.3404 23.5094 43.3404ZM32.4748 25.4663C35.1794 25.4663 37.372 27.5221 37.372 30.0581C37.372 32.594 35.1794 34.6498 32.4748 34.6498C29.7702 34.6498 27.5776 32.594 27.5776 30.0581C27.5776 27.5221 29.7701 25.4663 32.4748 25.4663ZM40.8911 21.039C40.8335 20.8969 40.6171 20.8969 40.5595 21.039L39.7083 23.1411C39.6828 23.2043 39.6231 23.2449 39.5511 23.2481L37.156 23.3576C36.9931 23.365 36.9264 23.5575 37.0535 23.6533L38.9226 25.0619C38.9788 25.1042 39.0015 25.1698 38.9826 25.2351L38.3535 27.4048C38.3107 27.5524 38.4852 27.6713 38.6217 27.5875L40.6281 26.356C40.6884 26.319 40.762 26.319 40.8223 26.356L42.8287 27.5875C42.9652 27.6713 43.1397 27.5523 43.0969 27.4048L42.4677 25.2351C42.4488 25.1699 42.4716 25.1043 42.5277 25.0619L44.3969 23.6533C44.524 23.5575 44.4573 23.3651 44.2944 23.3577L41.8992 23.2482C41.8272 23.2449 41.7677 23.2043 41.742 23.1411L40.8911 21.039ZM24.3897 21.039C24.3322 20.8969 24.1157 20.8969 24.0582 21.039L23.207 23.1411C23.1815 23.2043 23.1219 23.2449 23.0499 23.2481L20.6547 23.3576C20.4918 23.365 20.4251 23.5575 20.5522 23.6533L22.4213 25.0619C22.4775 25.1042 22.5003 25.1698 22.4813 25.2351L21.8522 27.4048C21.8094 27.5524 21.984 27.6713 22.1204 27.5875L24.1268 26.356C24.1871 26.319 24.2607 26.319 24.321 26.356L26.3274 27.5875C26.4639 27.6713 26.6384 27.5523 26.5956 27.4048L25.9665 25.2351C25.9476 25.1699 25.9703 25.1043 26.0265 25.0619L27.8956 23.6533C28.0227 23.5575 27.9561 23.3651 27.7932 23.3577L25.398 23.2482C25.326 23.2449 25.2664 23.2043 25.2408 23.1411L24.3897 21.039Z" fill="#034833"/>
</g>
<defs>
<clipPath id="clip0_410_506">
<rect width="31.9956" height="30" fill="white" transform="translate(19.0776 17.0195)"/>
</clipPath>
</defs>
</svg>
