<svg width="69" height="64" viewBox="0 0 69 64" fill="none" xmlns="http://www.w3.org/2000/svg">
<ellipse cx="34.1242" cy="32" rx="34.1286" ry="32" fill="white"/>
<g clip-path="url(#clip0_410_513)">
<path d="M48.1658 35.7294V33.8359H38.8565C38.8565 36.286 36.7382 38.2722 34.1251 38.2722C31.512 38.2722 29.3938 36.286 29.3938 33.8359H20.0844V35.7294L24.1269 36.1308C24.379 37.0999 24.7873 38.0117 25.3253 38.8414L22.7689 41.8061L25.6248 44.4839L28.7867 42.0869C29.6715 42.5914 30.644 42.9742 31.6776 43.2106L32.1057 47.0009H36.1445L36.5726 43.2106C37.6062 42.9742 38.5787 42.5914 39.4636 42.0869L42.6254 44.4839L45.4813 41.8061L42.9249 38.8414C43.4629 38.0117 43.8712 37.0999 44.1233 36.1308L48.1658 35.7294Z" fill="#034833"/>
<path d="M34.1262 17C32.1265 17 30.4996 18.5254 30.4996 20.4004C30.4996 22.2753 32.1265 23.8007 34.1262 23.8007C36.1259 23.8007 37.7528 22.2753 37.7528 20.4004C37.7528 18.5254 36.1259 17 34.1262 17Z" fill="#034833"/>
<path d="M37.9883 24.7422H30.266C28.4882 24.7422 27.0418 26.0983 27.0418 27.7653V32.0786H41.2125V27.7653C41.2125 26.0983 39.7661 24.7422 37.9883 24.7422Z" fill="#034833"/>
<path d="M26.4327 18.5703C24.6414 18.5703 23.184 19.9368 23.184 21.6164C23.184 23.2825 24.6182 24.6397 26.3898 24.6615C27.1234 23.8569 28.1357 23.2826 29.2858 23.072C29.5379 22.6392 29.6815 22.1433 29.6815 21.6164C29.6815 19.9368 28.2241 18.5703 26.4327 18.5703Z" fill="#034833"/>
<path d="M22.9727 25.5078C21.3801 25.5078 20.0844 26.7226 20.0844 28.216V32.0799H25.165V27.7665C25.165 26.95 25.3849 26.1809 25.7714 25.5078H22.9727Z" fill="#034833"/>
<path d="M41.8181 18.5703C40.0267 18.5703 38.5694 19.9368 38.5694 21.6164C38.5694 22.1432 38.7128 22.6392 38.9649 23.072C40.1151 23.2826 41.1274 23.8569 41.861 24.6615C43.6326 24.6398 45.0668 23.2825 45.0668 21.6164C45.0668 19.9368 43.6095 18.5703 41.8181 18.5703Z" fill="#034833"/>
<path d="M45.2758 25.5078H42.4772C42.8637 26.1809 43.0835 26.95 43.0835 27.7665V32.0799H48.1641V28.2159C48.1641 26.7226 46.8684 25.5078 45.2758 25.5078Z" fill="#034833"/>
</g>
<defs>
<clipPath id="clip0_410_513">
<rect width="31.9956" height="30" fill="white" transform="translate(18.1264 17)"/>
</clipPath>
</defs>
</svg>
