<svg width="69" height="64" viewBox="0 0 69 64" fill="none" xmlns="http://www.w3.org/2000/svg">
<ellipse cx="34.2749" cy="32" rx="34.1286" ry="32" fill="white"/>
<path d="M47.8199 42.4901C47.8199 42.4901 44.2687 36.7674 43.6317 35.741C44.3565 35.5337 45.1285 35.3506 45.4493 34.8313C45.9839 33.9659 45.0323 32.5463 45.2822 31.6188C45.5396 30.6642 47.0591 29.8381 47.0591 28.8678C47.0591 27.9224 45.4882 26.8179 45.2306 25.8689C44.979 24.9415 45.9277 23.5204 45.3914 22.6561C44.8551 21.7917 43.0686 21.8627 42.3332 21.1992C41.5766 20.5164 41.5789 18.8459 40.6663 18.3883C39.7499 17.929 38.2606 18.8572 37.2432 18.6373C36.2373 18.42 35.3387 17 34.2881 17C33.2219 17 31.526 18.6107 31.2601 18.6687C30.2431 18.8904 28.752 17.9644 27.8365 18.4257C26.9248 18.8848 26.9304 20.5555 26.1751 21.2394C25.4409 21.9041 23.6544 21.8362 23.1197 22.7016C22.5851 23.5668 23.5367 24.986 23.2869 25.9141C23.0364 26.8444 21.464 27.7872 21.464 28.8631C21.464 29.8336 22.9873 30.657 23.2463 31.6112C23.498 32.5386 22.5492 33.9595 23.0855 34.8242C23.3775 35.2948 24.04 35.488 24.7017 35.6737C24.7789 35.6954 24.9249 35.7763 24.826 35.9115C24.3734 36.6441 20.7302 42.5396 20.7302 42.5396C20.4403 43.0085 20.6757 43.4104 21.253 43.4332L24.0789 43.5437C24.6563 43.5665 25.3805 43.9599 25.6887 44.4182L27.1966 46.6618C27.5048 47.1201 27.9937 47.1115 28.2835 46.6426C28.2835 46.6426 32.5027 39.8126 32.5045 39.8107C32.5891 39.7179 32.6742 39.737 32.7149 39.7694C33.1766 40.138 33.8201 40.5056 34.3572 40.5056C34.884 40.5056 35.3717 40.1595 35.8542 39.7735C35.8935 39.7422 35.989 39.6779 36.0589 39.8113C36.06 39.8134 40.2746 46.6061 40.2746 46.6061C40.5651 47.0743 41.0541 47.0823 41.3613 46.6234L42.8651 44.3771C43.1724 43.9185 43.8958 43.5236 44.4731 43.5L47.2988 43.3846C47.8759 43.3608 48.1105 42.9583 47.8199 42.4901ZM38.9583 36.3464C35.8338 38.0508 32.0834 37.8681 29.2188 36.1739C25.0213 33.653 23.6402 28.4381 26.1635 24.3546C28.7156 20.2239 34.3258 18.7664 38.7708 21.0363C38.7942 21.0483 38.8173 21.0606 38.8405 21.0727C38.8734 21.0899 38.9063 21.1072 38.939 21.1247C40.3104 21.866 41.4995 22.942 42.351 24.3143C44.9535 28.5086 43.4316 33.9063 38.9583 36.3464Z" fill="#034833"/>
<path d="M38.2438 22.3585C38.2308 22.3514 38.2177 22.3449 38.2047 22.3379C35.8302 21.0493 32.8038 20.9551 30.2673 22.3388C26.5033 24.392 25.2225 28.9336 27.4123 32.4628C28.0805 33.5397 28.9962 34.3994 30.0526 35.0164C30.1424 35.0697 30.2333 35.1222 30.3262 35.1726C34.0942 37.2194 38.9353 36.0103 41.1182 32.4774C43.3011 28.9444 42.0119 24.4053 38.2438 22.3585ZM39.1864 28.1341L37.8671 29.3399C37.4584 29.7134 37.203 30.4505 37.2996 30.9778L37.611 32.6804C37.7075 33.2078 37.3733 33.4355 36.8681 33.1866L35.2373 32.3827C34.7322 32.1337 33.9057 32.1337 33.4005 32.3827L31.7698 33.1866C31.2647 33.4355 30.9303 33.2078 31.0268 32.6804L31.3383 30.9778C31.4348 30.4505 31.1793 29.7134 30.7707 29.3399L29.4514 28.1341C29.0427 27.7607 29.1705 27.3922 29.7352 27.3152L31.5584 27.0667C32.1231 26.9898 32.7918 26.5343 33.0444 26.0545L33.8598 24.5054C34.1123 24.0256 34.5256 24.0256 34.7781 24.5054L35.5936 26.0545C35.8461 26.5343 36.5148 26.9898 37.0795 27.0667L38.9027 27.3152C39.4674 27.3922 39.5951 27.7607 39.1864 28.1341Z" fill="#034833"/>
</svg>
