<svg width="69" height="65" viewBox="0 0 69 65" fill="none" xmlns="http://www.w3.org/2000/svg">
<ellipse cx="34.1242" cy="32.0195" rx="34.1286" ry="32" fill="white"/>
<g clip-path="url(#clip0_410_538)">
<path d="M30.3122 31.1406C30.829 31.1406 31.2495 31.535 31.2495 32.0195C31.2495 32.5041 30.829 32.8984 30.3122 32.8984C29.7954 32.8984 29.3748 32.5041 29.3748 32.0195C29.3748 31.535 29.7954 31.1406 30.3122 31.1406Z" fill="#034833"/>
<path d="M31.2495 27.7129V29.534C30.9565 29.4361 30.6409 29.3828 30.3122 29.3828C28.7618 29.3828 27.5001 30.5658 27.5001 32.0195C27.5001 33.4732 28.7618 34.6562 30.3122 34.6562C30.6409 34.6562 30.9565 34.6029 31.2495 34.5051V36.3262C30.9427 36.3848 30.629 36.4141 30.3122 36.4141C27.7282 36.4141 25.6253 34.4424 25.6253 32.0195C25.6253 29.5967 27.7282 27.625 30.3122 27.625C30.629 27.625 30.9427 27.6543 31.2495 27.7129Z" fill="#034833"/>
<path d="M23.7506 32.0195C23.7506 35.4121 26.6939 38.1719 30.3122 38.1719C30.6278 38.1719 30.9408 38.1514 31.2495 38.1092V43.4453H28.4374C27.92 43.4453 27.5001 43.0516 27.5001 42.5664V41.3219C26.7333 41.1174 25.994 40.8279 25.2897 40.457L24.3467 41.3418C23.9805 41.6852 23.3875 41.6852 23.0213 41.3418L20.3698 38.8557C20.0035 38.5122 20.0049 37.955 20.3698 37.6129L21.3134 36.7281C20.9172 36.0684 20.6091 35.3752 20.391 34.6562H19.0637C18.5463 34.6562 18.1264 34.2625 18.1264 33.7773V30.2617C18.1264 29.7766 18.5463 29.3828 19.0637 29.3828H20.391C20.6091 28.6639 20.9172 27.9707 21.3134 27.3104L20.3698 26.4262C20.0049 26.084 20.0035 25.5269 20.3698 25.1834L23.0213 22.6973C23.3875 22.3539 23.9805 22.3539 24.3467 22.6973L25.2904 23.582C25.994 23.2105 26.7333 22.9217 27.5001 22.7172V21.4727C27.5001 20.9875 27.92 20.5938 28.4374 20.5938H31.2495V25.9299C30.9408 25.8877 30.6278 25.8672 30.3122 25.8672C26.6939 25.8672 23.7506 28.627 23.7506 32.0195Z" fill="#034833"/>
<path d="M44.4977 21.1082V25.8672H49.5733L44.4977 21.1082ZM35.9364 25.8672H39.8109C40.3283 25.8672 40.7482 26.2609 40.7482 26.7461C40.7482 27.2312 40.3283 27.625 39.8109 27.625H35.9364C35.419 27.625 34.999 27.2312 34.999 26.7461C34.999 26.2609 35.419 25.8672 35.9364 25.8672ZM45.4351 38.1719H35.9364C35.419 38.1719 34.999 37.7781 34.999 37.293C34.999 36.8078 35.419 36.4141 35.9364 36.4141H45.4351C45.9525 36.4141 46.3724 36.8078 46.3724 37.293C46.3724 37.7781 45.9525 38.1719 45.4351 38.1719ZM45.4351 34.6562H35.9364C35.419 34.6562 34.999 34.2625 34.999 33.7773C34.999 33.2922 35.419 32.8984 35.9364 32.8984H45.4351C45.9525 32.8984 46.3724 33.2922 46.3724 33.7773C46.3724 34.2625 45.9525 34.6562 45.4351 34.6562ZM45.4351 31.1406H35.9364C35.419 31.1406 34.999 30.7469 34.999 30.2617C34.999 29.7766 35.419 29.3828 35.9364 29.3828H45.4351C45.9525 29.3828 46.3724 29.7766 46.3724 30.2617C46.3724 30.7469 45.9525 31.1406 45.4351 31.1406ZM43.5603 27.625C43.0429 27.625 42.623 27.2312 42.623 26.7461V20.5938H33.1243V43.4453H49.1846C49.702 43.4453 50.1219 43.0516 50.1219 42.5664V27.625H43.5603Z" fill="#034833"/>
</g>
<defs>
<clipPath id="clip0_410_538">
<rect width="31.9956" height="30" fill="white" transform="translate(18.1264 17.0195)"/>
</clipPath>
</defs>
</svg>
