<svg width="72" height="72" viewBox="0 0 72 72" fill="none" xmlns="http://www.w3.org/2000/svg">
<path d="M66.525 31.575C67.075 32.175 67.35 32.888 67.35 33.714C67.35 34.54 67.075 35.252 66.525 35.85L55.875 46.425C55.325 47.025 54.625 47.325 53.775 47.325C52.925 47.325 52.225 47.025 51.675 46.425L47.4 42.225C46.8 41.625 46.5 40.913 46.5 40.089C46.5 39.265 46.8 38.552 47.4 37.95C48 37.4 48.713 37.125 49.539 37.125C50.365 37.125 51.077 37.4 51.675 37.95L53.775 40.05L62.25 31.575C62.85 31.025 63.562 30.75 64.386 30.75C65.21 30.75 65.923 31.025 66.525 31.575ZM30.975 61.275L23.475 54.45C19.875 51.2 16.788 48.3 14.214 45.75C11.64 43.2 9.515 40.8 7.839 38.55C6.163 36.3 4.938 34.125 4.164 32.025C3.39 29.925 3.002 27.725 3 25.425C3 20.725 4.575 16.813 7.725 13.689C10.875 10.565 14.8 9.002 19.5 9C22.1 9 24.575 9.538 26.925 10.614C29.275 11.69 31.3 13.227 33 15.225C34.7 13.225 36.725 11.688 39.075 10.614C41.425 9.54 43.9 9.002 46.5 9C50.75 9 54.313 10.288 57.189 12.864C60.065 15.44 61.852 18.452 62.55 21.9C61.55 21.5 60.5 21.25 59.4 21.15C58.3 21.05 57.175 21 56.025 21C51.775 21 47.875 22.713 44.325 26.139C40.775 29.565 39 33.852 39 39C39 41.4 39.525 43.838 40.575 46.314C41.625 48.79 43.1 50.802 45 52.35C44.05 53.2 42.813 54.288 41.289 55.614C39.765 56.94 38.452 58.102 37.35 59.1L34.95 61.275C34.4 61.775 33.737 62.025 32.961 62.025C32.185 62.025 31.523 61.775 30.975 61.275Z" fill="#3A3A3A"/>
</svg>
