<svg width="30" height="40" viewBox="0 0 30 40" fill="none" xmlns="http://www.w3.org/2000/svg">
<path d="M15 19C13.5792 19 12.2166 18.4732 11.2119 17.5355C10.2073 16.5979 9.64286 15.3261 9.64286 14C9.64286 12.6739 10.2073 11.4021 11.2119 10.4645C12.2166 9.52678 13.5792 9 15 9C16.4208 9 17.7834 9.52678 18.7881 10.4645C19.7927 11.4021 20.3571 12.6739 20.3571 14C20.3571 14.6566 20.2186 15.3068 19.9494 15.9134C19.6801 16.52 19.2855 17.0712 18.7881 17.5355C18.2906 17.9998 17.7 18.3681 17.0501 18.6194C16.4001 18.8707 15.7035 19 15 19ZM15 0C11.0218 0 7.20644 1.475 4.3934 4.1005C1.58035 6.72601 0 10.287 0 14C0 24.5 15 40 15 40C15 40 30 24.5 30 14C30 10.287 28.4196 6.72601 25.6066 4.1005C22.7936 1.475 18.9782 0 15 0Z" fill="#E36CC5"/>
</svg>
