<svg width="120" height="120" viewBox="0 0 120 120" fill="none" xmlns="http://www.w3.org/2000/svg">
<circle opacity="0.9" cx="60" cy="60" r="59" stroke="#E36CC5" stroke-width="2"/>
<path d="M74.9975 37.5C75.292 37.4998 75.5824 37.5689 75.8451 37.7018C76.1079 37.8347 76.3357 38.0277 76.51 38.265L76.6475 38.4825L84.805 53.5525L84.9 53.785L84.93 53.885L84.98 54.14L84.995 54.375C84.9937 54.5438 84.971 54.7119 84.9275 54.875L84.81 55.1875L84.715 55.36L84.615 55.505L84.5275 55.615L84.575 55.5525L81.39 59.1675C80.3107 58.3836 79.0665 57.8569 77.7525 57.6275L78.9675 56.25H71.53L61.75 81.3075C61.6124 81.6595 61.3718 81.9617 61.0595 82.1745C60.7472 82.3873 60.3779 82.5007 60 82.5H59.9925C59.9148 82.4986 59.8372 82.4936 59.76 82.485H59.75L59.7375 82.4825C59.6507 82.4679 59.5648 82.4487 59.48 82.425L59.455 82.42C59.302 82.3767 59.1557 82.3128 59.02 82.23L58.9975 82.2125C58.8792 82.1391 58.7701 82.0518 58.6725 81.9525L35.4475 55.5875L35.3825 55.5075L35.2825 55.36C35.1412 55.1311 35.0508 54.8744 35.0175 54.6075L35 54.375L35.0075 54.21L35.04 53.9875L35.1 53.7725L35.155 53.625L35.225 53.4825L43.35 38.4825C43.4901 38.2236 43.6891 38.0014 43.931 37.8338C44.173 37.6661 44.4509 37.5578 44.7425 37.5175L44.9975 37.5H74.9975ZM67.505 56.25H52.495L59.995 75.4675L60 75.46V75.47L67.505 56.25ZM48.4725 56.25H41.0225L54.4 71.435L48.4725 56.25ZM52.4275 41.25H46.1125L40.0175 52.5H48.8275L52.4275 41.25ZM63.6275 41.25H56.365L52.7625 52.5H67.225L63.6275 41.25ZM73.8775 41.25H67.565L71.165 52.5H79.97L73.8775 41.25ZM82.5 66.25C82.5 67.9076 81.8415 69.4973 80.6694 70.6694C79.4973 71.8415 77.9076 72.5 76.25 72.5C74.5924 72.5 73.0027 71.8415 71.8306 70.6694C70.6585 69.4973 70 67.9076 70 66.25C70 64.5924 70.6585 63.0027 71.8306 61.8306C73.0027 60.6585 74.5924 60 76.25 60C77.9076 60 79.4973 60.6585 80.6694 61.8306C81.8415 63.0027 82.5 64.5924 82.5 66.25ZM87.5 79.6875C87.5 83.5775 84.285 87.5 76.25 87.5C68.215 87.5 65 83.5925 65 79.6875V79.43C65 76.98 66.985 75 69.4325 75H83.0675C85.5175 75 87.5 76.9825 87.5 79.43V79.6875Z" fill="#E36CC5"/>
</svg>
