<svg width="1440" height="420" viewBox="0 0 1440 420" fill="none" xmlns="http://www.w3.org/2000/svg">
<rect width="1440" height="420" fill="#E36CC5"/>
<g opacity="0.8" clip-path="url(#clip0_581_94)">
<path d="M1364.43 608.952H1363.93C1343.89 586.206 1324.23 562.924 1304.64 539.72C1239.98 463.132 1176.04 387.386 1101.15 334.659C928.475 213.084 697.505 213.938 265.263 608.952H264.719C697.338 213.515 928.527 212.682 1101.4 334.393C1176.33 387.149 1240.29 462.911 1304.96 539.516C1324.61 562.79 1344.33 586.144 1364.43 608.952ZM1381.46 608.952H1380.95C1355.37 582.352 1330.3 554.738 1305.27 527.166C1235.78 450.604 1166.52 374.288 1087.13 320.709C900.939 195.063 658.924 194.495 227.394 608.962H226.861C658.749 194.072 900.988 194.65 1087.37 320.438C1166.81 374.045 1236.08 450.375 1305.58 526.951C1330.68 554.606 1355.82 582.29 1381.46 608.952ZM1401.52 608.952H1400.98C1369.48 578.838 1338.57 547.003 1307.58 515.099C1232.86 438.15 1157.73 360.787 1073.09 306.204C872.802 177.036 619.134 175.525 191.273 608.952H190.746C618.947 175.089 872.836 176.636 1073.33 305.928C1158.01 360.534 1233.15 437.913 1307.89 514.877C1338.95 546.866 1369.94 578.776 1401.52 608.952ZM1424.62 608.952H1424.07C1386.38 575.737 1349.22 539.808 1311.79 503.641C1231.27 425.803 1149.52 346.777 1058.69 291.003C843.803 159.049 577.962 157.274 156.961 608.952H156.451C577.769 156.85 843.838 158.644 1058.93 290.721C1149.79 346.522 1231.56 425.557 1312.1 503.411C1349.6 539.671 1386.85 575.672 1424.62 608.952ZM1440 600.097V600.574C1399.44 566.967 1359.05 530.164 1318.14 492.89C1231.09 413.568 1141.71 332.128 1043.48 274.922C813.655 141.079 535.249 139.988 124.512 608.952H124.01C535.035 139.562 813.664 140.682 1043.7 274.635C1141.97 331.865 1231.36 413.318 1318.43 492.645C1359.24 529.838 1399.54 566.557 1440.01 600.097H1440ZM1440 577.814V578.283C1402.72 548.355 1365.13 515.937 1326.93 482.988C1232.43 401.494 1134.09 316.694 1026.95 257.79C781.987 123.127 490.888 123.912 94.0239 608.952H93.5372C490.663 123.488 781.993 122.715 1027.16 257.501C1134.34 316.424 1232.69 401.236 1327.21 482.735C1365.32 515.61 1402.81 547.937 1440.01 577.826L1440 577.814ZM1440 555.471V555.935C1406.77 530.04 1372.97 502.351 1338.52 474.118C1235.47 389.675 1126.46 300.35 1008.51 239.467C748.449 105.227 444.837 109.332 65.581 608.952H65.1029C444.592 108.922 748.432 104.82 1008.71 239.173C1126.7 300.061 1235.72 389.412 1338.79 473.868C1373.16 502.024 1406.85 529.637 1440.01 555.471H1440ZM1440 533.076V533.533C1411.74 512.142 1382.88 489.572 1353.4 466.523C1240.53 378.287 1118.64 282.987 987.555 219.851C712.613 87.433 397.121 96.5275 39.2751 608.952H38.8114C396.879 96.1121 712.59 87.0305 987.748 219.55C1118.87 282.703 1240.78 378.011 1353.66 466.267C1383.05 489.245 1411.83 511.747 1440.01 533.076H1440ZM1440 510.63V511.082C1417.87 494.789 1395.25 477.841 1372.16 460.54C1248.12 367.598 1110.53 264.511 963.424 198.899C674.116 69.8658 347.919 85.8205 15.2789 608.952H14.8239C347.648 85.4155 674.082 69.4633 963.605 198.592C1110.76 264.225 1248.36 367.324 1372.42 460.279C1395.42 477.511 1417.95 494.397 1440.01 510.63H1440ZM1440 488.138V488.584C1425.47 478.168 1410.68 467.519 1395.63 456.639C1259.08 358.108 1102.16 244.872 935.465 176.644C634.686 53.5291 302.092 77.0485 0.0149326 597.927V597.153C302.127 76.6202 634.787 53.1886 935.635 176.332C1102.37 244.581 1259.32 357.832 1395.89 456.375C1410.84 467.167 1425.55 477.754 1440.01 488.138H1440ZM1440 465.604V466.045L1424.97 455.542C1274.88 350.634 1093.77 224.052 903.053 153.2C597.485 39.6798 267.178 69.3137 0.000536133 560.324V559.508C267.241 68.8957 597.601 39.3392 903.212 152.877C1093.99 223.752 1275.11 350.35 1425.22 455.276L1440 465.604ZM1440 443.032V443.47C1279.43 334.078 1076.46 198.868 865.625 128.77C558.122 26.5321 233.871 62.8945 0.0149326 519.972V519.131C233.957 62.4844 558.228 26.1993 865.769 128.447C1076.56 198.53 1279.45 333.663 1440.01 443.032H1440ZM1440 420.421V420.857C1270.66 308.24 1048.86 169.743 822.713 103.661C516.819 14.2745 202.937 57.4791 0.000536133 476.391V475.504C203.055 57.0482 516.938 13.9468 822.831 103.333C1048.94 169.412 1270.67 307.819 1440.01 420.421H1440ZM1440 397.781V398.209C1243.96 270.866 971.082 112.428 706.309 63.4855C429.728 12.3602 162.015 80.7869 0.0149326 428.96V428.045C162.142 80.3535 429.832 12.0325 706.39 63.1475C971.134 112.085 1243.95 270.443 1440.01 397.781H1440ZM1440 375.108V375.534C1240.21 248.665 954.188 92.9954 681.673 45.8846C406.311 -1.71635 144.767 61.5685 0.0149326 377.489V376.568C144.937 61.1403 406.446 -2.04654 681.768 45.5545C954.228 92.6498 1240.19 248.244 1440.01 375.108H1440ZM1440 352.404V352.83C1237 226.722 938.725 74.2801 659.048 28.6115C550.009 10.8095 443.8 9.23312 347.176 31.7823C250.552 54.3315 163.527 100.999 92.8229 179.678C57.5343 218.948 26.3151 266.191 0.0149326 322.388V321.475C26.2661 265.592 57.3759 218.574 92.5205 179.467C163.282 100.725 250.391 54.0168 347.087 31.4495C443.783 8.88223 550.04 10.4587 659.135 28.2736C938.76 73.9345 1236.97 226.307 1440.01 352.404H1440ZM1440 329.672V330.092C1223.51 198.45 891.98 40.4976 593.569 5.46897C491.21 -6.54351 392.749 -4.09772 304.169 18.8385C215.589 41.7747 136.907 85.1909 74.0568 155.117C46.0431 186.291 21.1829 222.736 -0.00234668 264.981V264.111C21.1167 222.148 45.8732 185.924 73.7429 154.902C136.636 84.9174 215.399 41.4626 304.045 18.5083C392.691 -4.44596 491.196 -6.89176 593.609 5.12846C892.003 40.1545 1223.46 198.035 1440.01 329.672H1440ZM1440 306.911V307.331C1282.67 213.631 1061.28 107.859 836.093 42.9666C667.835 -5.51155 497.474 -31.1748 350.174 -11.9074C202.874 7.36008 78.6793 71.5376 2.66165 202.723C1.76885 204.271 0.881816 205.826 0.000536133 207.387V206.613C0.768536 205.265 1.53654 203.921 2.30454 202.581C78.3884 71.2796 202.715 7.04538 350.111 -12.2375C497.506 -31.5205 667.901 -5.84946 836.214 42.652C1061.33 107.513 1282.66 213.234 1440.01 306.911H1440ZM1440 284.132V284.547C1271.82 186.397 1026.87 76.4086 782.511 14.4241C616.139 -27.7769 450.061 -47.7255 308.725 -26.5257C178.382 -6.97702 69.0831 47.5745 -0.0109863 151.941V151.249C69.1666 47.1205 178.419 -7.31746 308.662 -26.8635C450.07 -48.0737 616.2 -28.1226 782.623 14.094C1026.91 76.0604 1271.82 185.997 1440.01 284.132H1440ZM1440 261.327V261.743C1260.67 159.108 990.127 45.1287 726.38 -13.04C562.747 -49.1316 401.74 -63.737 266.781 -40.8163C155.967 -21.9977 62.7241 22.1358 0.000536133 100.444V99.8401C62.7845 21.7048 155.981 -22.3512 266.706 -41.1568C401.726 -64.0878 562.793 -49.4773 726.481 -13.3754C990.159 44.7804 1260.63 158.711 1440.01 261.327H1440ZM1440 238.505V238.915C1249.38 131.892 951.553 14.3055 668.696 -39.1857C508.508 -69.48 353.129 -79.2195 224.767 -54.8385C133.537 -37.5035 55.9618 -2.93149 0.0149326 53.7356V53.2041C56.0108 -3.34689 133.546 -37.8699 224.698 -55.1739C353.12 -79.5678 508.554 -69.8284 668.794 -39.5237C951.567 13.9571 1249.33 131.486 1440.01 238.505H1440ZM304.229 608.952C734.907 233.27 955.685 230.77 1115.69 347.979C1186.7 399.995 1245.74 475.566 1305.86 552.53C1320.57 571.364 1335.35 590.275 1350.39 608.952H1349.9C1334.92 590.339 1320.19 571.49 1305.53 552.723C1245.42 475.777 1186.4 400.224 1115.43 348.243C955.605 231.173 735.063 233.691 304.788 608.952H304.229Z" fill="white"/>
</g>
<defs>
<clipPath id="clip0_581_94">
<rect width="1440" height="420" fill="white"/>
</clipPath>
</defs>
</svg>
