<svg width="616" height="694" viewBox="0 0 616 694" fill="none" xmlns="http://www.w3.org/2000/svg">
<path d="M308 694C478.104 694 616 597.93 616 479.422C616 360.914 478.104 264.844 308 264.844C137.896 264.844 0 360.914 0 479.422C0 597.93 137.896 694 308 694Z" fill="#F0F0F0"/>
<path d="M244.266 642.02C302.924 642.02 350.476 608.895 350.476 568.033C350.476 527.171 302.924 494.046 244.266 494.046C185.608 494.046 138.057 527.171 138.057 568.033C138.057 608.895 185.608 642.02 244.266 642.02Z" fill="#E0E0E0"/>
<path d="M546.305 475.462L533.846 466.786C533.846 466.786 530.8 434.604 532.826 409.679C535.676 374.657 554.424 332.505 576.78 342.412C599.136 352.319 566.53 387.972 559.274 417.677C552.018 447.382 546.305 475.462 546.305 475.462Z" fill="white"/>
<path opacity="0.15" d="M546.305 475.462L533.846 466.786C533.846 466.786 530.8 434.604 532.826 409.679C535.676 374.657 554.424 332.505 576.78 342.412C599.136 352.319 566.53 387.972 559.274 417.677C552.018 447.382 546.305 475.462 546.305 475.462Z" fill="black"/>
<path d="M539.756 471.818C539.954 471.806 540.141 471.7 540.276 471.523C540.41 471.346 540.482 471.112 540.475 470.872C538.291 393.051 570.4 353.896 570.714 353.518C570.856 353.346 570.936 353.114 570.936 352.871C570.936 352.628 570.856 352.396 570.714 352.224C570.645 352.14 570.562 352.073 570.471 352.027C570.38 351.981 570.283 351.958 570.184 351.958C570.086 351.958 569.988 351.981 569.897 352.027C569.807 352.073 569.724 352.14 569.655 352.224C569.315 352.603 536.749 392.326 538.958 470.935C538.961 471.056 538.985 471.176 539.027 471.286C539.069 471.397 539.129 471.496 539.203 471.578C539.277 471.661 539.365 471.724 539.459 471.765C539.554 471.807 539.655 471.825 539.756 471.818Z" fill="white"/>
<path d="M554.136 480.873L545.272 474.705C545.272 474.705 543.756 452.619 552.737 425.801C560.582 402.453 579.93 383.065 589.683 387.135C599.436 391.205 599.188 399.551 594.429 408.306C589.67 417.061 560.765 437.901 554.136 480.873Z" fill="white"/>
<path d="M549.456 478.538C549.656 478.534 549.847 478.437 549.988 478.266C550.13 478.095 550.211 477.865 550.214 477.623C550.031 428.404 588.323 395.149 588.716 394.818C588.797 394.75 588.867 394.664 588.92 394.563C588.973 394.462 589.009 394.349 589.024 394.231C589.04 394.113 589.036 393.992 589.012 393.876C588.988 393.76 588.945 393.651 588.885 393.556C588.77 393.361 588.595 393.229 588.4 393.188C588.204 393.147 588.003 393.199 587.84 393.335C587.447 393.666 548.527 427.489 548.697 477.623C548.697 477.866 548.777 478.099 548.919 478.27C549.062 478.442 549.255 478.538 549.456 478.538Z" fill="white"/>
<path d="M85.3051 456.137L96.8099 446.767C96.8099 446.767 101.869 410.483 97.1628 378.475C90.5476 333.578 64.8319 318.654 55.6804 323.387C46.5289 328.119 44.5679 341.481 61.6551 367.101C71.7871 382.166 84.9521 414.332 85.3051 456.137Z" fill="white"/>
<g opacity="0.15">
<path d="M85.3051 456.137L96.8099 446.767C96.8099 446.767 101.869 410.483 97.1628 378.475C90.5476 333.578 64.8319 318.654 55.6804 323.387C46.5289 328.119 44.5679 341.481 61.6551 367.101C71.7871 382.166 84.9521 414.332 85.3051 456.137Z" fill="black"/>
</g>
<path d="M89.2533 438.153H89.1356C89.0181 438.144 88.9034 438.106 88.7992 438.04C88.6949 437.973 88.6034 437.882 88.5306 437.77C88.4578 437.658 88.4053 437.529 88.3767 437.391C88.348 437.254 88.3438 437.11 88.3643 436.97C92.5216 394.708 77.7355 348.833 61.6419 330.58C61.487 330.391 61.4001 330.136 61.4001 329.87C61.4001 329.605 61.487 329.35 61.6419 329.161C61.7186 329.066 61.8101 328.991 61.9111 328.94C62.0122 328.889 62.1206 328.862 62.2302 328.862C62.3398 328.862 62.4483 328.889 62.5493 328.94C62.6503 328.991 62.7418 329.066 62.8185 329.161C79.2128 347.744 94.2735 394.376 90.0638 437.254C90.0391 437.496 89.9441 437.719 89.7956 437.884C89.6471 438.048 89.4548 438.144 89.2533 438.153Z" fill="white"/>
<path d="M55.1835 480.652C53.3532 481.978 48.0191 477.198 46.5418 476.046C44.01 474.051 41.9476 471.302 40.5541 468.064C38.9909 464.391 38.4108 460.224 38.8938 456.137C39.1616 454.004 39.5503 451.896 40.0574 449.827C40.5149 447.761 40.9725 445.694 41.3647 443.612C41.9445 441.586 42.1672 439.437 42.0184 437.301C41.5085 433.089 38.3578 430.202 35.4816 427.726C32.3178 424.965 28.9448 421.321 28.9448 416.241C29.1061 412.25 30.372 408.44 32.5401 405.419C34.5011 402.264 36.8543 399.519 38.6193 396.222C39.9994 393.937 40.7038 391.16 40.6195 388.334C40.3922 386.593 39.8765 384.924 39.103 383.428C37.5603 380.147 35.56 377.118 34.4749 373.632C33.3898 370.145 33.4683 365.665 35.7823 363.062C37.6257 360.932 40.4365 360.585 42.9858 360.727C45.3881 361.016 47.7087 361.937 49.7841 363.425C56.5431 367.763 60.5175 377.228 67.6687 380.525C70.4272 381.788 73.4342 382.008 76.2973 382.86C79.1604 383.712 82.115 385.4 83.4877 388.539C86.1939 394.771 81.4744 402.627 83.4093 409.237C85.135 415.105 89.9461 417.251 92.6654 422.504C93.769 424.837 94.227 427.534 93.9727 430.202C93.8193 434.707 92.9818 439.14 91.5018 443.28C89.7996 447.574 87.8785 451.736 85.7494 455.743C85.7494 455.743 55.458 480.447 55.1835 480.652Z" fill="white"/>
<path d="M72.8587 467.575C72.7488 467.573 72.6404 467.544 72.5395 467.492C72.4386 467.439 72.3474 467.363 72.2709 467.268C72.1944 467.173 72.1342 467.06 72.0937 466.937C72.0533 466.814 72.0333 466.682 72.0351 466.549C72.7672 426.606 56.4775 382.939 44.9467 370.319C44.7828 370.14 44.6839 369.891 44.6717 369.625C44.6595 369.359 44.7348 369.098 44.8813 368.899C44.958 368.805 45.0495 368.73 45.1505 368.678C45.2516 368.627 45.36 368.601 45.4696 368.601C45.5792 368.601 45.6877 368.627 45.7887 368.678C45.8897 368.73 45.9812 368.805 46.0579 368.899C57.8241 381.677 74.4406 426.101 73.6954 466.597C73.6937 466.727 73.6707 466.856 73.6278 466.976C73.5848 467.095 73.5227 467.204 73.445 467.295C73.3673 467.386 73.2755 467.457 73.1749 467.505C73.0743 467.553 72.9669 467.577 72.8587 467.575Z" fill="white"/>
<path d="M66.7535 418.907C66.6763 418.931 66.5955 418.931 66.5182 418.907C55.824 415.184 42.5674 414.806 42.4367 414.79C42.3274 414.788 42.2196 414.76 42.1194 414.707C42.0193 414.654 41.9288 414.578 41.8534 414.482C41.7779 414.387 41.719 414.274 41.68 414.151C41.641 414.028 41.6227 413.896 41.6262 413.764C41.6241 413.631 41.645 413.499 41.6875 413.376C41.73 413.253 41.7932 413.142 41.8731 413.05C41.9529 412.958 42.0478 412.887 42.1515 412.842C42.2553 412.797 42.3658 412.778 42.4759 412.786C42.6067 412.786 56.0724 413.181 66.9758 416.967C67.1865 417.044 67.3637 417.217 67.4689 417.451C67.5741 417.684 67.5989 417.958 67.5379 418.213C67.487 418.416 67.3831 418.593 67.2416 418.718C67.1002 418.843 66.9289 418.91 66.7535 418.907Z" fill="white"/>
<path d="M374.885 428.672L369.93 425.217C369.104 424.571 368.417 423.698 367.924 422.67C367.431 421.642 367.146 420.488 367.093 419.302V170.806C367.147 169.622 367.43 168.47 367.921 167.443C368.411 166.415 369.095 165.541 369.917 164.89L507.647 68.944C508.524 68.4076 509.494 68.1281 510.477 68.1281C511.461 68.1281 512.43 68.4076 513.307 68.944L518.262 72.3989C519.088 73.0457 519.775 73.9186 520.268 74.9466C520.761 75.9747 521.046 77.1287 521.099 78.3147V326.81C521.045 327.994 520.762 329.146 520.271 330.174C519.781 331.201 519.097 332.075 518.275 332.726L380.545 428.688C379.668 429.226 378.697 429.505 377.713 429.502C376.729 429.499 375.76 429.215 374.885 428.672Z" fill="#E36CC5"/>
<path d="M521.099 77.7625C520.903 75.9957 519.713 75.3489 518.288 76.3427L380.545 172.305C379.712 172.936 379.024 173.809 378.545 174.845L367.916 167.446C368.391 166.402 369.08 165.523 369.916 164.89L507.646 68.944C508.524 68.4076 509.493 68.1281 510.477 68.1281C511.46 68.1281 512.43 68.4076 513.307 68.944L518.262 72.3989C519.027 72.9934 519.677 73.7805 520.167 74.7062C520.656 75.632 520.974 76.6746 521.099 77.7625Z" fill="#E36CC5"/>
<path d="M380.062 428.956C379.225 429.365 378.325 429.553 377.423 429.507C376.521 429.46 375.637 429.181 374.832 428.688L369.864 425.217C369.043 424.567 368.359 423.693 367.869 422.665C367.378 421.638 367.094 420.486 367.041 419.302V170.806C367.074 169.62 367.358 168.464 367.864 167.446L378.493 174.845C377.976 175.864 377.688 177.027 377.656 178.221V426.716C377.709 428.672 378.728 429.572 380.062 428.956Z" fill="#263238"/>
<path d="M377.708 178.252V426.716C377.708 428.893 379.016 429.777 380.545 428.688L518.275 332.726C519.097 332.075 519.781 331.201 520.271 330.174C520.762 329.146 521.045 327.994 521.099 326.81V78.3147C521.099 76.1377 519.792 75.2542 518.275 76.3427L380.545 172.305C379.716 172.955 379.027 173.833 378.534 174.867C378.041 175.901 377.758 177.061 377.708 178.252Z" fill="#37474F"/>
<path d="M345.547 272.905C343.769 271.627 335.52 265.964 335.088 265.664C334.752 265.422 334.465 265.092 334.249 264.698C334.033 264.305 333.892 263.858 333.838 263.39C333.784 262.922 333.818 262.445 333.937 261.995C334.056 261.545 334.258 261.133 334.526 260.79L367.093 218.638L377.708 225.989L345.155 268.173C344.899 268.501 344.705 268.892 344.585 269.319C344.465 269.745 344.422 270.198 344.459 270.646C344.496 271.095 344.613 271.528 344.8 271.918C344.988 272.308 345.243 272.644 345.547 272.905Z" fill="#E36CC5"/>
<path d="M377.708 226.036L345.155 268.173C344.793 268.638 344.557 269.225 344.478 269.856C344.399 270.487 344.48 271.132 344.71 271.707C344.941 272.281 345.311 272.757 345.771 273.072C346.231 273.388 346.759 273.527 347.286 273.473L377.708 270.444V226.036Z" fill="#37474F"/>
<path d="M449.403 150.172C465.458 138.987 478.466 148.058 478.466 170.428C478.466 192.797 465.458 219.978 449.403 231.163C433.349 242.348 420.341 233.277 420.341 210.923C420.341 188.57 433.349 161.357 449.403 150.172Z" fill="white"/>
<path d="M449.194 167.777C454.424 164.149 458.621 167.083 458.621 174.34C458.442 178.285 457.496 182.123 455.858 185.544C454.221 188.965 451.938 191.871 449.194 194.028C443.965 197.656 439.755 194.722 439.755 187.465C439.935 183.519 440.883 179.68 442.523 176.259C444.163 172.838 446.449 169.932 449.194 167.777Z" fill="white"/>
<path d="M467.785 206.459C467.785 194.548 460.843 189.705 452.293 195.668L446.946 199.391C438.396 205.355 431.454 219.9 431.454 231.778V235.044C433.068 235.667 434.753 235.981 436.448 235.975C441.034 235.787 445.501 234.155 449.404 231.242C456.835 225.718 463.123 218.218 467.785 209.314V206.459Z" fill="white"/>
<path d="M430.996 341.891L467.811 316.24C469.38 315.152 470.648 316.035 470.648 318.212V332.521C470.595 333.707 470.31 334.861 469.817 335.889C469.324 336.917 468.637 337.79 467.811 338.436L430.996 364.087C429.427 365.176 428.159 364.292 428.159 362.115V347.807C428.213 346.621 428.497 345.467 428.99 344.439C429.483 343.411 430.171 342.538 430.996 341.891Z" fill="white"/>
<path d="M412.967 309.93L485.8 259.165C487.67 257.855 489.199 258.912 489.199 261.531V266.847C489.135 268.27 488.794 269.654 488.204 270.888C487.613 272.121 486.789 273.169 485.8 273.946L412.928 324.712C411.059 326.021 409.542 324.964 409.542 322.346V317.077C409.602 315.643 409.943 314.247 410.539 313.004C411.135 311.761 411.967 310.708 412.967 309.93Z" fill="#FAFAFA"/>
<path d="M421.491 273.189C422.485 272.495 423.256 272.385 423.805 272.874C424.354 273.363 424.629 274.451 424.629 276.123C424.657 277.65 424.374 279.161 423.805 280.525C423.292 281.758 422.486 282.779 421.491 283.459L419.53 284.831V289.927C419.527 290.102 419.491 290.275 419.426 290.432C419.38 290.574 419.297 290.696 419.19 290.779L418.197 291.473C418.163 291.504 418.122 291.52 418.079 291.52C418.037 291.52 417.995 291.504 417.962 291.473C417.891 291.366 417.858 291.23 417.87 291.094V276.344C417.869 276.17 417.9 275.997 417.962 275.839C418.011 275.699 418.093 275.579 418.197 275.492L421.491 273.189ZM419.53 281.976L421.426 280.651C421.884 280.339 422.271 279.895 422.55 279.357C422.848 278.724 422.993 278.003 422.969 277.275C422.969 276.423 422.825 275.934 422.55 275.792C422.356 275.735 422.154 275.733 421.959 275.785C421.765 275.836 421.582 275.942 421.426 276.092L419.53 277.417V281.976Z" fill="#FAFAFA"/>
<path d="M430.106 267.179C430.237 267.084 430.342 267.084 430.407 267.179C430.491 267.32 430.549 267.481 430.577 267.652L433.597 279.988C433.597 279.988 433.597 280.083 433.597 280.13C433.595 280.306 433.559 280.479 433.492 280.635C433.446 280.778 433.364 280.899 433.257 280.982L432.368 281.597C432.211 281.708 432.093 281.724 432.028 281.597C431.965 281.518 431.92 281.42 431.897 281.314L431.361 279.152L427.439 281.866L426.916 284.768C426.879 284.925 426.831 285.079 426.773 285.226C426.708 285.418 426.587 285.575 426.433 285.668L425.544 286.283C425.511 286.316 425.469 286.334 425.426 286.334C425.383 286.334 425.341 286.316 425.308 286.283C425.24 286.181 425.207 286.051 425.217 285.92C425.21 285.862 425.21 285.804 425.217 285.746L428.224 269.214C428.26 268.971 428.317 268.733 428.394 268.504C428.458 268.338 428.563 268.2 428.694 268.109L430.106 267.179ZM430.786 276.739L429.479 271.17L428.171 278.616L430.786 276.739Z" fill="#FAFAFA"/>
<path d="M438.174 261.326C438.611 260.993 439.109 260.793 439.625 260.742C439.99 260.703 440.355 260.802 440.671 261.026C440.958 261.251 441.181 261.576 441.311 261.957C441.454 262.345 441.534 262.763 441.547 263.187C441.556 263.363 441.524 263.538 441.455 263.692C441.409 263.835 441.327 263.957 441.22 264.039L440.357 264.639C440.213 264.733 440.109 264.749 440.043 264.639C439.962 264.575 439.895 264.488 439.847 264.386C439.795 264.244 439.719 264.117 439.625 264.011C439.53 263.905 439.419 263.824 439.298 263.771C438.9 263.702 438.496 263.827 438.174 264.118C437.962 264.283 437.761 264.468 437.572 264.67C437.378 264.886 437.207 265.13 437.062 265.396C436.923 265.653 436.809 265.928 436.723 266.216C436.645 266.491 436.606 266.779 436.605 267.068C436.589 267.334 436.63 267.6 436.723 267.841C436.763 267.926 436.82 267.998 436.888 268.05C436.956 268.102 437.034 268.133 437.115 268.141C437.357 268.192 437.605 268.192 437.847 268.141L438.984 267.841C439.408 267.69 439.85 267.626 440.292 267.652C440.607 267.651 440.914 267.773 441.168 267.999C441.407 268.242 441.58 268.566 441.664 268.93C441.792 269.441 441.85 269.974 441.834 270.507C441.833 271.212 441.75 271.913 441.586 272.59C441.426 273.285 441.193 273.953 440.893 274.577C440.576 275.217 440.199 275.81 439.769 276.344C439.329 276.895 438.827 277.367 438.278 277.748C437.876 278.044 437.433 278.252 436.971 278.364C436.595 278.451 436.206 278.413 435.847 278.253C435.52 278.07 435.25 277.766 435.075 277.385C434.862 276.899 434.745 276.358 434.735 275.808C434.734 275.628 434.765 275.451 434.827 275.287C434.885 275.153 434.97 275.039 435.075 274.956L435.938 274.357C436.069 274.262 436.173 274.23 436.252 274.278C436.33 274.325 436.383 274.404 436.435 274.546C436.489 274.708 436.559 274.862 436.644 275.003C436.725 275.141 436.839 275.245 436.971 275.303C437.143 275.351 437.322 275.351 437.494 275.303C437.771 275.224 438.036 275.091 438.278 274.909C438.532 274.734 438.772 274.534 438.997 274.309C439.437 273.889 439.787 273.348 440.017 272.732C440.122 272.416 440.175 272.078 440.174 271.738C440.186 271.614 440.178 271.489 440.148 271.37C440.119 271.25 440.07 271.139 440.004 271.044C439.933 270.969 439.85 270.913 439.76 270.88C439.669 270.847 439.574 270.839 439.481 270.854C439.184 270.869 438.89 270.927 438.605 271.028C438.265 271.123 437.873 271.233 437.415 271.328C437.065 271.433 436.703 271.465 436.343 271.422C436.061 271.4 435.793 271.261 435.585 271.028C435.359 270.761 435.2 270.422 435.128 270.05C435.022 269.502 434.974 268.94 434.984 268.378C434.983 267.683 435.067 266.992 435.232 266.327C435.388 265.642 435.617 264.985 435.912 264.371C436.195 263.761 436.537 263.194 436.932 262.683C437.29 262.162 437.709 261.705 438.174 261.326Z" fill="#FAFAFA"/>
<path d="M446.763 255.363C447.197 255.019 447.696 254.813 448.214 254.763C448.579 254.726 448.944 254.825 449.26 255.047C449.539 255.278 449.757 255.601 449.888 255.978C450.03 256.366 450.11 256.784 450.123 257.209C450.138 257.384 450.106 257.561 450.031 257.713C449.985 257.856 449.903 257.978 449.796 258.06L448.933 258.66C448.802 258.755 448.698 258.786 448.619 258.66C448.536 258.597 448.472 258.503 448.436 258.392C448.317 258.115 448.117 257.901 447.874 257.792C447.679 257.758 447.48 257.771 447.29 257.83C447.099 257.89 446.92 257.995 446.763 258.139C446.545 258.3 446.339 258.485 446.149 258.692C445.959 258.907 445.792 259.151 445.652 259.417C445.508 259.67 445.393 259.946 445.312 260.238C445.231 260.511 445.186 260.799 445.181 261.089C445.166 261.355 445.206 261.621 445.299 261.862C445.339 261.947 445.396 262.019 445.464 262.071C445.532 262.123 445.61 262.154 445.691 262.162C445.933 262.213 446.181 262.213 446.423 262.162L447.561 261.862C447.986 261.719 448.427 261.656 448.868 261.673C449.183 261.67 449.491 261.792 449.744 262.02C449.983 262.266 450.16 262.589 450.254 262.951C450.369 263.465 450.422 263.996 450.411 264.528C450.41 265.233 450.326 265.934 450.162 266.611C450.003 267.306 449.77 267.974 449.469 268.599C449.154 269.244 448.777 269.843 448.345 270.381C447.903 270.918 447.407 271.384 446.868 271.769C446.465 272.064 446.022 272.272 445.56 272.385C445.188 272.471 444.804 272.432 444.449 272.274C444.116 272.097 443.84 271.792 443.665 271.407C443.45 270.921 443.337 270.379 443.338 269.829C443.322 269.653 443.354 269.476 443.429 269.324C443.475 269.181 443.558 269.06 443.665 268.977L444.527 268.378C444.658 268.283 444.776 268.251 444.841 268.299C444.887 268.324 444.927 268.361 444.959 268.407C444.99 268.454 445.013 268.508 445.024 268.567C445.083 268.726 445.153 268.879 445.233 269.024C445.319 269.163 445.438 269.267 445.573 269.324C445.745 269.372 445.924 269.372 446.096 269.324C446.374 269.245 446.639 269.112 446.881 268.93C447.128 268.751 447.364 268.551 447.587 268.33C447.816 268.114 448.019 267.859 448.188 267.573C448.357 267.301 448.498 267.004 448.606 266.69C448.711 266.374 448.764 266.036 448.763 265.696C448.776 265.572 448.767 265.447 448.738 265.328C448.708 265.208 448.659 265.097 448.593 265.002C448.523 264.927 448.439 264.871 448.349 264.838C448.259 264.805 448.164 264.797 448.07 264.812C447.779 264.834 447.489 264.892 447.208 264.986C446.868 265.081 446.462 265.191 446.018 265.286C445.663 265.391 445.296 265.423 444.933 265.38C444.649 265.362 444.38 265.222 444.174 264.986C443.953 264.717 443.798 264.378 443.73 264.008C443.614 263.467 443.561 262.91 443.573 262.351C443.578 261.652 443.661 260.957 443.821 260.285C443.983 259.603 444.211 258.946 444.501 258.329C444.784 257.715 445.131 257.148 445.534 256.641C445.886 256.14 446.301 255.709 446.763 255.363Z" fill="#FAFAFA"/>
<path d="M456.294 257.335L455.235 264.891C455.203 265.119 455.151 265.341 455.078 265.554C455.027 265.724 454.931 265.868 454.803 265.964L453.81 266.658C453.679 266.753 453.588 266.753 453.522 266.658C453.434 266.528 453.384 266.368 453.378 266.201L451.81 252.87C451.81 252.87 451.81 252.744 451.81 252.697C451.813 252.521 451.849 252.349 451.914 252.192C451.964 252.052 452.045 251.931 452.149 251.845L453.052 251.214C453.127 251.177 453.211 251.177 453.287 251.214C453.365 251.214 453.418 251.34 453.444 251.593L454.477 260.569L455.379 253.833C455.402 253.665 455.442 253.501 455.496 253.344C455.548 253.144 455.66 252.975 455.81 252.87L456.817 252.16C456.961 252.066 457.065 252.082 457.131 252.16C457.187 252.261 457.227 252.373 457.248 252.492L458.163 257.966L459.196 247.554C459.209 247.349 459.258 247.15 459.34 246.97C459.401 246.852 459.481 246.751 459.575 246.671L460.477 246.04C460.511 246.009 460.553 245.992 460.595 245.992C460.637 245.992 460.679 246.009 460.713 246.04C460.75 246.091 460.778 246.151 460.796 246.216C460.814 246.281 460.821 246.35 460.817 246.418C460.822 246.481 460.822 246.545 460.817 246.607L459.248 262.115C459.222 262.342 459.174 262.564 459.105 262.777C459.045 262.946 458.945 263.089 458.817 263.188L457.81 263.882C457.693 263.961 457.601 263.961 457.536 263.882C457.47 263.737 457.417 263.583 457.379 263.424L456.294 257.335Z" fill="#FAFAFA"/>
<path d="M462.412 250.646C462.441 249.771 462.528 248.901 462.673 248.043C462.823 247.205 463.051 246.39 463.353 245.614C463.641 244.859 464.01 244.154 464.451 243.515C464.898 242.882 465.433 242.348 466.033 241.938C466.493 241.561 467.033 241.348 467.589 241.323C468.004 241.328 468.402 241.526 468.7 241.875C469.017 242.304 469.245 242.818 469.367 243.374C469.535 244.098 469.628 244.845 469.641 245.598C469.641 245.882 469.641 246.197 469.641 246.544C469.641 246.891 469.641 247.254 469.641 247.633C469.641 248.011 469.641 248.374 469.641 248.721C469.641 249.068 469.641 249.4 469.641 249.699C469.613 250.569 469.526 251.434 469.38 252.287C469.229 253.122 469.005 253.937 468.713 254.716C468.416 255.468 468.043 256.173 467.602 256.814C467.155 257.441 466.625 257.974 466.033 258.392C465.562 258.766 465.015 258.979 464.451 259.007C464.247 259.012 464.045 258.967 463.856 258.875C463.668 258.783 463.496 258.645 463.353 258.471C463.012 258.029 462.777 257.484 462.673 256.893C462.517 256.166 462.43 255.42 462.412 254.669C462.412 254.385 462.412 254.069 462.412 253.722C462.412 253.375 462.412 253.012 462.412 252.634C462.412 252.255 462.412 251.908 462.412 251.545C462.412 251.182 462.398 250.93 462.412 250.646ZM467.981 246.876C468.01 246.49 467.974 246.101 467.875 245.732C467.776 245.363 467.617 245.022 467.406 244.73C467.066 244.367 466.595 244.383 466.033 244.73C465.423 245.163 464.939 245.813 464.647 246.592C464.276 247.511 464.08 248.519 464.072 249.542C464.072 250.125 464.072 250.772 464.072 251.482C464.072 252.192 464.072 252.823 464.072 253.391C464.043 253.777 464.079 254.166 464.178 254.535C464.277 254.903 464.436 255.244 464.647 255.536C464.987 255.883 465.458 255.852 466.033 255.458C466.633 255.022 467.111 254.379 467.406 253.612C467.777 252.698 467.973 251.695 467.981 250.678C467.981 250.078 467.981 249.431 467.981 248.721C467.981 248.012 467.994 247.444 467.981 246.876Z" fill="#FAFAFA"/>
<path d="M475.341 235.644C476.374 234.934 477.145 234.823 477.681 235.344C477.999 235.766 478.235 236.268 478.373 236.814C478.511 237.359 478.547 237.935 478.479 238.499C478.49 239.57 478.353 240.637 478.074 241.654C477.808 242.602 477.395 243.48 476.858 244.241L478.557 248.706C478.563 248.779 478.563 248.853 478.557 248.926C478.558 249.069 478.531 249.209 478.479 249.337C478.443 249.451 478.379 249.55 478.296 249.621L477.25 250.346C477.08 250.457 476.962 250.472 476.884 250.346C476.815 250.263 476.757 250.168 476.714 250.062L475.106 245.85L473.472 246.986V252.318C473.473 252.493 473.442 252.665 473.38 252.823C473.326 252.96 473.246 253.079 473.145 253.17L472.151 253.864C472.118 253.898 472.077 253.916 472.034 253.916C471.991 253.916 471.949 253.898 471.916 253.864C471.879 253.816 471.85 253.759 471.832 253.696C471.814 253.634 471.807 253.567 471.811 253.501V238.751C471.815 238.576 471.851 238.403 471.916 238.246C471.962 238.104 472.044 237.982 472.151 237.899L475.341 235.644ZM473.498 244.131L475.341 242.932C475.792 242.628 476.177 242.201 476.466 241.686C476.768 241.078 476.914 240.375 476.884 239.666C476.884 238.814 476.74 238.341 476.466 238.246C476.068 238.181 475.664 238.306 475.341 238.594L473.563 239.824L473.498 244.131Z" fill="#FAFAFA"/>
<path d="M484.1 229.57C484.575 229.196 485.118 228.969 485.682 228.907C486.091 228.889 486.49 229.065 486.794 229.396C487.14 229.836 487.38 230.382 487.486 230.974C487.662 231.756 487.759 232.561 487.774 233.372C487.774 234.476 487.774 235.612 487.774 236.764C487.747 237.703 487.651 238.637 487.486 239.556C487.337 240.409 487.109 241.24 486.807 242.033C486.515 242.76 486.146 243.439 485.708 244.052C485.272 244.679 484.75 245.212 484.166 245.629L481.067 247.664C481.034 247.698 480.993 247.716 480.95 247.716C480.907 247.716 480.865 247.698 480.832 247.664C480.794 247.617 480.765 247.56 480.747 247.497C480.729 247.434 480.722 247.368 480.727 247.302V232.552C480.731 232.376 480.767 232.204 480.832 232.047C480.878 231.904 480.961 231.782 481.067 231.7L484.1 229.57ZM486.114 234.476C486.108 234.049 486.055 233.625 485.957 233.214C485.896 232.903 485.765 232.619 485.578 232.394C485.496 232.295 485.398 232.217 485.29 232.166C485.182 232.114 485.066 232.09 484.95 232.094C484.623 232.12 484.307 232.251 484.035 232.473L482.388 233.608V243.894L484.1 242.711C484.432 242.478 484.728 242.179 484.976 241.828C485.22 241.481 485.426 241.1 485.591 240.692C485.754 240.257 485.876 239.802 485.957 239.335C486.048 238.848 486.1 238.351 486.114 237.852C486.153 236.7 486.153 235.58 486.114 234.476Z" fill="#FAFAFA"/>
<path d="M304.575 0.604648C306.831 1.21055 309.006 2.19841 311.033 3.53889C312.974 4.79821 314.714 6.46492 316.171 8.46083C317.565 10.3808 318.599 12.6407 319.204 15.0865C319.821 17.7047 319.866 20.4709 319.335 23.1163C318.984 25.2136 318.296 27.2075 317.308 28.9847C316.407 30.5045 315.333 31.864 314.118 33.0233C312.925 34.141 311.652 35.1282 310.314 35.9733L306.549 38.3869C305.414 39.1007 304.338 39.9405 303.333 40.8952C302.423 41.737 301.726 42.8677 301.319 44.1607C301.12 44.7515 300.79 45.2645 300.365 45.6436C300.164 45.8321 299.93 45.9628 299.681 46.0257C299.431 46.0886 299.174 46.082 298.927 46.0065L293.384 44.5236C293.117 44.456 292.864 44.325 292.639 44.1381C292.415 43.9512 292.223 43.7122 292.076 43.4351C291.92 43.1774 291.816 42.8789 291.773 42.5638C291.729 42.2486 291.748 41.9256 291.828 41.6209C292.274 39.5494 293.061 37.6073 294.142 35.9102C295.128 34.4089 296.27 33.0675 297.541 31.919C298.779 30.8256 300.091 29.8599 301.463 29.0321C302.77 28.2275 304.078 27.4545 305.215 26.6815C306.273 25.9953 307.268 25.1756 308.183 24.2363C308.986 23.4254 309.542 22.3155 309.765 21.0812C309.973 20.0094 309.962 18.8928 309.735 17.8268C309.507 16.7609 309.069 15.7773 308.457 14.9603C306.929 12.9463 304.885 11.6078 302.653 11.1584C298.522 10.0542 295.035 11.7316 292.194 16.1908C291.92 16.6776 291.574 17.0999 291.174 17.4371C290.723 17.707 290.202 17.7523 289.723 17.5633L283.827 15.9857C283.406 15.8877 283.035 15.5928 282.794 15.1654C282.665 14.9371 282.579 14.678 282.541 14.4058C282.502 14.1336 282.513 13.8547 282.572 13.5879C283.073 11.3958 284.006 9.38241 285.291 7.71939C286.741 5.79077 288.463 4.18831 290.377 2.98675C292.47 1.66539 294.725 0.759827 297.057 0.304916C299.555 -0.185401 302.109 -0.0835948 304.575 0.604648ZM298.312 51.3701C298.831 51.5171 299.281 51.903 299.567 52.4455C299.853 52.9879 299.952 53.6438 299.842 54.2728L298.43 62.0028C298.382 62.3265 298.278 62.6343 298.125 62.9061C297.972 63.178 297.773 63.4077 297.541 63.5804C297.322 63.7624 297.074 63.8874 296.813 63.9471C296.552 64.0069 296.283 64.0002 296.025 63.9274L289.697 62.1763C289.428 62.1216 289.172 61.9974 288.946 61.8123C288.72 61.6271 288.531 61.3854 288.39 61.1036C288.243 60.8372 288.143 60.5374 288.096 60.2228C288.049 59.9081 288.055 59.5852 288.115 59.2737L289.54 51.5437C289.662 50.917 289.981 50.3723 290.43 50.0248C290.879 49.6773 291.423 49.5544 291.946 49.6822L298.312 51.3701Z" fill="white"/>
<path d="M311.557 74.6074C313.131 74.3027 314.733 74.2655 316.315 74.497C317.827 74.7139 319.296 75.2477 320.656 76.0745C321.951 76.8851 323.091 78.0136 324.003 79.3874C324.823 80.7319 325.4 82.2689 325.697 83.8993C325.994 85.5296 326.005 87.217 325.728 88.8527C325.479 90.1102 325.078 91.3167 324.539 92.4337C324.019 93.5201 323.414 94.5448 322.735 95.4941C322.068 96.4407 321.427 97.3399 320.839 98.2075C320.263 99.0159 319.751 99.8873 319.309 100.81C318.895 101.62 318.686 102.557 318.708 103.508C318.696 103.952 318.593 104.386 318.407 104.77C318.313 104.947 318.188 105.098 318.041 105.212C317.895 105.326 317.73 105.401 317.557 105.433L313.635 106.19C313.452 106.23 313.264 106.226 313.082 106.177C312.9 106.128 312.728 106.036 312.576 105.906C312.422 105.789 312.293 105.629 312.2 105.44C312.106 105.25 312.052 105.037 312.04 104.817C311.876 103.349 311.965 101.856 312.302 100.432C312.609 99.1708 313.049 97.9621 313.609 96.8351C314.159 95.7534 314.789 94.7343 315.492 93.7904C316.185 92.8439 316.799 91.9604 317.401 91.1086C317.937 90.3478 318.402 89.5171 318.786 88.6318C319.127 87.8699 319.251 86.9944 319.139 86.1393C319.041 85.3867 318.794 84.6739 318.418 84.0614C318.042 83.4489 317.55 82.9549 316.982 82.6214C315.577 81.8021 313.986 81.5691 312.459 81.9588C311.076 82.2027 309.79 82.9568 308.776 84.1176C307.763 85.2784 307.072 86.7891 306.798 88.4425C306.721 88.8402 306.589 89.2191 306.406 89.5626C306.172 89.862 305.856 90.0473 305.517 90.0832L301.385 90.8877C301.095 90.9548 300.794 90.8811 300.549 90.6826C300.423 90.5782 300.317 90.4426 300.238 90.2848C300.159 90.127 300.109 89.9507 300.091 89.7677C299.968 88.2022 300.17 86.6245 300.679 85.177C301.196 83.4926 301.958 81.9328 302.928 80.5705C303.992 79.0789 305.245 77.8009 306.641 76.7844C308.147 75.682 309.817 74.9427 311.557 74.6074ZM318.303 109.077C318.483 109.042 318.667 109.051 318.844 109.103C319.021 109.154 319.188 109.247 319.335 109.377C319.49 109.499 319.62 109.659 319.72 109.847C319.819 110.034 319.884 110.245 319.911 110.465L320.643 115.876C320.699 116.315 320.61 116.763 320.395 117.123C320.18 117.484 319.855 117.727 319.492 117.801L315.113 118.668C314.749 118.736 314.378 118.628 314.08 118.369C313.928 118.245 313.8 118.084 313.703 117.896C313.606 117.709 313.543 117.499 313.518 117.28L312.786 111.869C312.752 111.652 312.757 111.429 312.8 111.214C312.843 110.999 312.923 110.798 313.034 110.623C313.137 110.44 313.27 110.285 313.425 110.168C313.581 110.051 313.755 109.975 313.936 109.944L318.303 109.077Z" fill="white"/>
<g opacity="0.2">
<path d="M311.557 74.6074C313.131 74.3027 314.733 74.2655 316.315 74.497C317.827 74.7139 319.296 75.2477 320.656 76.0745C321.951 76.8851 323.091 78.0136 324.003 79.3874C324.823 80.7319 325.4 82.2689 325.697 83.8993C325.994 85.5296 326.005 87.217 325.728 88.8527C325.479 90.1102 325.078 91.3167 324.539 92.4337C324.019 93.5201 323.414 94.5448 322.735 95.4941C322.068 96.4407 321.427 97.3399 320.839 98.2075C320.263 99.0159 319.751 99.8873 319.309 100.81C318.895 101.62 318.686 102.557 318.708 103.508C318.696 103.952 318.593 104.386 318.407 104.77C318.313 104.947 318.188 105.098 318.041 105.212C317.895 105.326 317.73 105.401 317.557 105.433L313.635 106.19C313.452 106.23 313.264 106.226 313.082 106.177C312.9 106.128 312.728 106.036 312.576 105.906C312.422 105.789 312.293 105.629 312.2 105.44C312.106 105.25 312.052 105.037 312.04 104.817C311.876 103.349 311.965 101.856 312.302 100.432C312.609 99.1708 313.049 97.9621 313.609 96.8351C314.159 95.7534 314.789 94.7343 315.492 93.7904C316.185 92.8439 316.799 91.9604 317.401 91.1086C317.937 90.3478 318.402 89.5171 318.786 88.6318C319.127 87.8699 319.251 86.9944 319.139 86.1393C319.041 85.3867 318.794 84.6739 318.418 84.0614C318.042 83.4489 317.55 82.9549 316.982 82.6214C315.577 81.8021 313.986 81.5691 312.459 81.9588C311.076 82.2027 309.79 82.9568 308.776 84.1176C307.763 85.2784 307.072 86.7891 306.798 88.4425C306.721 88.8402 306.589 89.2191 306.406 89.5626C306.172 89.862 305.856 90.0473 305.517 90.0832L301.385 90.8877C301.095 90.9548 300.794 90.8811 300.549 90.6826C300.423 90.5782 300.317 90.4426 300.238 90.2848C300.159 90.127 300.109 89.9507 300.091 89.7677C299.968 88.2022 300.17 86.6245 300.679 85.177C301.196 83.4926 301.958 81.9328 302.928 80.5705C303.992 79.0789 305.245 77.8009 306.641 76.7844C308.147 75.682 309.817 74.9427 311.557 74.6074ZM318.303 109.077C318.483 109.042 318.667 109.051 318.844 109.103C319.021 109.154 319.188 109.247 319.335 109.377C319.49 109.499 319.62 109.659 319.72 109.847C319.819 110.034 319.884 110.245 319.911 110.465L320.643 115.876C320.699 116.315 320.61 116.763 320.395 117.123C320.18 117.484 319.855 117.727 319.492 117.801L315.113 118.668C314.749 118.736 314.378 118.628 314.08 118.369C313.928 118.245 313.8 118.084 313.703 117.896C313.606 117.709 313.543 117.499 313.518 117.28L312.786 111.869C312.752 111.652 312.757 111.429 312.8 111.214C312.843 110.999 312.923 110.798 313.034 110.623C313.137 110.44 313.27 110.285 313.425 110.168C313.581 110.051 313.755 109.975 313.936 109.944L318.303 109.077Z" fill="black"/>
</g>
<path d="M348.528 83.1104C348.707 83.2599 348.858 83.4518 348.972 83.6742C349.087 83.8966 349.163 84.145 349.195 84.404C349.237 84.6606 349.234 84.9249 349.187 85.1801C349.139 85.4353 349.049 85.676 348.921 85.8869L345.809 91.1717C345.685 91.3867 345.526 91.569 345.342 91.7074C345.157 91.8457 344.952 91.9372 344.737 91.9762C344.524 92.0264 344.305 92.0229 344.094 91.9659C343.882 91.9089 343.683 91.7996 343.508 91.6449L339.22 87.9692C339.041 87.8217 338.891 87.6301 338.778 87.4071C338.665 87.1841 338.593 86.9348 338.566 86.6756C338.525 86.419 338.528 86.1547 338.575 85.8995C338.622 85.6443 338.713 85.4036 338.841 85.1927L341.992 79.908C342.246 79.4796 342.631 79.1897 343.061 79.1011C343.492 79.0125 343.935 79.1324 344.293 79.4347L348.528 83.1104ZM366.622 47.3158C368.186 48.6381 369.578 50.233 370.753 52.0485C371.9 53.7372 372.786 55.6609 373.368 57.7276C373.911 59.7082 374.094 61.8066 373.904 63.8801C373.683 66.0912 372.989 68.1949 371.891 69.9852C371.075 71.4327 370.026 72.6668 368.805 73.6135C367.732 74.4259 366.564 75.0426 365.341 75.4435C364.149 75.8193 362.933 76.0726 361.706 76.2007L358.229 76.5793C357.186 76.6799 356.153 76.8964 355.144 77.2261C354.212 77.4813 353.36 78.0502 352.686 78.8668C352.381 79.2399 351.996 79.5023 351.574 79.624C351.374 79.6935 351.162 79.7039 350.958 79.6545C350.753 79.6051 350.561 79.4973 350.398 79.34L346.607 76.0903C346.244 75.778 345.996 75.3089 345.914 74.7809C345.865 74.5251 345.867 74.2589 345.919 74.004C345.971 73.7492 346.072 73.5127 346.214 73.3138C347.1 71.9271 348.207 70.7684 349.47 69.9063C350.607 69.1571 351.82 68.5897 353.078 68.2183C354.293 67.8628 355.53 67.6358 356.778 67.54C358.007 67.4453 359.157 67.3349 360.229 67.2087C361.21 67.1042 362.179 66.8714 363.118 66.5146C363.94 66.1844 364.648 65.5354 365.132 64.6688C365.569 63.9371 365.853 63.0889 365.96 62.1962C366.067 61.3036 365.994 60.393 365.746 59.5418C365.128 57.4392 363.945 55.6459 362.386 54.4463C359.562 52.0169 356.481 51.938 353.143 54.2097C352.807 54.4677 352.435 54.6495 352.045 54.7461C351.842 54.7631 351.638 54.7315 351.445 54.653C351.252 54.5745 351.074 54.4506 350.921 54.2886L346.894 50.8338C346.748 50.717 346.623 50.566 346.527 50.3899C346.43 50.2137 346.364 50.016 346.332 49.8084C346.301 49.5937 346.307 49.3735 346.349 49.1617C346.392 48.9499 346.471 48.7511 346.58 48.5779C347.53 47.109 348.765 45.9443 350.176 45.1861C351.778 44.3101 353.494 43.7764 355.248 43.6086C357.178 43.414 359.121 43.6005 361.001 44.1607C363.03 44.7507 364.941 45.8233 366.622 47.3158Z" fill="white"/>
<g opacity="0.6">
<path d="M348.528 83.1104C348.707 83.2599 348.858 83.4518 348.972 83.6742C349.087 83.8966 349.163 84.145 349.195 84.404C349.237 84.6606 349.234 84.9249 349.187 85.1801C349.139 85.4353 349.049 85.676 348.921 85.8869L345.809 91.1717C345.685 91.3867 345.526 91.569 345.342 91.7074C345.157 91.8457 344.952 91.9372 344.737 91.9762C344.524 92.0264 344.305 92.0229 344.094 91.9659C343.882 91.9089 343.683 91.7996 343.508 91.6449L339.22 87.9692C339.041 87.8217 338.891 87.6301 338.778 87.4071C338.665 87.1841 338.593 86.9348 338.566 86.6756C338.525 86.419 338.528 86.1547 338.575 85.8995C338.622 85.6443 338.713 85.4036 338.841 85.1927L341.992 79.908C342.246 79.4796 342.631 79.1897 343.061 79.1011C343.492 79.0125 343.935 79.1324 344.293 79.4347L348.528 83.1104ZM366.622 47.3158C368.186 48.6381 369.578 50.233 370.753 52.0485C371.9 53.7372 372.786 55.6609 373.368 57.7276C373.911 59.7082 374.094 61.8066 373.904 63.8801C373.683 66.0912 372.989 68.1949 371.891 69.9852C371.075 71.4327 370.026 72.6668 368.805 73.6135C367.732 74.4259 366.564 75.0426 365.341 75.4435C364.149 75.8193 362.933 76.0726 361.706 76.2007L358.229 76.5793C357.186 76.6799 356.153 76.8964 355.144 77.2261C354.212 77.4813 353.36 78.0502 352.686 78.8668C352.381 79.2399 351.996 79.5023 351.574 79.624C351.374 79.6935 351.162 79.7039 350.958 79.6545C350.753 79.6051 350.561 79.4973 350.398 79.34L346.607 76.0903C346.244 75.778 345.996 75.3089 345.914 74.7809C345.865 74.5251 345.867 74.2589 345.919 74.004C345.971 73.7492 346.072 73.5127 346.214 73.3138C347.1 71.9271 348.207 70.7684 349.47 69.9063C350.607 69.1571 351.82 68.5897 353.078 68.2183C354.293 67.8628 355.53 67.6358 356.778 67.54C358.007 67.4453 359.157 67.3349 360.229 67.2087C361.21 67.1042 362.179 66.8714 363.118 66.5146C363.94 66.1844 364.648 65.5354 365.132 64.6688C365.569 63.9371 365.853 63.0889 365.96 62.1962C366.067 61.3036 365.994 60.393 365.746 59.5418C365.128 57.4392 363.945 55.6459 362.386 54.4463C359.562 52.0169 356.481 51.938 353.143 54.2097C352.807 54.4677 352.435 54.6495 352.045 54.7461C351.842 54.7631 351.638 54.7315 351.445 54.653C351.252 54.5745 351.074 54.4506 350.921 54.2886L346.894 50.8338C346.748 50.717 346.623 50.566 346.527 50.3899C346.43 50.2137 346.364 50.016 346.332 49.8084C346.301 49.5937 346.307 49.3735 346.349 49.1617C346.392 48.9499 346.471 48.7511 346.58 48.5779C347.53 47.109 348.765 45.9443 350.176 45.1861C351.778 44.3101 353.494 43.7764 355.248 43.6086C357.178 43.414 359.121 43.6005 361.001 44.1607C363.03 44.7507 364.941 45.8233 366.622 47.3158Z" fill="white"/>
</g>
<path d="M251.169 222.755H204.719V86.9596C204.719 75.1651 208.602 63.8537 215.513 55.5138C222.425 47.1739 231.799 42.4885 241.573 42.4885H245.861C255.636 42.4885 265.01 47.1739 271.921 55.5138C278.833 63.8537 282.716 75.1651 282.716 86.9596V184.768C282.698 194.85 279.367 204.512 273.453 211.633C267.539 218.755 259.524 222.755 251.169 222.755Z" fill="#263238"/>
<path d="M200.195 549.67C199.374 555.297 198.937 560.995 198.888 566.708C198.718 577.056 197.149 580.732 196.94 589.219C196.692 598.921 198.091 602.55 201.346 608.008C204.601 613.466 213.112 618.404 216.799 609.191C220.486 599.978 219.95 593.936 218.786 584.424C217.596 574.58 217.479 569.137 216.747 561.644C216.145 555.034 215.439 550.001 215.439 550.001L200.195 549.67Z" fill="#263238"/>
<path d="M224.539 480.936L196.3 480.321C196.718 503.069 199.712 528.326 200.222 549.733C200.326 553.756 200.143 580.953 201.399 589.172C203.294 601.603 215.505 599.915 216.159 592.485C216.812 585.054 215.374 553.298 215.413 550.017C215.296 536.324 220.643 513.213 223.401 488.635C223.519 487.452 224.408 482.119 224.539 480.936Z" fill="#D2A7A6"/>
<path d="M260.817 531.97C260.817 531.97 259.706 531.244 259.51 532.68C259.235 534.384 258.817 537.902 258.203 540.71C257.392 544.606 256.712 551.027 257.196 554.214C257.68 557.4 263.824 561.47 267.812 562.953C272.726 564.783 277.208 568.001 280.885 572.34C284.807 576.82 293.344 581.048 299.188 581C306.052 581 310.837 578.24 313.098 573.807C315.36 569.374 311.033 568.837 303.189 562.764L297.109 558.031C284.676 548.235 280.114 542.997 276.623 533.201L260.817 531.97Z" fill="#263238"/>
<path d="M276.728 525.896C276.519 518.861 280.545 459.056 280.545 459.056L253.731 473.806C259.471 515.169 260.7 524.934 260.791 531.702C260.674 532.269 260.625 532.853 260.647 533.437C260.647 541.467 268.191 545.805 274.048 551.169C279.027 555.875 284.332 560.055 289.906 563.663C294.168 566.234 302.823 566.471 303.895 563.174C296.757 556.596 286.376 546.752 280.702 539.243C277.931 535.709 276.937 532.948 276.728 525.896Z" fill="#D2A7A6"/>
<path d="M207.87 258.96C197.568 286.235 197.568 307.343 199.28 342.16C200.797 374.105 203.32 402.264 203.32 402.264C202.928 407.927 196.404 418.986 195.554 444.038C194.77 467.448 196.862 497.217 196.862 497.217C196.862 497.217 211.517 507.013 222.355 497.122C222.355 497.122 232.814 436.875 235.873 407.565C238.488 381.993 243.194 349.322 243.194 349.322L253.091 407.391C250.955 415.63 249.407 424.075 248.463 432.632C247.077 449.874 255.078 483.729 255.078 483.729C255.078 483.729 270.218 489.171 279.461 479.28C279.461 479.28 282.912 424.239 284.206 403.479C285.932 375.667 282.297 300.386 279.461 260.521L207.87 258.96Z" fill="#E36CC5"/>
<path d="M243.221 349.274L247.287 305.513C247.287 305.513 265.511 302.579 273.774 293.208C271.409 297.673 268.258 301.454 264.546 304.284C260.834 307.114 256.651 308.924 252.294 309.583L246.411 350.3L253.091 407.391L243.221 349.274Z" fill="#263238"/>
<path d="M317.02 248.201C317.773 240.215 318.105 232.18 318.014 224.143C317.609 217.202 316.576 216.066 308.536 203.777C297.685 187.165 288.415 172.226 278.61 157.381C271.603 146.78 264.229 145.155 257.065 145.629C252.045 145.96 261.85 175.097 266.779 192.34L294.926 228.907C295.798 230.351 296.198 232.131 296.05 233.908L294.351 265.017L302.783 278.647C302.783 278.647 315.556 265.364 317.02 248.201Z" fill="#D2A7A6"/>
<path d="M229.924 146.575C224.473 147.033 214.563 148.153 214.563 148.153C208.85 152.002 207.399 155.173 206.34 164.323C205.882 168.235 208.523 178.631 210.785 193.413L215.073 220.815L214.602 234.413C212.38 242.711 207.346 253.012 202.901 268.204C224.734 282.907 243.037 283.459 259.641 280.824C272.296 278.853 279.003 275.161 281.238 271.501C280.767 256.499 279.931 247.223 279.669 231.542C279.578 224.963 279.905 218.306 280.127 210.734C288.612 202.31 288.716 188.301 284.049 179.183C273.289 158.154 262.817 144.919 255.889 145.597L229.924 146.575Z" fill="white"/>
<path opacity="0.6" d="M229.924 146.575C224.473 147.033 214.563 148.153 214.563 148.153C208.85 152.002 207.399 155.173 206.34 164.323C205.882 168.235 208.523 178.631 210.785 193.413L215.073 220.815L214.602 234.413C212.38 242.711 207.346 253.012 202.901 268.204C224.734 282.907 243.037 283.459 259.641 280.824C272.296 278.853 279.003 275.161 281.238 271.501C280.767 256.499 279.931 247.223 279.669 231.542C279.578 224.963 279.905 218.306 280.127 210.734C288.612 202.31 288.716 188.301 284.049 179.183C273.289 158.154 262.817 144.919 255.889 145.597L229.924 146.575Z" fill="white"/>
<path opacity="0.1" d="M263.223 210.939C263.223 210.939 253.261 220.278 241.874 215.404C238.676 214.188 235.793 211.997 233.502 209.042C231.212 206.088 229.592 202.47 228.8 198.54C228.8 198.54 227.597 214.236 241.939 219.584C255.836 224.743 263.223 210.939 263.223 210.939Z" fill="black"/>
<path d="M276.741 103.492C276.309 126.272 270.204 131.888 267.119 133.466C264.033 135.043 258.124 134.097 252.372 132.945V146.701C252.372 146.701 259.013 155.094 258.516 161.357C258.019 167.62 248.057 168.33 240.632 162.193C236.534 158.797 232.828 154.76 229.611 150.188C228.993 149.306 228.655 148.188 228.656 147.033V114.851C228.656 114.851 225.506 118.873 219.936 114.267C218.734 113.342 217.706 112.125 216.915 110.693C216.124 109.262 215.588 107.648 215.343 105.954C215.097 104.259 215.146 102.522 215.486 100.851C215.827 99.181 216.452 97.6145 217.321 96.2514C219.753 92.7965 225.924 92.5599 228.878 97.8289C230.552 101.757 230.774 105.717 232.644 104.139C237.612 99.8166 234.945 89.9412 240.945 85.2085C242.915 83.9684 244.96 82.9135 247.064 82.0534C257.771 77.589 267.053 73.8344 269.289 65.0002C273.499 67.9028 277.264 76.6267 276.741 103.492Z" fill="#D2A7A6"/>
<path d="M255.627 123.843C256.999 123.843 258.111 122.501 258.111 120.845C258.111 119.19 256.999 117.848 255.627 117.848C254.255 117.848 253.143 119.19 253.143 120.845C253.143 122.501 254.255 123.843 255.627 123.843Z" fill="#B16668"/>
<path d="M253.98 100.037C253.98 100.655 253.829 101.258 253.547 101.773C253.265 102.288 252.864 102.692 252.394 102.934C251.924 103.177 251.405 103.248 250.902 103.139C250.398 103.029 249.933 102.744 249.562 102.318C249.192 101.893 248.933 101.345 248.818 100.744C248.703 100.143 248.736 99.5139 248.914 98.9354C249.092 98.3569 249.407 97.854 249.82 97.4891C250.232 97.1242 250.724 96.9133 251.235 96.8824C251.589 96.861 251.943 96.9268 252.276 97.0757C252.608 97.2247 252.912 97.4537 253.169 97.7488C253.426 98.044 253.63 98.399 253.77 98.7925C253.909 99.186 253.981 99.6095 253.98 100.037Z" fill="#263238"/>
<path d="M273.786 100.353C273.813 100.739 273.776 101.128 273.677 101.496C273.578 101.864 273.419 102.205 273.21 102.499C273.001 102.793 272.745 103.033 272.458 103.206C272.171 103.38 271.858 103.482 271.538 103.508C271.215 103.544 270.889 103.497 270.582 103.369C270.275 103.242 269.994 103.037 269.758 102.768C269.522 102.5 269.336 102.174 269.212 101.812C269.089 101.449 269.03 101.06 269.041 100.668C269.007 100.28 269.039 99.8866 269.136 99.5135C269.233 99.1403 269.391 98.7949 269.603 98.4984C269.814 98.2018 270.073 97.9605 270.364 97.7891C270.655 97.6177 270.972 97.5198 271.296 97.5015C271.62 97.4832 271.943 97.5449 272.246 97.6827C272.549 97.8205 272.826 98.0316 273.059 98.303C273.292 98.5744 273.477 98.9004 273.602 99.2611C273.727 99.6217 273.79 100.009 273.786 100.4V100.353Z" fill="#263238"/>
<path d="M250.62 108.146C248.365 108.146 246.202 107.066 244.607 105.144C243.011 103.221 242.113 100.613 242.109 97.892C242.109 90.9192 248.071 90.9192 250.62 90.9192C253.17 90.9192 259.118 90.9192 259.118 97.892C259.115 100.61 258.218 103.216 256.625 105.138C255.032 107.06 252.873 108.142 250.62 108.146ZM250.62 92.5283C245.391 92.5283 243.456 94.1059 243.456 97.892C243.456 100.193 244.213 102.4 245.562 104.027C246.91 105.654 248.739 106.569 250.646 106.569C252.553 106.569 254.382 105.654 255.731 104.027C257.079 102.4 257.837 100.193 257.837 97.892C257.785 94.027 255.771 92.5283 250.62 92.5283Z" fill="#E36CC5"/>
<path d="M272.205 108.146C269.95 108.146 267.787 107.066 266.191 105.144C264.596 103.221 263.697 100.613 263.694 97.892C263.694 90.9192 269.655 90.9192 272.205 90.9192C274.754 90.9192 280.703 90.9192 280.703 97.892C280.699 100.61 279.803 103.216 278.21 105.138C276.617 107.06 274.457 108.142 272.205 108.146ZM272.205 92.5283C267.054 92.5283 265.04 94.1059 265.04 97.892C265.04 100.193 265.798 102.4 267.146 104.027C268.495 105.654 270.324 106.569 272.231 106.569C274.138 106.569 275.967 105.654 277.315 104.027C278.664 102.4 279.421 100.193 279.421 97.892C279.369 94.027 277.356 92.5283 272.205 92.5283Z" fill="#E36CC5"/>
<path d="M260.438 94.5791L260.857 113.746L269.211 110.623L260.438 94.5791Z" fill="#F28F8F"/>
<path d="M252.359 132.992C246.293 132.03 233.808 127.708 231.86 121.745C232.644 124.758 234.172 127.411 236.24 129.348C239.965 133.213 252.359 137.552 252.359 137.552V132.992Z" fill="#F28F8F"/>
<path d="M252.66 85.2716L247.117 89.3575C246.68 88.4392 246.553 87.3532 246.762 86.325C246.972 85.2968 247.501 84.4054 248.241 83.836C248.607 83.5683 249.013 83.3927 249.437 83.3201C249.86 83.2474 250.292 83.2792 250.705 83.4133C251.118 83.5475 251.504 83.7814 251.84 84.1008C252.176 84.4202 252.455 84.8185 252.66 85.2716Z" fill="#263238"/>
<path d="M275.212 89.815L269.041 87.212C269.16 86.7185 269.362 86.2598 269.634 85.8639C269.906 85.468 270.242 85.1433 270.621 84.9099C271.001 84.6764 271.416 84.5391 271.841 84.5064C272.267 84.4736 272.693 84.5461 273.094 84.7195C273.921 85.0784 274.603 85.8076 274.997 86.7562C275.391 87.7047 275.468 88.7999 275.212 89.815Z" fill="#263238"/>
<path d="M258.451 98.7124C258.362 98.7124 258.275 98.6911 258.193 98.6497C258.111 98.6082 258.037 98.5476 257.975 98.4712C257.913 98.3948 257.864 98.3042 257.831 98.2048C257.799 98.1053 257.783 97.999 257.784 97.892C257.784 96.5827 259.928 95.7308 261.863 95.7308C263.798 95.7308 265.04 96.5827 265.04 97.892C265 98.0635 264.914 98.2143 264.796 98.3216C264.678 98.429 264.534 98.487 264.386 98.487C264.239 98.487 264.095 98.429 263.977 98.3216C263.859 98.2143 263.773 98.0635 263.733 97.892C263.733 97.7343 263.066 97.3399 261.902 97.3399C260.966 97.3158 260.034 97.5086 259.157 97.9078C259.157 98.0176 259.139 98.1262 259.103 98.227C259.067 98.3279 259.014 98.4188 258.948 98.4941C258.882 98.5695 258.804 98.6277 258.718 98.6653C258.633 98.7028 258.542 98.7188 258.451 98.7124Z" fill="#E36CC5"/>
<path d="M242.803 98.0182H242.724L227.781 96.4407C227.083 95.6056 226.251 94.9507 225.336 94.5161L242.881 96.4722C243.057 96.4999 243.217 96.6094 243.327 96.7774C243.437 96.9454 243.488 97.1586 243.469 97.3714C243.439 97.5565 243.355 97.7226 243.233 97.8409C243.111 97.9591 242.959 98.0219 242.803 98.0182Z" fill="#E36CC5"/>
<path d="M181.448 116.823C186.337 108.935 189.671 102.987 194.129 96.3144C196.665 92.481 198.287 89.7361 200.666 85.808C202.339 83.0946 203.281 80.8071 205.189 79.971C207.252 78.9514 209.11 77.4133 210.641 75.4592C211.582 74.2029 212.456 72.8751 213.256 71.4838C216.058 66.9327 219.386 62.8899 223.139 59.4787C227.061 55.9134 231.441 53.1685 235.481 49.7768C237.886 47.7417 240.462 44.3658 237.533 41.2107C236.635 40.2979 235.56 39.6739 234.409 39.3965C227.284 37.535 221.087 40.485 214.119 42.6305C211.092 43.5421 208.132 44.7503 205.268 46.2431C203.859 46.9153 202.538 47.8292 201.346 48.9565C199.679 50.9848 198.312 53.3432 197.306 55.9292C194.26 62.4918 187.723 68.3603 183.147 73.5504C177.8 79.624 173.015 85.1927 166.91 91.8815C161.419 97.9235 156.046 103.477 151.013 110.071C146.842 115.513 148.398 119.773 148.947 121.255C152.346 129.68 156.15 132.708 160.713 137.93C168.557 146.969 195.685 172.983 204.666 181.581C206.596 183.41 208.112 185.797 209.072 188.522L210.798 193.334C221.048 195.605 227.885 177.038 219.4 154.684C217.995 151.069 215.849 147.947 213.164 145.613C202.444 136.195 181.448 116.823 181.448 116.823Z" fill="#D2A7A6"/>
<path d="M181.448 116.823C178.185 121.665 173.838 125.274 168.923 127.219C168.923 127.219 175.46 129.238 184.416 119.536L181.448 116.823Z" fill="#F28F8F"/>
<path d="M314.354 231.747L312.68 230.012C312.43 229.813 312.145 229.688 311.847 229.647C311.55 229.606 311.248 229.65 310.968 229.775L292.808 235.738C291.894 236.106 291.056 236.708 290.352 237.503C289.648 238.298 289.094 239.268 288.729 240.345L275.656 285.825C275.498 286.196 275.437 286.615 275.479 287.028C275.521 287.442 275.664 287.83 275.891 288.144L277.617 289.943C277.868 290.152 278.158 290.284 278.46 290.328C278.763 290.372 279.071 290.326 279.356 290.195L297.541 284.232C298.456 283.864 299.294 283.262 299.998 282.467C300.702 281.672 301.255 280.703 301.62 279.626C304.235 270.681 312.079 243.09 314.694 234.145C315.007 233.025 314.85 232.173 314.354 231.747Z" fill="#E36CC5"/>
<path d="M277.368 287.576L290.442 242.096C290.805 241.019 291.358 240.051 292.063 239.259C292.767 238.466 293.606 237.868 294.521 237.505L312.667 231.542C314.353 230.99 315.282 232.157 314.68 234.145C312.066 243.089 304.221 270.681 301.607 279.626C301.242 280.703 300.689 281.672 299.985 282.467C299.281 283.262 298.442 283.864 297.528 284.232L279.382 290.258C277.708 290.731 276.806 289.564 277.368 287.576Z" fill="white"/>
<path d="M292.547 238.767C291.603 239.63 290.871 240.786 290.429 242.111L277.356 287.576C277.206 287.937 277.144 288.342 277.176 288.744C277.208 289.146 277.334 289.528 277.539 289.848L275.917 288.176C275.685 287.866 275.537 287.478 275.493 287.063C275.448 286.649 275.51 286.228 275.669 285.857L288.743 240.376C289.156 239.14 289.827 238.053 290.691 237.221L292.547 238.767Z" fill="#37474F"/>
<path d="M309.373 252.476C308.066 257.098 303.529 260.19 296.025 262.336C288.521 264.481 284.376 274.088 285.566 277.007C286.756 279.925 298.888 282.654 303.738 281.818C308.589 280.982 313.452 272.527 314.929 269.908C316.407 267.289 318.106 249.021 316.55 246.513C314.995 244.004 311.713 244.399 311.713 244.399L309.373 252.476Z" fill="#F28F8F"/>
</svg>
